<?xml version="1.0" encoding="UTF-8" standalone="no"?>
<!DOCTYPE svg PUBLIC "-//W3C//DTD SVG 1.1//EN" "http://www.w3.org/Graphics/SVG/1.1/DTD/svg11.dtd">
<svg>
<metadata>
Created by FontForge 20120731 at Sat Jun 29 13:14:35 2019
 By www
Copyright (c) 2012 by Toni Hurme. All rights reserved.
</metadata>
<defs>
<font id="HurmeGeometricSans3W03-SmBd" horiz-adv-x="561">
  <font-face font-family="HurmeGeometricSans3W03-SmBd" font-weight="600" font-stretch="normal" units-per-em="1000" panose-1="2 11 7 0 2 0 0 0 0 0" ascent="800" descent="-200" x-height="504" cap-height="697" bbox="-64 -220 1186 1052" underline-thickness="50" underline-position="-75" unicode-range="U+000D-FB04"/>
<missing-glyph horiz-adv-x="712" d="M0 0v697h712v-697h-712zM84 81h544v535h-544v-535zM141 191l157 157l-157 157l58 58l157 -157l157 157l58 -58l-157 -157l157 -157l-58 -58l-157 157l-157 -157z"/>
    <glyph glyph-name="uniFB00" unicode="ff" horiz-adv-x="624" d="M109 0v395h-82v109h82v25q0 92 43 137t133 45q31 0 51 -4v-103q-13 5 -43 5q-35 0 -52 -16.5t-17 -54.5v-34h155v25q0 92 44 137t136 45q31 0 51 -4v-103q-13 5 -45 5q-36 0 -53.5 -16.5t-17.5 -54.5v-34h100v-109h-99v-395h-116v395h-154v-395h-116z"/>
    <glyph glyph-name="uniFB01" unicode="fi" horiz-adv-x="548" d="M110 0v395h-83v109h83v25q0 57 13 91.5t42 56.5q22 16 54.5 25t89.5 9q52 0 82 -5v-102q-26 5 -67 5q-51 0 -75 -16.5t-24 -54.5v-34h270v-504h-119v395h-150v-395h-116z"/>
    <glyph glyph-name="uniFB02" unicode="fl" horiz-adv-x="577" d="M109 0v395h-82v109h82v25q0 43 10 81.5t45 67.5q19 16 47.5 24.5t77.5 8.5q30 0 52 -4v-103q-14 5 -46 5q-36 0 -53 -16.5t-17 -54.5v-34h99v-109h-99v-395h-116zM404 0v697h120v-697h-120z"/>
    <glyph glyph-name="uniFB03" unicode="ffi" horiz-adv-x="814" d="M109 0v395h-82v109h82v25q0 92 43 137t133 45q31 0 51 -4v-103q-13 5 -43 5q-35 0 -52 -16.5t-17 -54.5v-34h155v25q0 43 10 81.5t45 66.5q22 16 54.5 25t90.5 9q51 0 81 -5v-102q-26 5 -66 5q-51 0 -75 -16.5t-24 -54.5v-34h269v-504h-119v395h-150v-395h-116v395h-154 v-395h-116z"/>
    <glyph glyph-name="uniFB04" unicode="ffl" horiz-adv-x="832" d="M109 0v395h-82v109h82v25q0 92 43 137t133 45q31 0 51 -4v-103q-13 5 -43 5q-35 0 -52 -16.5t-17 -54.5v-34h155v25q0 92 44 137t136 45q31 0 51 -4v-103q-13 5 -45 5q-36 0 -53.5 -16.5t-17.5 -54.5v-34h100v-109h-99v-395h-116v395h-154v-395h-116zM664 0v697h115v-697 h-115z"/>
    <glyph glyph-name="f_j.liga" unicode="fj" horiz-adv-x="546" d="M110 0v395h-83v109h83v25q0 57 13 91.5t42 56.5q22 16 54.5 25t89.5 9q52 0 82 -5v-102q-26 5 -67 5q-51 0 -75 -16.5t-24 -54.5v-34h270v-547q0 -170 -166 -170q-35 0 -50 3v106l33 -2q33 0 48.5 17t15.5 57v427h-150v-395h-116z"/>
    <glyph glyph-name="f_f_j.liga" unicode="ffj" horiz-adv-x="812" d="M109 0v395h-82v109h82v25q0 92 43 137t133 45q31 0 51 -4v-103q-13 5 -43 5q-35 0 -52 -16.5t-17 -54.5v-34h155v25q0 57 13.5 91.5t42.5 55.5q22 17 54.5 26t89.5 9q50 0 82 -5v-102q-26 5 -67 5q-51 0 -75 -16.5t-24 -54.5v-34h270v-547q0 -170 -167 -170q-33 0 -50 3 v106l34 -2q32 0 47.5 17t15.5 57v427h-149v-395h-117v395h-154v-395h-116z"/>
    <glyph glyph-name=".notdef" horiz-adv-x="712" d="M0 0v697h712v-697h-712zM84 81h544v535h-544v-535zM141 191l157 157l-157 157l58 58l157 -157l157 157l58 -58l-157 -157l157 -157l-58 -58l-157 157l-157 -157z"/>
    <glyph glyph-name=".null" horiz-adv-x="0"/>
    <glyph glyph-name="uni000D" unicode="&#xD;" horiz-adv-x="0"/>
    <glyph glyph-name="glyph859" horiz-adv-x="0"/>
    <glyph glyph-name="glyph859" horiz-adv-x="0"/>
    <glyph glyph-name="space" unicode=" " horiz-adv-x="407"/>
    <glyph glyph-name="exclam" unicode="!" horiz-adv-x="270" d="M83 176l-21 521h145l-21 -521h-103zM66 56q0 28 20.5 48.5t48.5 20.5t48.5 -20.5t20.5 -48.5t-20.5 -48.5t-48.5 -20.5t-48.5 20.5t-20.5 48.5z"/>
    <glyph glyph-name="quotedbl" unicode="&quot;" horiz-adv-x="354" d="M219 445l-16 252h112l-16 -252h-80zM55 445l-16 252h112l-17 -252h-79z"/>
    <glyph glyph-name="numbersign" unicode="#" horiz-adv-x="611" d="M91 94l25 100h-87v101h112l25 99h-87v101h113l24 98h102l-25 -98h102l25 98h101l-24 -98h86v-101h-111l-25 -99h87v-101h-112l-26 -100h-101l25 100h-102l-26 -100h-101zM243 295h101l26 99h-102z"/>
    <glyph glyph-name="dollar" unicode="$" horiz-adv-x="569" d="M23 148l98 61q20 -42 55.5 -70t82.5 -37v216q-65 24 -106.5 50.5t-64 64.5t-22.5 91q0 49 22.5 88t65.5 65.5t104 31.5v98h71v-101q27 -4 59.5 -16.5t61.5 -36.5t49 -54l-89 -62q-30 47 -82 58v-182q115 -41 163 -91t48 -129q0 -84 -54 -139.5t-156 -63.5v-96h-71v97 q-83 7 -143.5 49.5t-91.5 107.5zM259 439v160q-33 -5 -53 -24.5t-20 -49.5q0 -24 13 -45t60 -41zM328 102q38 4 58.5 21.5t25.5 36t5 30.5q0 28 -16 51.5t-73 50.5v-190z"/>
    <glyph glyph-name="percent" unicode="%" horiz-adv-x="751" d="M188 401q-65 0 -111.5 45t-46.5 109t46.5 109.5t111.5 45.5t111.5 -45.5t46.5 -109.5t-46.5 -109t-111.5 -45zM86 0l466 697h113l-466 -697h-113zM188 486q26 0 45.5 20.5t19.5 48.5t-19.5 49t-45.5 21q-27 0 -46 -21t-19 -49q0 -29 19 -49t46 -20zM405 142 q0 64 46.5 109t111.5 45q32 0 57.5 -10.5t46 -27t37.5 -47t17 -69.5t-18.5 -73t-55 -58t-84.5 -24q-65 0 -111.5 45.5t-46.5 109.5zM498 142q0 -29 19 -49.5t46 -20.5t46.5 20.5t19.5 49.5q0 28 -19.5 48.5t-46.5 20.5t-46 -20.5t-19 -48.5z"/>
    <glyph glyph-name="ampersand" unicode="&amp;" horiz-adv-x="794" d="M37 223q0 71 36 126t103 88q-9 18 -15.5 42t-6.5 44q0 82 57 135.5t149 53.5q82 0 134.5 -46.5t52.5 -115.5q0 -19 -6.5 -38t-17.5 -31h246v-110h-129v-41q0 -56 -13.5 -106t-36.5 -89l129 -135h-155l-50 54q-79 -69 -211 -69q-58 0 -101.5 15t-72.5 36.5t-49.5 49.5 t-31.5 63.5t-11 73.5zM339 393l162 -172q23 40 23 122v28h-140v74q26 6 43.5 29t17.5 54q0 35 -25 59t-62 24q-24 0 -46 -13t-31.5 -35t-9.5 -43q0 -24 13.5 -54t54.5 -73zM159 223q0 -59 39 -93.5t105 -34.5q81 0 119 45q-38 40 -71 75t-62.5 65t-50.5 58 q-38 -18 -58.5 -47.5t-20.5 -67.5z"/>
    <glyph glyph-name="quotesingle" unicode="'" horiz-adv-x="190" d="M55 445l-16 252h112l-17 -252h-79z"/>
    <glyph glyph-name="parenleft" unicode="(" horiz-adv-x="314" d="M41 309q0 137 58.5 259t169.5 220l56 -60q-87 -90 -130.5 -191t-43.5 -228q0 -130 43.5 -230t130.5 -191l-56 -60q-70 60 -119.5 131.5t-79 159t-29.5 190.5z"/>
    <glyph glyph-name="parenright" unicode=")" horiz-adv-x="314" d="M-11 -112q39 41 72.5 88t56 99t34 110.5t11.5 123.5q0 127 -44 228t-130 191l56 60q111 -98 169 -220t58 -259q0 -139 -57.5 -262t-169.5 -219z"/>
    <glyph glyph-name="asterisk" unicode="*" horiz-adv-x="379" d="M131 400l-66 49l72 81l-105 27l27 77l98 -44l-10 107h84l-9 -107l99 44l26 -77l-104 -27l72 -81l-68 -49l-58 90z"/>
    <glyph glyph-name="plus" unicode="+" horiz-adv-x="469" d="M176 152v143h-133v106h133v144h116v-144h134v-106h-134v-143h-116z"/>
    <glyph glyph-name="comma" unicode="," horiz-adv-x="222" d="M58 111h129l-126 -239h-92z"/>
    <glyph glyph-name="hyphen" unicode="-" horiz-adv-x="416" d="M40 218v110h335v-110h-335z"/>
    <glyph glyph-name="period" unicode="." horiz-adv-x="204" d="M32 61q0 28 21 48t49 20t48.5 -20t20.5 -48t-20.5 -48.5t-48.5 -20.5t-49 20.5t-21 48.5z"/>
    <glyph glyph-name="slash" unicode="/" horiz-adv-x="441" d="M-13 -136l321 859h109l-322 -859h-108z"/>
    <glyph glyph-name="zero" unicode="0" horiz-adv-x="582" d="M539 496q3 -33 3 -147q0 -115 -3 -148q-5 -44 -26 -83.5t-54.5 -69t-77 -45.5t-90.5 -16q-35 0 -74.5 11t-80.5 40.5t-64.5 74t-28.5 88.5q-3 33 -3 148q0 114 3 147q5 44 26 83.5t54.5 69t77 45.5t90.5 16q35 0 74.5 -11t80.5 -40.5t64.5 -74t28.5 -88.5zM417 214 q3 26 3 135q0 106 -2 132q-4 36 -26 64.5t-50 39.5t-51 11t-51 -11t-50 -39.5t-26 -64.5q-2 -26 -2 -132q0 -109 3 -135q2 -23 15.5 -49.5t44 -45t66.5 -18.5t66.5 18.5t44 45t15.5 49.5z"/>
    <glyph glyph-name="one" unicode="1" horiz-adv-x="336" d="M134 0v584h-99v113h224v-697h-125z"/>
    <glyph glyph-name="two" unicode="2" horiz-adv-x="526" d="M15 0v81l309 324q43 46 43 95q0 19 -10.5 42.5t-36.5 40.5t-56 17q-20 0 -45 -10.5t-43 -38.5t-18 -61h-114q0 44 17 84.5t47.5 71t71.5 47.5t85 17q32 0 68 -11t73 -40.5t56 -73t19 -85.5q0 -89 -82 -175l-202 -212h298v-113h-480z"/>
    <glyph glyph-name="three" unicode="3" horiz-adv-x="564" d="M6 128l99 58q20 -40 62 -62t97 -22q29 0 63 11.5t57.5 41.5t23.5 71q0 53 -41.5 87.5t-112.5 34.5q-41 0 -77 -11l-41 69l198 178h-265v113h433v-87l-185 -170l12 1q42 -3 78.5 -20t64 -45.5t42.5 -66.5t15 -80q0 -51 -19 -95.5t-54 -77t-84 -50.5t-106 -18 q-89 0 -158 37.5t-102 102.5z"/>
    <glyph glyph-name="four" unicode="4" horiz-adv-x="595" d="M47 140v85l232 472h128l-220 -446h217v139h122v-390h-122v140h-357z"/>
    <glyph glyph-name="five" unicode="5" horiz-adv-x="558" d="M18 129l102 58q18 -38 55.5 -61.5t81.5 -23.5q41 0 74.5 20.5t50.5 49t17 62.5q0 28 -13 58.5t-47 52t-75 21.5q-27 0 -56 -9t-48 -27l-90 24l65 343h338v-113h-244l-25 -126q30 13 73 13q39 0 81 -13t83 -47t61.5 -82.5t20.5 -93.5q0 -52 -20.5 -98t-57.5 -79 t-85.5 -51.5t-102.5 -18.5q-36 0 -82.5 13t-89.5 47.5t-67 80.5z"/>
    <glyph glyph-name="six" unicode="6" horiz-adv-x="570" d="M30 239q0 26 9 59.5t29.5 70.5t59.5 95l153 233h139l-150 -223q20 4 39 4q40 0 81.5 -17t75.5 -48.5t54.5 -76t20.5 -95.5t-20 -97t-55.5 -80.5t-82.5 -53.5t-98 -19t-98 19t-82 53.5t-55 80t-20 95.5zM154 238q0 -41 22 -74t53 -46t56 -13q28 0 58 14t52.5 47t22.5 72 q0 25 -13.5 55.5t-47 53.5t-72.5 23q-41 0 -71 -20t-45 -49t-15 -63z"/>
    <glyph glyph-name="seven" unicode="7" horiz-adv-x="547" d="M91 0l291 584h-352v113h487v-95l-296 -602h-130z"/>
    <glyph glyph-name="eight" unicode="8" horiz-adv-x="564" d="M34 222q0 45 17.5 84t43 62t47.5 34q-27 20 -43 50.5t-16 66.5q0 48 26.5 94t74.5 71.5t98 25.5t98 -25.5t74.5 -71.5t26.5 -94q0 -36 -16 -66t-43 -51q34 -17 61 -48t37.5 -67t10.5 -65q0 -22 -6.5 -51t-23.5 -59.5t-47 -58.5t-76 -46.5t-96 -18.5t-95.5 18.5t-80 51 t-53.5 75.5t-19 89zM282 435q16 0 36 8.5t34 29.5t14 46q0 33 -24.5 57t-59.5 24q-34 0 -59 -24t-25 -57q0 -34 25 -59t59 -25zM158 222q0 -23 12.5 -51t43.5 -48.5t68 -20.5q24 0 53 12t50.5 42t21.5 66q0 30 -15 56t-44 45t-66 19q-51 0 -87.5 -35.5t-36.5 -84.5z"/>
    <glyph glyph-name="nine" unicode="9" horiz-adv-x="568" d="M143 0l158 234q-16 -6 -40 -6q-39 0 -79.5 16t-74.5 47t-54.5 75.5t-20.5 96.5q0 50 19.5 95t54.5 79t81.5 53t96.5 19q52 0 99 -19t81 -53t53 -78.5t19 -93.5q0 -42 -19 -91.5t-89 -152.5l-146 -221h-139zM284 334q45 0 76.5 22.5t43 53t11.5 55.5q0 39 -22.5 71.5 t-53 45.5t-55.5 13t-55 -13t-52.5 -45.5t-22.5 -71.5q0 -25 13 -55.5t46 -53t71 -22.5z"/>
    <glyph glyph-name="colon" unicode=":" horiz-adv-x="212" d="M106 319q-28 0 -48.5 20.5t-20.5 48.5t20.5 48.5t48.5 20.5t49 -20.5t21 -48.5t-21 -48.5t-49 -20.5zM106 49q-28 0 -48.5 20.5t-20.5 48.5t20.5 48t48.5 20t49 -20t21 -48t-21 -48.5t-49 -20.5z"/>
    <glyph glyph-name="semicolon" unicode=";" horiz-adv-x="244" d="M124 318q-28 0 -49 20t-21 49t21 49t49 20t48.5 -20.5t20.5 -48.5t-20.5 -48.5t-48.5 -20.5zM62 111h129l-126 -239h-92z"/>
    <glyph glyph-name="less" unicode="&lt;" horiz-adv-x="445" d="M40 313v86l355 208v-124l-223 -127l223 -127v-123z"/>
    <glyph glyph-name="equal" unicode="=" horiz-adv-x="498" d="M44 398v105h409v-105h-409zM44 201v105h409v-105h-409z"/>
    <glyph glyph-name="greater" unicode="&gt;" horiz-adv-x="444" d="M50 106v123l223 127l-223 127v124l355 -208v-86z"/>
    <glyph glyph-name="question" unicode="?" horiz-adv-x="421" d="M226 166q-67 0 -108.5 38t-41.5 99q0 83 99 146q52 33 67 47.5t18.5 29.5t3.5 21q0 15 -11.5 28.5t-27 18t-31.5 4.5q-78 0 -149 -69v130q31 24 71.5 37.5t82.5 13.5q58 0 99 -20t65 -55t24 -78q0 -64 -29 -103t-102 -83q-31 -18 -46.5 -33t-15.5 -34q0 -39 48 -39 q44 0 74 19v-100q-39 -18 -90 -18zM137 51q0 28 20 47.5t48 19.5t48 -19.5t20 -47.5t-20 -47.5t-48 -19.5t-48 19.5t-20 47.5z"/>
    <glyph glyph-name="at" unicode="@" horiz-adv-x="803" d="M35 292q0 73 28.5 140t79.5 117.5t118.5 79t140.5 28.5t140.5 -27t118.5 -75t79.5 -112.5t28.5 -134.5q0 -103 -46 -160t-125 -57q-42 0 -73 20t-42 54q-7 -10 -20.5 -20.5t-34 -17t-42.5 -6.5q-68 0 -114.5 49t-46.5 120t46.5 120t114.5 49q58 0 87 -39v32h94v-226 q0 -22 9 -36t29 -14q32 0 50 32t18 100q0 52 -21 99.5t-58.5 83t-87.5 55.5t-104 20t-104 -21.5t-87.5 -59.5t-58.5 -88t-21 -105q0 -54 21.5 -104.5t59 -88t87 -59t103.5 -21.5q29 0 61.5 8.5t57.5 22.5l40 -83q-34 -18 -77 -28.5t-82 -10.5q-74 0 -141.5 28.5t-118 79 t-79 117t-28.5 139.5zM322 290q0 -33 22.5 -56t54.5 -23q33 0 55.5 23t22.5 56q0 34 -22.5 57t-55.5 23t-55 -23t-22 -57z"/>
    <glyph glyph-name="A" unicode="A" horiz-adv-x="734" d="M23 0l291 697h106l291 -697h-132l-57 139h-310l-57 -139h-132zM251 242h232l-116 284z"/>
    <glyph glyph-name="B" unicode="B" horiz-adv-x="614" d="M77 0v697h252q82 0 138.5 -51t56.5 -127q0 -49 -24 -87t-65 -53q25 -5 50 -16.5t47 -35t32.5 -57t10.5 -64.5q0 -43 -16 -81t-44.5 -66t-68 -43.5t-83.5 -15.5h-286zM202 416h110q39 0 64.5 24.5t25.5 61.5q0 34 -25.5 58t-63.5 24h-111v-168zM202 113h140q22 0 47.5 9.5 t43.5 34.5t18 56q0 30 -18 54.5t-44 34t-48 9.5h-139v-198z"/>
    <glyph glyph-name="C" unicode="C" horiz-adv-x="712" d="M40 348q0 75 28.5 142t79.5 116t119 76t143 27q80 0 152.5 -33.5t123.5 -91.5l-85 -73q-35 40 -85 62.5t-106 22.5q-51 0 -96.5 -18.5t-79 -52.5t-52 -79.5t-18.5 -97.5t18.5 -97.5t52 -79t79 -52t96.5 -18.5q56 0 107 23t86 64l84 -73q-51 -60 -123 -93.5t-154 -33.5 q-75 0 -143 27t-119 75.5t-79.5 115.5t-28.5 142z"/>
    <glyph glyph-name="D" unicode="D" horiz-adv-x="733" d="M77 0v697h249q86 0 155 -25.5t116 -72.5t71 -112t24 -140q0 -76 -24 -140t-70.5 -110.5t-115.5 -71.5t-155 -25h-250zM202 113h116q82 0 136.5 26.5t83.5 78t29 129.5q0 80 -29.5 132t-83.5 78.5t-137 26.5h-115v-471z"/>
    <glyph glyph-name="E" unicode="E" horiz-adv-x="578" d="M77 0v697h444v-113h-319v-166h299v-113h-299v-192h326v-113h-451z"/>
    <glyph glyph-name="F" unicode="F" horiz-adv-x="542" d="M77 0v697h422v-113h-297v-175h271v-113h-271v-296h-125z"/>
    <glyph glyph-name="G" unicode="G" horiz-adv-x="746" d="M40 348q0 75 28.5 142t79.5 116t119 76t143 27t142 -27.5t117 -77.5l-83 -76q-33 32 -79 50t-97 18q-38 0 -79.5 -12.5t-83 -47t-62.5 -86t-21 -102.5q0 -52 18.5 -97.5t52 -79t79 -52t96.5 -18.5q48 0 91.5 16t75.5 44v128h-194v111h312v-281q-49 -61 -124 -96t-161 -35 q-75 0 -143 27t-119 75.5t-79.5 115.5t-28.5 142z"/>
    <glyph glyph-name="H" unicode="H" horiz-adv-x="739" d="M77 0v697h125v-272h335v272h124v-697h-124v312h-335v-312h-125z"/>
    <glyph glyph-name="I" unicode="I" horiz-adv-x="288" d="M81 0v697h125v-697h-125z"/>
    <glyph glyph-name="J" unicode="J" horiz-adv-x="343" d="M11 -4v113q24 -8 57 -8q39 0 60.5 23.5t21.5 89.5v483h125v-477q0 -65 -9.5 -106t-33 -70.5t-63.5 -42.5t-87 -13q-39 0 -71 8z"/>
    <glyph glyph-name="K" unicode="K" horiz-adv-x="668" d="M77 0v697h125v-334l295 334h148l-271 -307l279 -390h-146l-217 301l-88 -97v-204h-125z"/>
    <glyph glyph-name="L" unicode="L" horiz-adv-x="511" d="M77 0v697h125v-584h277v-113h-402z"/>
    <glyph glyph-name="M" unicode="M" horiz-adv-x="867" d="M77 0v697h107l250 -391l249 391h106v-697h-118v472l-237 -368l-239 367v-471h-118z"/>
    <glyph glyph-name="N" unicode="N" horiz-adv-x="754" d="M77 0v697h110l369 -484v484h121v-697h-102l-377 493v-493h-121z"/>
    <glyph glyph-name="O" unicode="O" horiz-adv-x="816" d="M40 347q0 74 28.5 141t79 116.5t118.5 77t142 27.5q75 0 142.5 -27.5t118.5 -77t79.5 -116.5t28.5 -141t-28.5 -141t-79.5 -116t-118.5 -76.5t-142.5 -27.5q-74 0 -142 27.5t-118.5 76.5t-79 116t-28.5 141zM163 347q0 -51 18.5 -97t52 -79.5t78.5 -52.5t96 -19 q50 0 95.5 19t79 53t52 79.5t18.5 96.5t-18.5 96.5t-52 80t-79 53.5t-95.5 19t-95.5 -19t-79 -53t-52 -80t-18.5 -97z"/>
    <glyph glyph-name="P" unicode="P" horiz-adv-x="605" d="M77 0v697h266q41 0 82 -16t73.5 -45.5t52 -72.5t19.5 -93q0 -48 -18.5 -90t-51 -72.5t-73.5 -47t-84 -16.5h-141v-244h-125zM202 357h135q41 0 75 30t34 83q0 54 -33.5 84t-75.5 30h-135v-227z"/>
    <glyph glyph-name="Q" unicode="Q" horiz-adv-x="816" d="M40 348q0 74 28.5 141t79.5 116t119 76.5t142 27.5t142 -27.5t118.5 -76.5t79 -116t28.5 -141q0 -68 -25 -129.5t-68 -107.5l68 -82l-84 -70l-70 83q-39 -26 -88 -39.5t-101 -13.5q-74 0 -142 27t-119 76t-79.5 115.5t-28.5 140.5zM163 348q0 -51 18.5 -96.5t52.5 -79 t79 -52t96 -18.5q61 0 111 28l-98 116l84 71l99 -117q22 28 35 67t13 81q0 37 -12.5 79t-46.5 84t-84.5 63.5t-100.5 21.5t-95.5 -19t-79.5 -53t-52.5 -79.5t-18.5 -96.5z"/>
    <glyph glyph-name="R" unicode="R" horiz-adv-x="636" d="M77 0v697h271q57 0 111.5 -28.5t84.5 -82t30 -110.5q0 -49 -20.5 -93t-50.5 -69t-56 -36l169 -278h-141l-149 248h-2h-122v-248h-125zM202 360h133q51 0 83 32t32 82q0 22 -10 48t-36 44t-59 18h-143v-224z"/>
    <glyph glyph-name="S" unicode="S" horiz-adv-x="568" d="M21 147l94 59q25 -48 70 -77t105 -29q34 0 62 10.5t42 34t14 46.5q0 33 -24.5 58.5t-117.5 60.5q-73 28 -114 54t-63.5 64.5t-22.5 92.5q0 31 11.5 63.5t38 60t69 46t97.5 18.5q74 0 128 -31t87 -82l-89 -61q-40 62 -124 62q-19 0 -41.5 -7t-38 -25.5t-15.5 -41.5 q0 -17 6.5 -32.5t25.5 -28.5t67 -32t59 -24q61 -25 100.5 -51.5t62.5 -64t23 -96.5q0 -44 -15.5 -82t-46 -65.5t-77 -43t-105.5 -15.5q-97 0 -166 42.5t-102 116.5z"/>
    <glyph glyph-name="T" unicode="T" horiz-adv-x="543" d="M209 0v584h-189v113h503v-113h-189v-584h-125z"/>
    <glyph glyph-name="U" unicode="U" horiz-adv-x="708" d="M71 267v430h125v-417q0 -45 14 -87t51.5 -66.5t92.5 -24.5q73 0 115 44t42 134v417h125v-430q0 -67 -21.5 -120t-60 -88t-90 -52.5t-110.5 -17.5t-111 17.5t-90.5 52.5t-60 88t-21.5 120z"/>
    <glyph glyph-name="V" unicode="V" horiz-adv-x="726" d="M311 0l-288 697h132l208 -513l208 513h132l-288 -697h-104z"/>
    <glyph glyph-name="W" unicode="W" horiz-adv-x="948" d="M228 0l-208 697h122l141 -468l144 468h94l144 -468l142 468h121l-208 -697h-99l-147 468l-148 -468h-98z"/>
    <glyph glyph-name="X" unicode="X" horiz-adv-x="669" d="M26 0l231 359l-219 338h139l158 -246l157 246h137l-218 -339l233 -358h-138l-173 267l-173 -267h-134z"/>
    <glyph glyph-name="Y" unicode="Y" horiz-adv-x="662" d="M269 0v270l-251 427h135l179 -307l178 307h134l-251 -427v-270h-124z"/>
    <glyph glyph-name="Z" unicode="Z" horiz-adv-x="642" d="M39 0v82l393 502h-352v113h516v-91l-387 -493h394v-113h-564z"/>
    <glyph glyph-name="bracketleft" unicode="[" horiz-adv-x="349" d="M190 -110h157v-107h-275v914h275v-107h-157v-700z"/>
    <glyph glyph-name="backslash" unicode="\" horiz-adv-x="441" d="M339 -136l-322 859h108l322 -859h-108z"/>
    <glyph glyph-name="bracketright" unicode="]" horiz-adv-x="349" d="M2 -110h157v700h-157v107h274v-914h-274v107z"/>
    <glyph glyph-name="asciicircum" unicode="^" horiz-adv-x="527" d="M16 350l203 347h89l203 -347h-119l-129 227l-129 -227h-118z"/>
    <glyph glyph-name="underscore" unicode="_" horiz-adv-x="372" d="M-1 -85h374v-97h-374v97z"/>
    <glyph glyph-name="grave" unicode="`" horiz-adv-x="526" d="M237 552l-97 145h137l51 -145h-91z"/>
    <glyph glyph-name="a" unicode="a" horiz-adv-x="615" d="M31 252q0 54 19 102.5t53.5 84.5t81 56t98.5 20q61 0 104.5 -24t56.5 -60v73h120v-504h-120v73q-13 -36 -56.5 -60t-104.5 -24q-52 0 -98.5 20t-81 56t-53.5 84.5t-19 102.5zM150 252q0 -24 7.5 -50t25.5 -49t47.5 -39t68.5 -16q23 0 49.5 8t49.5 26.5t39 49t16 70.5 q0 24 -8 50t-26.5 49t-49 39t-70.5 16q-23 0 -48 -8t-47.5 -26.5t-38 -49t-15.5 -70.5z"/>
    <glyph glyph-name="b" unicode="b" horiz-adv-x="616" d="M53 0v697h120v-266q13 36 56.5 60t104.5 24q52 0 98.5 -20t81 -56t53.5 -84.5t19 -102.5t-19 -102.5t-53.5 -84.5t-81 -56t-98.5 -20q-61 0 -104.5 24t-56.5 60v-73h-120zM164 252q0 -24 8 -50t26.5 -49t49 -39t70.5 -16q23 0 48 8t47.5 26.5t38 49t15.5 70.5 q0 24 -7.5 50t-25.5 49t-47.5 39t-68.5 16q-23 0 -49.5 -8t-49.5 -26.5t-39 -49t-16 -70.5z"/>
    <glyph glyph-name="c" unicode="c" horiz-adv-x="527" d="M31 253q0 56 21 105.5t59 85.5t88.5 56t105.5 20q121 0 202 -87l-74 -77q-53 55 -128 55q-40 0 -77.5 -20t-57.5 -58t-20 -80t20 -80t57.5 -58t77.5 -20q75 0 128 55l74 -77q-81 -87 -202 -87q-55 0 -105.5 20t-88.5 56t-59 85.5t-21 105.5z"/>
    <glyph glyph-name="d" unicode="d" horiz-adv-x="616" d="M31 252q0 54 19 102.5t53.5 84.5t81 56t98.5 20q61 0 104.5 -24t56.5 -60v266h120v-697h-120v73q-13 -36 -56.5 -60t-104.5 -24q-52 0 -98.5 20t-81 56t-53.5 84.5t-19 102.5zM150 252q0 -24 7.5 -50t25.5 -49t47.5 -39t68.5 -16q23 0 49.5 8t49.5 26.5t39 49t16 70.5 q0 24 -8 50t-26.5 49t-49 39t-70.5 16q-23 0 -48 -8t-47.5 -26.5t-38 -49t-15.5 -70.5z"/>
    <glyph glyph-name="e" unicode="e" horiz-adv-x="571" d="M31 248v4q0 59 20 108.5t55.5 84.5t84.5 54t104 19q54 0 100.5 -19.5t79.5 -54.5t51 -81.5t18 -98.5l-2 -42h-392q3 -60 44.5 -96t107.5 -36q33 0 66 10.5t70 47.5l72 -70q-85 -90 -212 -90q-58 0 -107.5 18.5t-85 52.5t-55 82.5t-19.5 106.5zM153 306h269 q0 45 -37.5 77.5t-89.5 32.5q-26 0 -58 -11t-56.5 -38.5t-27.5 -60.5z"/>
    <glyph glyph-name="f" unicode="f" horiz-adv-x="351" d="M109 0v395h-82v109h82v25q0 43 10 81.5t45 67.5q19 16 47.5 24.5t77.5 8.5q30 0 52 -4v-103q-14 5 -46 5q-34 0 -50 -16.5t-16 -54.5v-34h95v-109h-95v-395h-120z"/>
    <glyph glyph-name="g" unicode="g" horiz-adv-x="615" d="M150 254q0 -40 19 -76.5t55 -56t75 -19.5q65 0 109.5 43.5t44.5 108.5q0 64 -44.5 108t-109.5 44q-63 0 -106 -44t-43 -108zM31 254q0 53 19 101.5t53.5 84t81 55.5t98.5 20q61 0 104.5 -24t56.5 -60v73h120v-420q0 -65 -8.5 -113t-28.5 -80.5t-48 -54.5q-34 -26 -81 -41 t-97 -15q-141 0 -244 73l58 89q83 -55 173 -55q30 0 60 7.5t51 22.5q48 35 48 128v25q-17 -31 -61 -52.5t-103 -21.5q-52 0 -98.5 19.5t-81 54.5t-53.5 83t-19 101z"/>
    <glyph glyph-name="h" unicode="h" horiz-adv-x="554" d="M53 0v697h119v-263q17 36 56.5 58t90.5 22q87 0 135.5 -54.5t48.5 -147.5v-312h-119v295q0 37 -15.5 64.5t-39.5 37.5t-46 10q-23 0 -49 -11t-44 -40t-18 -66v-290h-119z"/>
    <glyph glyph-name="i" unicode="i" horiz-adv-x="226" d="M113 563q-29 0 -50.5 21t-21.5 50t21.5 50t50.5 21q28 0 49.5 -21t21.5 -50t-21.5 -50t-49.5 -21zM53 0v504h120v-504h-120z"/>
    <glyph glyph-name="j" unicode="j" horiz-adv-x="223" d="M112 562q-29 0 -50.5 21t-21.5 50t21.5 50t50.5 21q28 0 49.5 -21t21.5 -50t-21.5 -50t-49.5 -21zM52 -32v536h120v-547q0 -170 -167 -170q-33 0 -50 3v106l33 -2q33 0 48.5 17t15.5 57z"/>
    <glyph glyph-name="k" unicode="k" horiz-adv-x="516" d="M53 0v697h119v-407l186 214h138l-197 -225l218 -279h-136l-159 203l-50 -56v-147h-119z"/>
    <glyph glyph-name="l" unicode="l" horiz-adv-x="226" d="M53 0v697h120v-697h-120z"/>
    <glyph glyph-name="m" unicode="m" horiz-adv-x="837" d="M53 0v504h119v-72q16 37 52.5 59.5t83.5 22.5q51 0 87 -23t54 -65q11 22 32 43t56.5 33t76.5 12q82 0 128.5 -54.5t46.5 -147.5v-312h-120v295q0 51 -24 81.5t-66 30.5q-20 0 -43.5 -11t-40 -40t-16.5 -66v-290h-119v295q0 51 -24 81.5t-66 30.5q-19 0 -42.5 -11 t-39.5 -40t-16 -66v-290h-119z"/>
    <glyph glyph-name="n" unicode="n" horiz-adv-x="564" d="M53 0v504h119v-72q17 36 58.5 59t94.5 23q90 0 140.5 -54.5t50.5 -147.5v-312h-120v295q0 51 -28.5 81.5t-78.5 30.5q-24 0 -51.5 -11t-46.5 -40t-19 -66v-290h-119z"/>
    <glyph glyph-name="o" unicode="o" horiz-adv-x="612" d="M31 252q0 55 21 104t59 85.5t88.5 57t106.5 20.5q26 0 60.5 -6.5t70 -25t68.5 -50.5t54.5 -81t21.5 -104q0 -26 -7 -60t-26 -68.5t-52.5 -66t-84 -52t-105.5 -20.5q-56 0 -106.5 20.5t-88.5 57t-59 85.5t-21 104zM150 252q0 -67 45 -112.5t111 -45.5q24 0 50 8t49.5 27.5 t40 50.5t16.5 72q0 32 -15 68.5t-53.5 63t-87.5 26.5q-66 0 -111 -45.5t-45 -112.5z"/>
    <glyph glyph-name="p" unicode="p" horiz-adv-x="616" d="M53 -193v697h120v-73q13 36 56.5 60t104.5 24q52 0 98.5 -20t81 -56t53.5 -84.5t19 -102.5t-19 -102.5t-53.5 -84.5t-81 -56t-98.5 -20q-61 0 -104.5 24t-56.5 60v-266h-120zM164 252q0 -24 8 -50t26.5 -49t49 -39t70.5 -16q23 0 48 8t47.5 26.5t38 49t15.5 70.5 q0 24 -7.5 50t-25.5 49t-47.5 39t-68.5 16q-23 0 -49.5 -8t-49.5 -26.5t-39 -49t-16 -70.5z"/>
    <glyph glyph-name="q" unicode="q" horiz-adv-x="613" d="M31 252q0 54 19 102.5t53.5 84.5t81 56t98.5 20q61 0 104.5 -24t56.5 -60v73h120v-697h-120v266q-13 -36 -56.5 -60t-104.5 -24q-52 0 -98.5 20t-81 56t-53.5 84.5t-19 102.5zM150 252q0 -24 7.5 -50t25.5 -49t47.5 -39t68.5 -16q23 0 49.5 8t49.5 26.5t39 49t16 70.5 q0 24 -8 50t-26.5 49t-49 39t-70.5 16q-23 0 -48 -8t-47.5 -26.5t-38 -49t-15.5 -70.5z"/>
    <glyph glyph-name="r" unicode="r" horiz-adv-x="390" d="M53 0v504h119v-75q18 39 58 62t92 23q21 0 36 -3v-116q-23 5 -50 5q-62 0 -99 -36.5t-37 -98.5v-265h-119z"/>
    <glyph glyph-name="s" unicode="s" horiz-adv-x="450" d="M14 89l77 65q17 -27 52 -45t81 -18q23 0 45 6t33.5 19.5t11.5 29.5q0 18 -16.5 31.5t-64 29.5t-57.5 19q-44 16 -72.5 37.5t-40 48.5t-11.5 56q0 44 21.5 77t61.5 53.5t95 20.5t96 -20t67 -54l-67 -71q-33 42 -98 42q-28 0 -44.5 -12.5t-16.5 -32.5q0 -13 10 -25 t57.5 -28.5t59.5 -20.5q69 -25 102 -61t33 -89q0 -51 -26 -86.5t-71.5 -54.5t-109.5 -19q-75 0 -129.5 28t-78.5 74z"/>
    <glyph glyph-name="t" unicode="t" horiz-adv-x="336" d="M87 0v395h-65v109h65v193h120v-193h109v-109h-109v-395h-120z"/>
    <glyph glyph-name="u" unicode="u" horiz-adv-x="556" d="M47 200v304h121v-294q0 -56 30.5 -84.5t79.5 -28.5t79.5 28.5t30.5 85.5v293h121v-301q0 -39 -12 -78t-41 -69.5t-74 -49.5t-105 -19q-72 0 -123.5 27.5t-79 74t-27.5 111.5z"/>
    <glyph glyph-name="v" unicode="v" horiz-adv-x="547" d="M223 0l-216 504h124l143 -342l142 342h124l-216 -504h-101z"/>
    <glyph glyph-name="w" unicode="w" horiz-adv-x="748" d="M176 0l-168 504h113l105 -314l102 314h91l102 -314l105 314h114l-169 -504h-93l-104 319l-104 -319h-94z"/>
    <glyph glyph-name="x" unicode="x" horiz-adv-x="538" d="M12 0l191 266l-174 238h130l110 -151l109 151h131l-174 -237l191 -267h-129l-128 178l-128 -178h-129z"/>
    <glyph glyph-name="y" unicode="y" horiz-adv-x="565" d="M216 -7l-207 511h123l147 -368l151 368h123l-296 -698h-122z"/>
    <glyph glyph-name="z" unicode="z" horiz-adv-x="520" d="M21 0v74l287 323h-257v107h424v-83l-276 -314h288v-107h-466z"/>
    <glyph glyph-name="braceleft" unicode="{" horiz-adv-x="348" d="M110 -56v188q0 60 -40 81q-22 12 -45 13v62q23 1 45 12q40 21 40 81v188q0 26 11.5 56t41 51t67.5 21h80v-96h-36q-13 0 -26 -6.5t-19.5 -21t-6.5 -31.5v-153q0 -73 -40 -105q-21 -18 -48 -28q26 -8 48 -27q40 -32 40 -105v-153q0 -17 6.5 -31.5t19.5 -21t26 -6.5h36v-96 h-80q-38 0 -67.5 21t-41 51t-11.5 56z"/>
    <glyph glyph-name="bar" unicode="|" horiz-adv-x="268" d="M76 -26v749h115v-749h-115z"/>
    <glyph glyph-name="braceright" unicode="}" horiz-adv-x="348" d="M38 -88h36q13 0 26 6.5t19.5 21t6.5 31.5v153q0 73 40 105q22 19 47 27q-26 10 -47 28q-40 32 -40 105v153q0 17 -6.5 31.5t-19.5 21t-26 6.5h-36v96h80q38 0 67.5 -21t41 -51t11.5 -56v-188q0 -60 40 -81q22 -11 45 -12v-62q-23 -1 -45 -13q-40 -21 -40 -81v-188 q0 -26 -11.5 -56t-41 -51t-67.5 -21h-80v96z"/>
    <glyph glyph-name="asciitilde" unicode="~" horiz-adv-x="448" d="M26 296q6 40 25 70t45.5 41.5t49.5 11.5q36 0 78.5 -18t56.5 -20.5t21 -2.5q38 0 51 41l69 -8q-8 -61 -38 -95.5t-84 -34.5q-22 0 -41.5 5t-56.5 20.5t-59 15.5q-39 0 -47 -35z"/>
    <glyph glyph-name="exclamdown" unicode="¡" horiz-adv-x="270" d="M135 375q-28 0 -48.5 20t-20.5 48t20.5 48.5t48.5 20.5t48.5 -20.5t20.5 -48.5t-20.5 -48t-48.5 -20zM62 -198l21 521h103l21 -521h-145z"/>
    <glyph glyph-name="cent" unicode="¢" horiz-adv-x="535" d="M190 0l21 101q-80 28 -129.5 95.5t-49.5 155.5q0 30 8 67t30 72t56.5 64t83.5 46.5t96 17.5h9l15 78h76l-18 -90q69 -19 121 -72l-73 -74q-27 29 -69 41l-63 -309l14 -2q70 4 118 52l73 -75q-22 -22 -55 -42.5t-72.5 -30.5t-75.5 -10l-22 2l-18 -87h-76zM234 208l61 303 h-1q-64 -4 -105.5 -49t-41.5 -110q0 -48 24 -86.5t63 -57.5z"/>
    <glyph glyph-name="sterling" unicode="£" horiz-adv-x="593" d="M34 0v92h9q59 0 95.5 17t53.5 46t17 66q0 26 -21 68h-109v90h59q-42 75 -42 126q0 52 29 102t82 77.5t108 27.5q43 0 82.5 -16.5t69 -45.5t46 -68t16.5 -81h-110q0 28 -17.5 53t-41.5 35t-44 10q-30 0 -55 -17.5t-35 -41.5t-10 -43q0 -42 49 -118h160v-90h-112 q17 -37 17 -68t-11.5 -64.5t-38.5 -51.5h279v-105h-525z"/>
    <glyph glyph-name="currency" unicode="¤" horiz-adv-x="658" d="M330 108q-33 0 -68 10t-61 26l-75 -85l-74 73l83 74q-42 56 -42 127t42 129l-83 73l74 74l75 -86q26 16 61 26t68 10t67.5 -10t60.5 -26l76 86l74 -74l-83 -73q18 -26 30 -59.5t12 -69.5q0 -35 -12 -68.5t-30 -58.5l83 -74l-74 -73l-76 85q-26 -16 -60.5 -26t-67.5 -10z M330 198q55 0 94 40t39 95q0 56 -39 96t-94 40t-94 -40t-39 -96q0 -55 39 -95t94 -40z"/>
    <glyph glyph-name="yen" unicode="¥" horiz-adv-x="664" d="M62 335v103h108l-152 259h135l179 -307l179 307h135l-153 -259h109v-103h-169l-38 -65h207v-103h-207v-167h-126v167h-207v103h207l-38 65h-169z"/>
    <glyph glyph-name="brokenbar" unicode="¦" horiz-adv-x="268" d="M76 415v282h115v-282h-115zM76 0v294h115v-294h-115z"/>
    <glyph glyph-name="section" unicode="§" horiz-adv-x="541" d="M505 220q0 -47 -21.5 -82.5t-56.5 -56.5q43 -43 43 -109q0 -30 -11 -61t-36 -57.5t-64.5 -44t-89.5 -17.5q-35 0 -71.5 10t-65.5 34.5t-47.5 63t-18.5 90.5h118q5 -94 84 -94q23 0 43.5 10.5t29 28t8.5 34.5q0 22 -12 40.5t-60 46.5q-20 12 -70.5 37t-67.5 36 q-110 59 -110 155q0 24 8 51t27 49.5t44 38.5q-43 43 -43 109q0 29 10.5 60.5t39 61t70 44t81.5 14.5q60 0 104.5 -23.5t71.5 -68t27 -106.5h-118q-5 94 -84 94q-33 0 -57.5 -19t-24.5 -54q0 -23 12.5 -42.5t60.5 -45.5q18 -11 69 -36t69 -36q109 -62 109 -155zM341 148 q46 16 46 62q0 18 -11.5 34.5t-30 29.5t-37 23.5t-44.5 25t-36 19.5l-37 21q-46 -17 -46 -62q0 -18 11.5 -34.5t30 -29.5t37 -23.5t44.5 -25t36 -19.5z"/>
    <glyph glyph-name="dieresis" unicode="¨" horiz-adv-x="567" d="M387 567q-25 0 -44.5 18.5t-19.5 43.5t19.5 43.5t44.5 18.5t44.5 -18.5t19.5 -43.5t-19.5 -43.5t-44.5 -18.5zM179 567q-25 0 -44 18t-19 44t19 44t44 18q26 0 45 -18t19 -44t-19 -44t-45 -18z"/>
    <glyph glyph-name="copyright" unicode="©" horiz-adv-x="810" d="M37 348q0 100 51.5 186t136.5 133t180 47q72 0 139 -28t118.5 -78t81 -117.5t29.5 -142.5q0 -71 -28 -138t-78.5 -118.5t-118.5 -80.5t-143 -29q-71 0 -138.5 28t-119 78t-81 117.5t-29.5 142.5zM116 348q0 -58 22.5 -111t62.5 -93t93 -62.5t111 -22.5t111 22.5 t92.5 62.5t62 93t22.5 111t-22.5 111t-62 92.5t-92.5 62t-111 22.5t-111 -22.5t-93 -62t-62.5 -92.5t-22.5 -111zM207 351q0 31 10.5 64.5t36 63t65.5 50t92 20.5q90 0 155 -69l-66 -66q-39 37 -89 37q-19 0 -42.5 -9.5t-40.5 -34.5t-17 -56q0 -20 9.5 -44t35 -41t55.5 -17 q28 0 50.5 10.5t38.5 27.5l66 -67q-64 -68 -155 -68q-41 0 -74 13t-59.5 34t-48.5 60.5t-22 91.5z"/>
    <glyph glyph-name="ordfeminine" unicode="ª" horiz-adv-x="459" d="M383 392q6 -4 23 -4v-62q-19 -10 -41 -10q-32 0 -46 13q-8 8 -17 27q-13 -16 -42.5 -29.5t-79.5 -13.5q-28 0 -60 10t-53.5 37t-21.5 64q0 109 159 121q43 3 60.5 11t17.5 29q0 16 -14 27.5t-45 11.5q-59 0 -100 -49l-59 50q27 38 68 58.5t90 20.5q71 0 111.5 -32.5 t40.5 -87.5v-170q0 -16 9 -22zM281 460v35q-14 -11 -76 -16q-67 -5 -67 -45q0 -18 15 -28.5t41 -10.5q40 0 63.5 17t23.5 48z"/>
    <glyph glyph-name="guillemotleft" unicode="«" horiz-adv-x="508" d="M155 253l118 -182h-124l-116 182l116 182h124zM358 253l118 -182h-124l-116 182l116 182h124z"/>
    <glyph glyph-name="logicalnot" unicode="¬" horiz-adv-x="607" d="M44 385v105h518v-294h-116v189h-402z"/>
    <glyph glyph-name="registered" unicode="®" horiz-adv-x="406" d="M203 375q-44 0 -85.5 22t-64.5 62.5t-23 84.5q0 26 9 54t30.5 53.5t55.5 43t78 17.5q26 0 55 -8.5t55 -29t45 -54t19 -76.5q0 -26 -9 -54.5t-34 -57t-61 -43t-70 -14.5zM203 423q37 0 67.5 20t42.5 48.5t12 52.5q0 38 -20.5 68t-49 41.5t-52.5 11.5t-53 -11.5 t-49.5 -41.5t-20.5 -68q0 -24 12 -52.5t43 -48.5t68 -20zM142 463v167h68q24 0 40.5 -16t16.5 -39q0 -15 -7 -28t-19 -20l39 -64h-49l-32 55h-15v-55h-42zM184 551h23q8 0 14 6.5t6 15.5q0 8 -5.5 14t-13.5 6h-24v-42z"/>
    <glyph glyph-name="macron" unicode="¯" horiz-adv-x="575" d="M133 599v85h308v-85h-308z"/>
    <glyph glyph-name="degree" unicode="°" horiz-adv-x="395" d="M198 398q-40 0 -77.5 20t-58 57t-20.5 75t20.5 74.5t58 56.5t77.5 20q31 0 66.5 -15t62 -52.5t26.5 -83.5q0 -23 -8 -48.5t-27.5 -48t-50 -39t-69.5 -16.5zM198 484q25 0 43.5 19.5t18.5 46.5q0 26 -18.5 45t-43.5 19q-26 0 -44.5 -19t-18.5 -45q0 -27 18.5 -46.5 t44.5 -19.5z"/>
    <glyph glyph-name="plusminus" unicode="±" horiz-adv-x="473" d="M178 192v143h-134v105h134v145h117v-145h134v-105h-134v-143h-117zM44 0v105h385v-105h-385z"/>
    <glyph glyph-name="uni00B2" unicode="²" horiz-adv-x="331" d="M32 328v61l158 152q22 22 22 43q0 18 -12.5 31.5t-30.5 13.5t-31.5 -16t-13.5 -38h-80q0 25 12.5 55t44 52t68.5 22q24 0 53 -11.5t50 -41t21 -64.5q0 -22 -8.5 -42.5t-29.5 -42.5l-96 -94h144v-80h-271z"/>
    <glyph glyph-name="uni00B3" unicode="³" horiz-adv-x="341" d="M156 321q-46 0 -84 22t-56 58l68 41q24 -41 71 -41q28 0 47 14.5t19 38.5q0 23 -19 38.5t-49 15.5q-33 0 -52 -10l-24 41l97 79h-124v79h237v-57l-87 -72q14 0 25 -4q37 -11 59.5 -42t22.5 -69q0 -56 -42 -94t-109 -38z"/>
    <glyph glyph-name="acute" unicode="´" horiz-adv-x="526" d="M198 552l51 145h136l-97 -145h-90z"/>
    <glyph glyph-name="uni00B5" unicode="µ" horiz-adv-x="555" d="M164 48v-265h-115v721h115v-291q0 -57 31.5 -89t84.5 -32q52 0 82.5 31.5t30.5 88.5v292h115v-301q0 -102 -56 -158.5t-150 -56.5q-41 0 -77 15.5t-61 44.5z"/>
    <glyph glyph-name="paragraph" unicode="¶" horiz-adv-x="646" d="M244 0v237q-45 2 -86 20.5t-71.5 50t-47.5 72.5t-17 86q0 46 18 88.5t50 74.5t75 50t90 18h380v-113h-68v-584h-122v584h-77v-584h-124z"/>
    <glyph glyph-name="periodcentered" unicode="·" horiz-adv-x="204" d="M102 183q-28 0 -49 20.5t-21 49.5q0 28 21 48t49 20t48.5 -20t20.5 -48q0 -29 -20.5 -49.5t-48.5 -20.5z"/>
    <glyph glyph-name="cedilla" unicode="¸" horiz-adv-x="521" d="M208 -76l32 76h72l-21 -46q27 0 46.5 -20.5t19.5 -52.5q0 -21 -10 -43t-38 -35t-66 -13q-22 0 -47.5 7.5t-38.5 17.5l26 53q26 -15 50 -15q17 0 28 9t11 24q0 16 -12 27t-52 11z"/>
    <glyph glyph-name="uni00B9" unicode="¹" horiz-adv-x="233" d="M89 328v290h-57v79h140v-369h-83z"/>
    <glyph glyph-name="ordmasculine" unicode="º" horiz-adv-x="463" d="M231 316q-40 0 -77.5 15t-65 42t-43.5 63t-16 75t18 79.5t52.5 68.5t68 38t63.5 10q40 0 73 -13.5t59.5 -34.5t48.5 -60t22 -88q0 -29 -10.5 -61.5t-39.5 -66t-71 -50.5t-82 -17zM231 415q18 0 40.5 9.5t39 34t16.5 52.5q0 18 -9.5 40t-34 39t-52.5 17q-18 0 -40.5 -10 t-39 -34t-16.5 -52q0 -18 9.5 -40.5t34 -39t52.5 -16.5z"/>
    <glyph glyph-name="guillemotright" unicode="»" horiz-adv-x="508" d="M235 71l118 182l-118 182h124l116 -182l-116 -182h-124zM32 71l118 182l-118 182h124l116 -182l-116 -182h-124z"/>
    <glyph glyph-name="onequarter" unicode="¼" horiz-adv-x="711" d="M62 0l430 697h110l-429 -697h-111zM101 328v290h-57v79h140v-369h-83zM376 67v60l121 243h85l-115 -228h109v72h81v-214h-81v67h-200z"/>
    <glyph glyph-name="onehalf" unicode="½" horiz-adv-x="721" d="M54 0l430 697h110l-429 -697h-111zM101 328v290h-57v79h140v-369h-83zM410 0v61l158 152q22 22 22 43q0 18 -12.5 31.5t-29.5 13.5q-18 0 -32 -16.5t-14 -37.5h-80q0 25 12.5 55t44 52t68.5 22q24 0 53 -11.5t50 -41t21 -64.5q0 -46 -37 -85l-96 -94h143v-80h-271z"/>
    <glyph glyph-name="threequarters" unicode="¾" horiz-adv-x="774" d="M129 0l430 697h111l-430 -697h-111zM440 67v60l121 243h85l-115 -228h109v72h81v-214h-81v67h-200zM161 321q-46 0 -83.5 22t-56.5 58l69 41q22 -41 71 -41q28 0 47 14.5t19 38.5q0 23 -19 38.5t-49 15.5q-33 0 -52 -10l-25 41l98 79h-125v79h238v-57l-87 -72q15 0 24 -4 q37 -11 60 -42t23 -69q0 -56 -42 -94t-110 -38z"/>
    <glyph glyph-name="questiondown" unicode="¿" horiz-adv-x="421" d="M214 378q-28 0 -48 19.5t-20 47.5t20 47.5t48 19.5t48 -19.5t20 -47.5t-20 -47.5t-48 -19.5zM193 330q67 0 108.5 -38t41.5 -99q0 -83 -99 -146q-52 -33 -67 -47.5t-18.5 -29.5t-3.5 -21q0 -15 11.5 -28.5t27 -18t31.5 -4.5q78 0 149 69v-130q-31 -24 -71.5 -37.5 t-82.5 -13.5q-58 0 -99 20t-65 55t-24 78q0 64 29 103t102 83q31 18 46.5 33t15.5 34q0 39 -48 39q-44 0 -74 -19v100q39 18 90 18z"/>
    <glyph glyph-name="Agrave" unicode="À" horiz-adv-x="734" d="M342 745l-97 145h137l51 -145h-91zM23 0l291 697h106l291 -697h-132l-57 139h-310l-57 -139h-132zM251 242h232l-116 284z"/>
    <glyph glyph-name="Aacute" unicode="Á" horiz-adv-x="734" d="M295 745l51 145h137l-98 -145h-90zM23 0l291 697h106l291 -697h-132l-57 139h-310l-57 -139h-132zM251 242h232l-116 284z"/>
    <glyph glyph-name="Acircumflex" unicode="Â" horiz-adv-x="734" d="M192 764l137 121h77l137 -121h-118l-58 58l-58 -58h-117zM23 0l291 697h106l291 -697h-132l-57 139h-310l-57 -139h-132zM251 242h232l-116 284z"/>
    <glyph glyph-name="Atilde" unicode="Ã" horiz-adv-x="734" d="M184 761q5 37 23.5 65t44 39t47.5 11q32 0 74 -20t62 -20q18 0 29 9.5t16 31.5l69 -9q-15 -121 -116 -121q-32 0 -74.5 20.5t-62.5 20.5q-35 0 -42 -35zM23 0l291 697h106l291 -697h-132l-57 139h-310l-57 -139h-132zM251 242h232l-116 284z"/>
    <glyph glyph-name="Adieresis" unicode="Ä" horiz-adv-x="734" d="M488 720q-25 0 -44 18t-19 44q0 25 19 43t44 18q26 0 44.5 -17.5t18.5 -43.5t-18.5 -44t-44.5 -18zM248 720q-25 0 -44.5 18.5t-19.5 43.5t19.5 43t44.5 18q26 0 45 -18t19 -43t-19.5 -43.5t-44.5 -18.5zM23 0l291 697h106l291 -697h-132l-57 139h-310l-57 -139h-132z M251 242h232l-116 284z"/>
    <glyph glyph-name="Aring" unicode="Å" horiz-adv-x="727" d="M23 0l279 661q-22 13 -36 36.5t-14 50.5q0 20 11.5 45.5t40 44t62.5 18.5q21 0 46.5 -11t44.5 -38t19 -59q0 -28 -14 -52t-37 -37l279 -659h-133l-58 139h-300l-58 -139h-132zM366 706q16 0 28 12.5t12 29.5q0 16 -12 28.5t-28 12.5q-17 0 -30 -12.5t-13 -28.5 q0 -17 13 -29.5t30 -12.5zM251 242h223l-111 270z"/>
    <glyph glyph-name="AE" unicode="Æ" horiz-adv-x="919" d="M-28 0l550 697h341v-113h-249v-166h230v-113h-230v-192h256v-113h-378v139h-266l-109 -139h-145zM307 242h185v239z"/>
    <glyph glyph-name="Ccedilla" unicode="Ç" horiz-adv-x="712" d="M40 348q0 75 28.5 142t79.5 116t119 76t143 27q80 0 152.5 -33.5t123.5 -91.5l-85 -73q-35 40 -85 62.5t-106 22.5q-51 0 -96.5 -18.5t-79 -52.5t-52 -79.5t-18.5 -97.5t18.5 -97.5t52 -79t79 -52t96.5 -18.5q56 0 107 23t86 64l84 -73q-51 -60 -123 -93.5t-154 -33.5h-2 l-15 -34q27 0 46.5 -20.5t19.5 -52.5q0 -21 -10 -43t-38 -35t-66 -13q-22 0 -47.5 7.5t-38.5 17.5l26 53q26 -15 50 -15q17 0 28 9t11 24q0 16 -12 27t-52 11l29 70q-63 11 -118 42t-95.5 78t-63 107t-22.5 127z"/>
    <glyph glyph-name="Egrave" unicode="È" horiz-adv-x="578" d="M276 745l-93 145h128l53 -145h-88zM77 0v697h444v-113h-319v-166h299v-113h-299v-192h326v-113h-451z"/>
    <glyph glyph-name="Eacute" unicode="É" horiz-adv-x="578" d="M245 745l51 145h137l-98 -145h-90zM77 0v697h444v-113h-319v-166h299v-113h-299v-192h326v-113h-451z"/>
    <glyph glyph-name="Ecircumflex" unicode="Ê" horiz-adv-x="578" d="M125 764l138 121h76l138 -121h-117l-59 58l-58 -58h-118zM77 0v697h444v-113h-319v-166h299v-113h-299v-192h326v-113h-451z"/>
    <glyph glyph-name="Edieresis" unicode="Ë" horiz-adv-x="578" d="M404 751q-25 0 -44 18t-19 43q0 26 19 44.5t44 18.5q26 0 45 -18.5t19 -44.5q0 -25 -19.5 -43t-44.5 -18zM197 751q-26 0 -45 18t-19 43q0 26 19 44.5t45 18.5q25 0 44 -18.5t19 -44.5q0 -25 -19 -43t-44 -18zM77 0v697h444v-113h-319v-166h299v-113h-299v-192h326v-113 h-451z"/>
    <glyph glyph-name="Igrave" unicode="Ì" horiz-adv-x="288" d="M108 745l-97 145h136l52 -145h-91zM81 0v697h125v-697h-125z"/>
    <glyph glyph-name="Iacute" unicode="Í" horiz-adv-x="288" d="M88 745l51 145h137l-97 -145h-91zM81 0v697h125v-697h-125z"/>
    <glyph glyph-name="Icircumflex" unicode="Î" horiz-adv-x="288" d="M81 0v697h125v-697h-125zM-32 764l138 121h76l137 -121h-117l-59 58l-58 -58h-117z"/>
    <glyph glyph-name="Idieresis" unicode="Ï" horiz-adv-x="288" d="M241 751q-25 0 -44 18t-19 43q0 26 19 44.5t44 18.5q26 0 45 -18.5t19 -44.5q0 -25 -19 -43t-45 -18zM46 751q-25 0 -44.5 18t-19.5 43q0 26 19.5 44.5t44.5 18.5q26 0 45 -18.5t19 -44.5q0 -25 -19.5 -43t-44.5 -18zM81 0v697h125v-697h-125z"/>
    <glyph glyph-name="Eth" unicode="Ð" horiz-adv-x="737" d="M77 0v298h-55v113h55v286h249q86 0 155 -25.5t116 -72.5t71 -112t24 -140q0 -76 -24 -140t-70.5 -110.5t-115.5 -71.5t-155 -25h-250zM202 113h116q82 0 136.5 26.5t83.5 78t29 129.5q0 80 -29.5 132t-83.5 78.5t-137 26.5h-115v-173h144v-113h-144v-185z"/>
    <glyph glyph-name="Ntilde" unicode="Ñ" horiz-adv-x="754" d="M194 761q5 37 23.5 65t43.5 39t47 11q19 0 36 -5t49.5 -20t50.5 -15t29 9.5t16 31.5l70 -9q-8 -57 -36.5 -89t-80.5 -32q-32 0 -74.5 20.5t-62.5 20.5q-34 0 -42 -35zM77 0v697h110l369 -484v484h121v-697h-102l-377 493v-493h-121z"/>
    <glyph glyph-name="Ograve" unicode="Ò" horiz-adv-x="816" d="M367 745l-96 145h136l52 -145h-92zM40 347q0 74 28.5 141t79 116.5t118.5 77t142 27.5q75 0 142.5 -27.5t118.5 -77t79.5 -116.5t28.5 -141t-28.5 -141t-79.5 -116t-118.5 -76.5t-142.5 -27.5q-74 0 -142 27.5t-118.5 76.5t-79 116t-28.5 141zM163 347q0 -51 18.5 -97 t52 -79.5t78.5 -52.5t96 -19q50 0 95.5 19t79 53t52 79.5t18.5 96.5t-18.5 96.5t-52 80t-79 53.5t-95.5 19t-95.5 -19t-79 -53t-52 -80t-18.5 -97z"/>
    <glyph glyph-name="Oacute" unicode="Ó" horiz-adv-x="816" d="M358 745l51 145h136l-97 -145h-90zM40 347q0 74 28.5 141t79 116.5t118.5 77t142 27.5q75 0 142.5 -27.5t118.5 -77t79.5 -116.5t28.5 -141t-28.5 -141t-79.5 -116t-118.5 -76.5t-142.5 -27.5q-74 0 -142 27.5t-118.5 76.5t-79 116t-28.5 141zM163 347q0 -51 18.5 -97 t52 -79.5t78.5 -52.5t96 -19q50 0 95.5 19t79 53t52 79.5t18.5 96.5t-18.5 96.5t-52 80t-79 53.5t-95.5 19t-95.5 -19t-79 -53t-52 -80t-18.5 -97z"/>
    <glyph glyph-name="Ocircumflex" unicode="Ô" horiz-adv-x="816" d="M236 764l138 121h75l138 -121h-117l-59 58l-58 -58h-117zM40 347q0 74 28.5 141t79 116.5t118.5 77t142 27.5q75 0 142.5 -27.5t118.5 -77t79.5 -116.5t28.5 -141t-28.5 -141t-79.5 -116t-118.5 -76.5t-142.5 -27.5q-74 0 -142 27.5t-118.5 76.5t-79 116t-28.5 141z M163 347q0 -51 18.5 -97t52 -79.5t78.5 -52.5t96 -19q50 0 95.5 19t79 53t52 79.5t18.5 96.5t-18.5 96.5t-52 80t-79 53.5t-95.5 19t-95.5 -19t-79 -53t-52 -80t-18.5 -97z"/>
    <glyph glyph-name="Otilde" unicode="Õ" horiz-adv-x="816" d="M230 761q6 51 36.5 83t77.5 32q32 0 74 -20t62 -20q18 0 29 9.5t16 31.5l69 -9q-7 -57 -35.5 -89t-79.5 -32q-33 0 -75.5 20.5t-62.5 20.5q-35 0 -42 -35zM40 347q0 74 28.5 141t79 116.5t118.5 77t142 27.5q75 0 142.5 -27.5t118.5 -77t79.5 -116.5t28.5 -141 t-28.5 -141t-79.5 -116t-118.5 -76.5t-142.5 -27.5q-74 0 -142 27.5t-118.5 76.5t-79 116t-28.5 141zM163 347q0 -51 18.5 -97t52 -79.5t78.5 -52.5t96 -19q50 0 95.5 19t79 53t52 79.5t18.5 96.5t-18.5 96.5t-52 80t-79 53.5t-95.5 19t-95.5 -19t-79 -53t-52 -80t-18.5 -97 z"/>
    <glyph glyph-name="Odieresis" unicode="Ö" horiz-adv-x="816" d="M516 740q-25 0 -44.5 18t-19.5 43t19.5 43.5t44.5 18.5t44 -18t19 -44q0 -25 -19 -43t-44 -18zM308 740q-25 0 -44 18t-19 43q0 26 19 44t44 18q26 0 45 -18t19 -44q0 -25 -19 -43t-45 -18zM40 347q0 74 28.5 141t79 116.5t118.5 77t142 27.5q75 0 142.5 -27.5t118.5 -77 t79.5 -116.5t28.5 -141t-28.5 -141t-79.5 -116t-118.5 -76.5t-142.5 -27.5q-74 0 -142 27.5t-118.5 76.5t-79 116t-28.5 141zM163 347q0 -51 18.5 -97t52 -79.5t78.5 -52.5t96 -19q50 0 95.5 19t79 53t52 79.5t18.5 96.5t-18.5 96.5t-52 80t-79 53.5t-95.5 19t-95.5 -19 t-79 -53t-52 -80t-18.5 -97z"/>
    <glyph glyph-name="multiply" unicode="×" horiz-adv-x="434" d="M110 154l-72 73l106 107l-106 106l72 72l107 -107l107 107l72 -72l-106 -106l106 -107l-72 -73l-107 107z"/>
    <glyph glyph-name="Oslash" unicode="Ø" horiz-adv-x="816" d="M95 13l56 74q-52 48 -81.5 116t-29.5 144q0 74 28.5 141t79 116.5t118.5 77t142 27.5q95 0 183 -47l61 80l85 -64l-61 -80q47 -49 74 -114.5t27 -136.5q0 -74 -28.5 -141t-79.5 -116t-118.5 -76.5t-142.5 -27.5q-47 0 -91.5 11.5t-79.5 28.5l-59 -78zM225 181l295 388 q-24 12 -54 19.5t-58 7.5q-50 0 -95.5 -19t-79 -53t-52 -80t-18.5 -97q0 -47 16.5 -90.5t45.5 -75.5zM309 120q45 -21 99 -21q50 0 95.5 19t79 53t52 79.5t18.5 96.5q0 32 -11 73.5t-42 80.5z"/>
    <glyph glyph-name="Ugrave" unicode="Ù" horiz-adv-x="708" d="M319 745l-97 145h136l52 -145h-91zM71 267v430h125v-417q0 -45 14 -87t51.5 -66.5t92.5 -24.5q73 0 115 44t42 134v417h125v-430q0 -67 -21.5 -120t-60 -88t-90 -52.5t-110.5 -17.5t-111 17.5t-90.5 52.5t-60 88t-21.5 120z"/>
    <glyph glyph-name="Uacute" unicode="Ú" horiz-adv-x="708" d="M305 745l51 145h136l-97 -145h-90zM71 267v430h125v-417q0 -45 14 -87t51.5 -66.5t92.5 -24.5q73 0 115 44t42 134v417h125v-430q0 -67 -21.5 -120t-60 -88t-90 -52.5t-110.5 -17.5t-111 17.5t-90.5 52.5t-60 88t-21.5 120z"/>
    <glyph glyph-name="Ucircumflex" unicode="Û" horiz-adv-x="708" d="M179 764l137 121h76l138 -121h-117l-59 58l-58 -58h-117zM71 267v430h125v-417q0 -45 14 -87t51.5 -66.5t92.5 -24.5q73 0 115 44t42 134v417h125v-430q0 -67 -21.5 -120t-60 -88t-90 -52.5t-110.5 -17.5t-111 17.5t-90.5 52.5t-60 88t-21.5 120z"/>
    <glyph glyph-name="Udieresis" unicode="Ü" horiz-adv-x="708" d="M458 740q-26 0 -45 18t-19 43q0 26 19 44t45 18q25 0 44 -18t19 -44q0 -25 -19 -43t-44 -18zM250 740q-25 0 -44 18t-19 43q0 26 19 44t44 18t44.5 -18.5t19.5 -43.5t-19.5 -43t-44.5 -18zM71 267v430h125v-417q0 -45 14 -87t51.5 -66.5t92.5 -24.5q73 0 115 44t42 134 v417h125v-430q0 -67 -21.5 -120t-60 -88t-90 -52.5t-110.5 -17.5t-111 17.5t-90.5 52.5t-60 88t-21.5 120z"/>
    <glyph glyph-name="Yacute" unicode="Ý" horiz-adv-x="662" d="M281 745l51 145h137l-98 -145h-90zM269 0v270l-251 427h135l179 -307l178 307h134l-251 -427v-270h-124z"/>
    <glyph glyph-name="Thorn" unicode="Þ" horiz-adv-x="528" d="M77 0v697h125v-134h63q51 0 94 -16.5t73.5 -46.5t46.5 -70t16 -85q0 -44 -16 -83.5t-46 -68.5t-72 -45.5t-92 -16.5h-67v-131h-125zM202 244h63q49 0 78 28.5t29 74.5q0 33 -16.5 58.5t-42 35t-49.5 9.5h-62v-206z"/>
    <glyph glyph-name="germandbls" unicode="ß" horiz-adv-x="580" d="M52 0v531q0 37 14.5 70t40.5 58t61.5 39t74.5 14q28 0 60 -9t60.5 -31.5t48.5 -57.5t20 -80q0 -52 -33 -88q42 -13 78 -44.5t55.5 -74.5t19.5 -94t-18.5 -96.5t-52.5 -79t-80.5 -52.5t-99.5 -19q-27 0 -59 5v113q21 -8 51 -8q56 0 97.5 40.5t41.5 96.5q0 54 -41.5 93.5 t-97.5 39.5q-25 0 -51 -8v88q36 5 56 26t20 54q0 30 -21.5 53t-50.5 23q-30 0 -51.5 -23t-21.5 -55v-524h-121z"/>
    <glyph glyph-name="agrave" unicode="à" horiz-adv-x="615" d="M276 552l-97 145h137l51 -145h-91zM31 252q0 54 19 102.5t53.5 84.5t81 56t98.5 20q61 0 104.5 -24t56.5 -60v73h120v-504h-120v73q-13 -36 -56.5 -60t-104.5 -24q-52 0 -98.5 20t-81 56t-53.5 84.5t-19 102.5zM150 252q0 -24 7.5 -50t25.5 -49t47.5 -39t68.5 -16 q23 0 49.5 8t49.5 26.5t39 49t16 70.5q0 24 -8 50t-26.5 49t-49 39t-70.5 16q-23 0 -48 -8t-47.5 -26.5t-38 -49t-15.5 -70.5z"/>
    <glyph glyph-name="aacute" unicode="á" horiz-adv-x="615" d="M263 552l51 145h137l-98 -145h-90zM31 252q0 54 19 102.5t53.5 84.5t81 56t98.5 20q61 0 104.5 -24t56.5 -60v73h120v-504h-120v73q-13 -36 -56.5 -60t-104.5 -24q-52 0 -98.5 20t-81 56t-53.5 84.5t-19 102.5zM150 252q0 -24 7.5 -50t25.5 -49t47.5 -39t68.5 -16 q23 0 49.5 8t49.5 26.5t39 49t16 70.5q0 24 -8 50t-26.5 49t-49 39t-70.5 16q-23 0 -48 -8t-47.5 -26.5t-38 -49t-15.5 -70.5z"/>
    <glyph glyph-name="acircumflex" unicode="â" horiz-adv-x="615" d="M147 566l137 121h76l138 -121h-117l-59 58l-58 -58h-117zM444 504h120v-504h-120v73q-13 -36 -56.5 -60t-104.5 -24q-52 0 -98.5 20t-81 56t-53.5 84.5t-19 102.5t19 102.5t53.5 84.5t81 56t98.5 20q61 0 104.5 -24t56.5 -60v73zM299 98q23 0 49.5 8t49.5 26.5t39 49 t16 70.5q0 24 -8 50t-26.5 49t-49 39t-70.5 16q-23 0 -48 -8t-47.5 -26.5t-38 -49t-15.5 -70.5q0 -24 7.5 -50t25.5 -49t47.5 -39t68.5 -16z"/>
    <glyph glyph-name="atilde" unicode="ã" horiz-adv-x="615" d="M133 588q6 50 36.5 81.5t77.5 31.5q32 0 69 -18.5t49.5 -21t18.5 -2.5q34 0 44 42l70 -9q-7 -56 -36 -88t-80 -32q-33 0 -75.5 21t-62.5 21q-34 0 -41 -35zM31 252q0 54 19 102.5t53.5 84.5t81 56t98.5 20q61 0 104.5 -24t56.5 -60v73h120v-504h-120v73 q-13 -36 -56.5 -60t-104.5 -24q-52 0 -98.5 20t-81 56t-53.5 84.5t-19 102.5zM150 252q0 -24 7.5 -50t25.5 -49t47.5 -39t68.5 -16q23 0 49.5 8t49.5 26.5t39 49t16 70.5q0 24 -8 50t-26.5 49t-49 39t-70.5 16q-23 0 -48 -8t-47.5 -26.5t-38 -49t-15.5 -70.5z"/>
    <glyph glyph-name="adieresis" unicode="ä" horiz-adv-x="615" d="M423 567q-25 0 -44.5 18.5t-19.5 43.5t19.5 43.5t44.5 18.5t44.5 -18.5t19.5 -43.5t-19.5 -43.5t-44.5 -18.5zM215 567q-25 0 -44.5 18.5t-19.5 43.5t19.5 43.5t44.5 18.5t44.5 -18.5t19.5 -43.5t-19.5 -43.5t-44.5 -18.5zM31 252q0 54 19 102.5t53.5 84.5t81 56t98.5 20 q61 0 104.5 -24t56.5 -60v73h120v-504h-120v73q-13 -36 -56.5 -60t-104.5 -24q-52 0 -98.5 20t-81 56t-53.5 84.5t-19 102.5zM150 252q0 -24 7.5 -50t25.5 -49t47.5 -39t68.5 -16q23 0 49.5 8t49.5 26.5t39 49t16 70.5q0 24 -8 50t-26.5 49t-49 39t-70.5 16q-23 0 -48 -8 t-47.5 -26.5t-38 -49t-15.5 -70.5z"/>
    <glyph glyph-name="aring" unicode="å" horiz-adv-x="615" d="M320 551q-33 0 -61.5 18.5t-39.5 43.5t-11 46t11 46t39.5 43.5t61.5 18.5t61.5 -18.5t39.5 -43.5t11 -46t-11 -46t-39.5 -43.5t-61.5 -18.5zM320 618q17 0 29 12.5t12 28.5q0 17 -12 29.5t-29 12.5q-16 0 -29 -12.5t-13 -29.5q0 -16 13 -28.5t29 -12.5zM31 252 q0 54 19 102.5t53.5 84.5t81 56t98.5 20q61 0 104.5 -24t56.5 -60v73h120v-504h-120v73q-13 -36 -56.5 -60t-104.5 -24q-52 0 -98.5 20t-81 56t-53.5 84.5t-19 102.5zM150 252q0 -24 7.5 -50t25.5 -49t47.5 -39t68.5 -16q23 0 49.5 8t49.5 26.5t39 49t16 70.5q0 24 -8 50 t-26.5 49t-49 39t-70.5 16q-23 0 -48 -8t-47.5 -26.5t-38 -49t-15.5 -70.5z"/>
    <glyph glyph-name="ae" unicode="æ" horiz-adv-x="878" d="M32 141q0 75 51 119t148 44h50q24 0 45.5 4.5t31 16t9.5 29.5q0 19 -11.5 34t-35.5 21.5t-50 6.5q-31 0 -67 -13.5t-68 -51.5l-72 61q16 24 44.5 49t71.5 40.5t90 15.5q44 0 82 -12.5t58.5 -31.5t28.5 -36q32 38 76.5 59t96.5 21q49 0 93.5 -20t77 -55.5t50.5 -84 t18 -103.5l-2 -32h-375q3 -60 42 -96t104 -36q31 0 62.5 10.5t67.5 47.5l73 -70q-46 -49 -96.5 -70t-108.5 -21q-59 0 -107.5 21.5t-80.5 61.5q-61 -84 -209 -84q-88 0 -138 42.5t-50 112.5zM148 152q0 -61 86 -61q62 0 97.5 24.5t35.5 65.5v46q-16 -9 -51 -10l-60 -2 q-37 -2 -62.5 -9t-35.5 -22t-10 -32zM477 308h252q-3 22 -16 48t-41 44t-61 18q-24 0 -53 -10.5t-52 -38t-29 -61.5z"/>
    <glyph glyph-name="ccedilla" unicode="ç" horiz-adv-x="527" d="M31 253q0 56 21 105.5t59 85.5t88.5 56t105.5 20q121 0 202 -87l-74 -77q-53 55 -128 55q-40 0 -77.5 -20t-57.5 -58t-20 -80t20 -80t57.5 -58t77.5 -20q75 0 128 55l74 -77q-77 -82 -192 -87l-14 -32q27 0 46.5 -20.5t19.5 -52.5q0 -21 -10 -43t-38 -35t-66 -13 q-22 0 -47.5 7.5t-38.5 17.5l26 53q26 -15 50 -15q17 0 28 9t11 24q0 16 -12 27t-52 11l28 68q-45 9 -85 32t-69 57.5t-45 78.5t-16 93z"/>
    <glyph glyph-name="egrave" unicode="è" horiz-adv-x="571" d="M262 552l-96 145h136l51 -145h-91zM31 248v4q0 59 20 108.5t55.5 84.5t84.5 54t104 19q54 0 100.5 -19.5t79.5 -54.5t51 -81.5t18 -98.5l-2 -42h-392q3 -60 44.5 -96t107.5 -36q33 0 66 10.5t70 47.5l72 -70q-85 -90 -212 -90q-58 0 -107.5 18.5t-85 52.5t-55 82.5 t-19.5 106.5zM153 306h269q0 45 -37.5 77.5t-89.5 32.5q-26 0 -58 -11t-56.5 -38.5t-27.5 -60.5z"/>
    <glyph glyph-name="eacute" unicode="é" horiz-adv-x="571" d="M242 552l51 145h136l-97 -145h-90zM31 248v4q0 59 20 108.5t55.5 84.5t84.5 54t104 19q54 0 100.5 -19.5t79.5 -54.5t51 -81.5t18 -98.5l-2 -42h-392q3 -60 44.5 -96t107.5 -36q33 0 66 10.5t70 47.5l72 -70q-85 -90 -212 -90q-58 0 -107.5 18.5t-85 52.5t-55 82.5 t-19.5 106.5zM153 306h269q0 45 -37.5 77.5t-89.5 32.5q-26 0 -58 -11t-56.5 -38.5t-27.5 -60.5z"/>
    <glyph glyph-name="ecircumflex" unicode="ê" horiz-adv-x="571" d="M126 566l137 121h76l138 -121h-117l-59 58l-58 -58h-117zM31 248v4q0 59 20 108.5t55.5 84.5t84.5 54t104 19q54 0 100.5 -19.5t79.5 -54.5t51 -81.5t18 -98.5l-2 -42h-392q3 -60 44.5 -96t107.5 -36q33 0 66 10.5t70 47.5l72 -70q-85 -90 -212 -90q-58 0 -107.5 18.5 t-85 52.5t-55 82.5t-19.5 106.5zM153 306h269q0 45 -37.5 77.5t-89.5 32.5q-26 0 -58 -11t-56.5 -38.5t-27.5 -60.5z"/>
    <glyph glyph-name="edieresis" unicode="ë" horiz-adv-x="571" d="M399 567q-25 0 -44 18.5t-19 43.5t19 43.5t44 18.5q26 0 45 -18t19 -44t-19 -44t-45 -18zM192 567q-25 0 -44.5 18.5t-19.5 43.5t19.5 43.5t44.5 18.5t44.5 -18.5t19.5 -43.5t-19.5 -43.5t-44.5 -18.5zM31 248v4q0 59 20 108.5t55.5 84.5t84.5 54t104 19 q54 0 100.5 -19.5t79.5 -54.5t51 -81.5t18 -98.5l-2 -42h-392q3 -60 44.5 -96t107.5 -36q33 0 66 10.5t70 47.5l72 -70q-85 -90 -212 -90q-58 0 -107.5 18.5t-85 52.5t-55 82.5t-19.5 106.5zM153 306h269q0 45 -37.5 77.5t-89.5 32.5q-26 0 -58 -11t-56.5 -38.5t-27.5 -60.5 z"/>
    <glyph glyph-name="igrave" unicode="ì" horiz-adv-x="226" d="M76 552l-95 145h136l49 -145h-90zM54 0v504h119v-504h-119z"/>
    <glyph glyph-name="iacute" unicode="í" horiz-adv-x="226" d="M56 552l49 145h136l-95 -145h-90zM54 0v504h119v-504h-119z"/>
    <glyph glyph-name="icircumflex" unicode="î" horiz-adv-x="253" d="M66 0v504h121v-504h-121zM-26 566l114 121h77l114 -121h-111l-42 63l-42 -63h-110z"/>
    <glyph glyph-name="idieresis" unicode="ï" horiz-adv-x="247" d="M204 570q-25 0 -43.5 17.5t-18.5 42.5t18.5 43t43.5 18t43.5 -18t18.5 -43t-18.5 -42.5t-43.5 -17.5zM43 570q-25 0 -44 17.5t-19 42.5t19 43t44 18t43.5 -18t18.5 -43t-18.5 -42.5t-43.5 -17.5zM64 0v504h120v-504h-120z"/>
    <glyph glyph-name="eth" unicode="ð" horiz-adv-x="540" d="M31 219q0 35 12 73.5t44 77t78.5 58t90.5 19.5q41 0 76 -15t54 -40q-11 29 -38.5 69.5t-66.5 69.5l-65 -65l-71 66l54 56q-52 28 -110 40l29 100q80 -17 155 -62l75 75l71 -67l-66 -66q110 -97 142 -230q15 -63 15 -116q0 -126 -66 -200.5t-178 -74.5q-47 0 -90.5 17.5 t-76 49.5t-50.5 75t-18 90zM149 219q0 -51 35 -86t86 -35t86 35t35 86q0 37 -20 67.5t-48.5 42.5t-52.5 12t-52.5 -12t-48.5 -42.5t-20 -67.5z"/>
    <glyph glyph-name="ntilde" unicode="ñ" horiz-adv-x="564" d="M108 588q6 50 36.5 81.5t77.5 31.5q32 0 68.5 -18.5t49 -21t18.5 -2.5q35 0 45 42l69 -9q-7 -56 -35.5 -88t-79.5 -32q-33 0 -75.5 21t-62.5 21q-35 0 -42 -35zM53 0v504h119v-72q17 36 58.5 59t94.5 23q90 0 140.5 -54.5t50.5 -147.5v-312h-120v295q0 51 -28.5 81.5 t-78.5 30.5q-24 0 -51.5 -11t-46.5 -40t-19 -66v-290h-119z"/>
    <glyph glyph-name="ograve" unicode="ò" horiz-adv-x="612" d="M265 552l-97 145h137l51 -145h-91zM31 252q0 55 21 104t59 85.5t88.5 57t106.5 20.5q26 0 60.5 -6.5t70 -25t68.5 -50.5t54.5 -81t21.5 -104q0 -26 -7 -60t-26 -68.5t-52.5 -66t-84 -52t-105.5 -20.5q-56 0 -106.5 20.5t-88.5 57t-59 85.5t-21 104zM150 252 q0 -67 45 -112.5t111 -45.5q24 0 50 8t49.5 27.5t40 50.5t16.5 72q0 32 -15 68.5t-53.5 63t-87.5 26.5q-66 0 -111 -45.5t-45 -112.5z"/>
    <glyph glyph-name="oacute" unicode="ó" horiz-adv-x="612" d="M259 552l51 145h136l-97 -145h-90zM31 252q0 55 21 104t59 85.5t88.5 57t106.5 20.5q26 0 60.5 -6.5t70 -25t68.5 -50.5t54.5 -81t21.5 -104q0 -26 -7 -60t-26 -68.5t-52.5 -66t-84 -52t-105.5 -20.5q-56 0 -106.5 20.5t-88.5 57t-59 85.5t-21 104zM150 252 q0 -67 45 -112.5t111 -45.5q24 0 50 8t49.5 27.5t40 50.5t16.5 72q0 32 -15 68.5t-53.5 63t-87.5 26.5q-66 0 -111 -45.5t-45 -112.5z"/>
    <glyph glyph-name="ocircumflex" unicode="ô" horiz-adv-x="612" d="M131 566l137 121h76l138 -121h-117l-59 58l-58 -58h-117zM31 252q0 55 21 104t59 85.5t88.5 57t106.5 20.5q26 0 60.5 -6.5t70 -25t68.5 -50.5t54.5 -81t21.5 -104q0 -26 -7 -60t-26 -68.5t-52.5 -66t-84 -52t-105.5 -20.5q-56 0 -106.5 20.5t-88.5 57t-59 85.5t-21 104z M150 252q0 -67 45 -112.5t111 -45.5q24 0 50 8t49.5 27.5t40 50.5t16.5 72q0 32 -15 68.5t-53.5 63t-87.5 26.5q-66 0 -111 -45.5t-45 -112.5z"/>
    <glyph glyph-name="otilde" unicode="õ" horiz-adv-x="612" d="M122 588q5 36 23.5 64t43.5 38.5t47 10.5q32 0 69 -18.5t49.5 -21t18.5 -2.5q34 0 44 42l70 -9q-7 -56 -36 -88t-80 -32q-33 0 -75.5 21t-62.5 21q-34 0 -41 -35zM31 252q0 55 21 104t59 85.5t88.5 57t106.5 20.5q26 0 60.5 -6.5t70 -25t68.5 -50.5t54.5 -81t21.5 -104 q0 -26 -7 -60t-26 -68.5t-52.5 -66t-84 -52t-105.5 -20.5q-56 0 -106.5 20.5t-88.5 57t-59 85.5t-21 104zM150 252q0 -67 45 -112.5t111 -45.5q24 0 50 8t49.5 27.5t40 50.5t16.5 72q0 32 -15 68.5t-53.5 63t-87.5 26.5q-66 0 -111 -45.5t-45 -112.5z"/>
    <glyph glyph-name="odieresis" unicode="ö" horiz-adv-x="612" d="M409 567q-25 0 -44 18t-19 44t19 44t44 18q26 0 45 -18t19 -44t-19 -44t-45 -18zM202 567q-26 0 -45 18t-19 44t19 44t45 18q25 0 44 -18t19 -44t-19 -44t-44 -18zM31 252q0 55 21 104t59 85.5t88.5 57t106.5 20.5q26 0 60.5 -6.5t70 -25t68.5 -50.5t54.5 -81t21.5 -104 q0 -26 -7 -60t-26 -68.5t-52.5 -66t-84 -52t-105.5 -20.5q-56 0 -106.5 20.5t-88.5 57t-59 85.5t-21 104zM150 252q0 -67 45 -112.5t111 -45.5q24 0 50 8t49.5 27.5t40 50.5t16.5 72q0 32 -15 68.5t-53.5 63t-87.5 26.5q-66 0 -111 -45.5t-45 -112.5z"/>
    <glyph glyph-name="divide" unicode="÷" horiz-adv-x="493" d="M43 295v106h408v-106h-408zM177 514q0 28 21 48t49 20t48.5 -20t20.5 -48t-20.5 -48.5t-48.5 -20.5t-49 20.5t-21 48.5zM177 183q0 28 21 48t49 20t48.5 -20t20.5 -48t-20.5 -48.5t-48.5 -20.5t-49 20.5t-21 48.5z"/>
    <glyph glyph-name="oslash" unicode="ø" horiz-adv-x="612" d="M68 6l42 56q-37 36 -58 85.5t-21 104.5t21 104t59 85.5t88.5 57t106.5 20.5q31 0 63.5 -7.5t58.5 -20.5l40 54l73 -53l-40 -51q38 -36 59 -85t21 -104q0 -26 -7 -60t-26 -68.5t-52.5 -66t-84 -52t-105.5 -20.5q-30 0 -63 7.5t-59 19.5l-44 -59zM183 156l176 240 q-24 13 -53 13q-67 0 -112 -45.5t-45 -111.5q0 -26 9.5 -52t24.5 -44zM253 107q23 -12 53 -12q66 0 111.5 45.5t45.5 111.5q0 25 -9 51t-24 44z"/>
    <glyph glyph-name="ugrave" unicode="ù" horiz-adv-x="556" d="M241 552l-98 145h137l51 -145h-90zM47 200v304h121v-294q0 -56 30.5 -84.5t79.5 -28.5t79.5 28.5t30.5 85.5v293h121v-301q0 -39 -12 -78t-41 -69.5t-74 -49.5t-105 -19q-72 0 -123.5 27.5t-79 74t-27.5 111.5z"/>
    <glyph glyph-name="uacute" unicode="ú" horiz-adv-x="556" d="M222 552l52 145h136l-97 -145h-91zM47 200v304h121v-294q0 -56 30.5 -84.5t79.5 -28.5t79.5 28.5t30.5 85.5v293h121v-301q0 -39 -12 -78t-41 -69.5t-74 -49.5t-105 -19q-72 0 -123.5 27.5t-79 74t-27.5 111.5z"/>
    <glyph glyph-name="ucircumflex" unicode="û" horiz-adv-x="556" d="M104 566l138 121h76l137 -121h-117l-59 58l-58 -58h-117zM47 200v304h121v-294q0 -56 30.5 -84.5t79.5 -28.5t79.5 28.5t30.5 85.5v293h121v-301q0 -39 -12 -78t-41 -69.5t-74 -49.5t-105 -19q-72 0 -123.5 27.5t-79 74t-27.5 111.5z"/>
    <glyph glyph-name="udieresis" unicode="ü" horiz-adv-x="556" d="M382 567q-25 0 -44 18t-19 44t19 44t44 18q26 0 45 -18t19 -44t-19 -44t-45 -18zM175 567q-25 0 -44.5 18.5t-19.5 43.5t19.5 43.5t44.5 18.5t44 -18t19 -44t-19 -44t-44 -18zM47 200v304h121v-294q0 -56 30.5 -84.5t79.5 -28.5t79.5 28.5t30.5 85.5v293h121v-301 q0 -39 -12 -78t-41 -69.5t-74 -49.5t-105 -19q-72 0 -123.5 27.5t-79 74t-27.5 111.5z"/>
    <glyph glyph-name="yacute" unicode="ý" horiz-adv-x="563" d="M224 552l51 145h137l-97 -145h-91zM216 -7l-207 511h123l147 -368l151 368h123l-296 -698h-122z"/>
    <glyph glyph-name="thorn" unicode="þ" horiz-adv-x="616" d="M173 -193h-120v890h120v-266q13 36 56.5 60t104.5 24q52 0 98.5 -20t81 -56t53.5 -84.5t19 -102.5t-19 -102.5t-53.5 -84.5t-81 -56t-98.5 -20q-61 0 -104.5 24t-56.5 60v-266zM318 406q-23 0 -49.5 -8t-49.5 -26.5t-39 -49t-16 -70.5q0 -24 8 -50t26.5 -49t49 -39 t70.5 -16q23 0 48 8t47.5 26.5t38 49t15.5 70.5q0 24 -7.5 50t-25.5 49t-47.5 39t-68.5 16z"/>
    <glyph glyph-name="ydieresis" unicode="ÿ" horiz-adv-x="563" d="M382 567q-25 0 -44 18t-19 44t19 44t44 18q26 0 45 -18t19 -44t-19 -44t-45 -18zM175 567q-25 0 -44.5 18.5t-19.5 43.5t19.5 43.5t44.5 18.5t44 -18t19 -44t-19 -44t-44 -18zM216 -7l-207 511h123l147 -368l151 368h123l-296 -698h-122z"/>
    <glyph glyph-name="Amacron" unicode="Ā" horiz-adv-x="734" d="M213 761v85h308v-85h-308zM23 0l291 697h106l291 -697h-132l-57 139h-310l-57 -139h-132zM251 242h232l-116 284z"/>
    <glyph glyph-name="amacron" unicode="ā" horiz-adv-x="615" d="M173 583v85h308v-85h-308zM31 252q0 54 19 102.5t53.5 84.5t81 56t98.5 20q61 0 104.5 -24t56.5 -60v73h120v-504h-120v73q-13 -36 -56.5 -60t-104.5 -24q-52 0 -98.5 20t-81 56t-53.5 84.5t-19 102.5zM150 252q0 -24 7.5 -50t25.5 -49t47.5 -39t68.5 -16q23 0 49.5 8 t49.5 26.5t39 49t16 70.5q0 24 -8 50t-26.5 49t-49 39t-70.5 16q-23 0 -48 -8t-47.5 -26.5t-38 -49t-15.5 -70.5z"/>
    <glyph glyph-name="Abreve" unicode="Ă" horiz-adv-x="734" d="M367 749q-34 0 -71.5 14t-64.5 50t-33 78h92q9 -27 28.5 -42.5t48.5 -15.5q28 0 47.5 15.5t28.5 42.5h92q-4 -28 -22 -61.5t-56.5 -57t-89.5 -23.5zM23 0l291 697h106l291 -697h-132l-57 139h-310l-57 -139h-132zM251 242h232l-116 284z"/>
    <glyph glyph-name="abreve" unicode="ă" horiz-adv-x="615" d="M313 556q-51 0 -89.5 23.5t-56.5 57t-22 61.5h92q19 -58 76 -58q29 0 48.5 15.5t28.5 42.5h92q-4 -28 -22 -61.5t-57 -57t-90 -23.5zM31 252q0 54 19 102.5t53.5 84.5t81 56t98.5 20q61 0 104.5 -24t56.5 -60v73h120v-504h-120v73q-13 -36 -56.5 -60t-104.5 -24 q-52 0 -98.5 20t-81 56t-53.5 84.5t-19 102.5zM150 252q0 -24 7.5 -50t25.5 -49t47.5 -39t68.5 -16q23 0 49.5 8t49.5 26.5t39 49t16 70.5q0 24 -8 50t-26.5 49t-49 39t-70.5 16q-23 0 -48 -8t-47.5 -26.5t-38 -49t-15.5 -70.5z"/>
    <glyph glyph-name="Aogonek" unicode="Ą" horiz-adv-x="734" d="M23 0l291 697h106l291 -697q-27 -13 -51 -39t-24 -52q0 -19 14.5 -29t35.5 -10q27 0 58 13l-18 -79q-28 -14 -57 -14q-45 0 -81 28.5t-36 72.5q0 32 21 60.5t55 48.5h-50l-57 139h-309l-57 -139h-132zM251 242h232l-116 284z"/>
    <glyph glyph-name="aogonek" unicode="ą" horiz-adv-x="615" d="M31 252q0 54 19 102.5t53.5 84.5t81 56t98.5 20q61 0 104.5 -24t56.5 -60v73h120v-504q-37 -24 -54.5 -48t-17.5 -43t14.5 -29t35.5 -10q29 0 58 13l-17 -79q-28 -14 -57 -14q-34 0 -61 14.5t-41.5 36.5t-14.5 50q0 25 17 54t58 55h-40v73q-13 -36 -56.5 -60t-104.5 -24 q-52 0 -98.5 20t-81 56t-53.5 84.5t-19 102.5zM150 252q0 -24 7.5 -50t25.5 -49t47.5 -39t68.5 -16q23 0 49.5 8t49.5 26.5t39 49t16 70.5q0 24 -8 50t-26.5 49t-49 39t-70.5 16q-23 0 -48 -8t-47.5 -26.5t-38 -49t-15.5 -70.5z"/>
    <glyph glyph-name="Cacute" unicode="Ć" horiz-adv-x="712" d="M353 745l51 145h137l-98 -145h-90zM40 348q0 75 28.5 142t79.5 116t119 76t143 27q80 0 152.5 -33.5t123.5 -91.5l-85 -73q-35 40 -85 62.5t-106 22.5q-51 0 -96.5 -18.5t-79 -52.5t-52 -79.5t-18.5 -97.5t18.5 -97.5t52 -79t79 -52t96.5 -18.5q56 0 107 23t86 64l84 -73 q-51 -60 -123 -93.5t-154 -33.5q-75 0 -143 27t-119 75.5t-79.5 115.5t-28.5 142z"/>
    <glyph glyph-name="cacute" unicode="ć" horiz-adv-x="527" d="M255 552l52 145h136l-97 -145h-91zM31 253q0 56 21 105.5t59 85.5t88.5 56t105.5 20q121 0 202 -87l-74 -77q-53 55 -128 55q-40 0 -77.5 -20t-57.5 -58t-20 -80t20 -80t57.5 -58t77.5 -20q75 0 128 55l74 -77q-81 -87 -202 -87q-55 0 -105.5 20t-88.5 56t-59 85.5 t-21 105.5z"/>
    <glyph glyph-name="Ccircumflex" unicode="Ĉ" horiz-adv-x="712" d="M240 764l137 121h77l137 -121h-117l-58 58l-59 -58h-117zM40 348q0 75 28.5 142t79.5 116t119 76t143 27q80 0 152.5 -33.5t123.5 -91.5l-85 -73q-35 40 -85 62.5t-106 22.5q-51 0 -96.5 -18.5t-79 -52.5t-52 -79.5t-18.5 -97.5t18.5 -97.5t52 -79t79 -52t96.5 -18.5 q56 0 107 23t86 64l84 -73q-51 -60 -123 -93.5t-154 -33.5q-75 0 -143 27t-119 75.5t-79.5 115.5t-28.5 142z"/>
    <glyph glyph-name="ccircumflex" unicode="ĉ" horiz-adv-x="527" d="M131 566l137 121h76l138 -121h-117l-59 58l-58 -58h-117zM31 253q0 56 21 105.5t59 85.5t88.5 56t105.5 20q121 0 202 -87l-74 -77q-53 55 -128 55q-40 0 -77.5 -20t-57.5 -58t-20 -80t20 -80t57.5 -58t77.5 -20q75 0 128 55l74 -77q-81 -87 -202 -87q-55 0 -105.5 20 t-88.5 56t-59 85.5t-21 105.5z"/>
    <glyph glyph-name="Cdotaccent" unicode="Ċ" horiz-adv-x="712" d="M406 751q-26 0 -45 18.5t-19 44.5q0 25 19.5 43.5t44.5 18.5q26 0 45.5 -18t19.5 -44t-19.5 -44.5t-45.5 -18.5zM40 348q0 75 28.5 142t79.5 116t119 76t143 27q80 0 152.5 -33.5t123.5 -91.5l-85 -73q-35 40 -85 62.5t-106 22.5q-51 0 -96.5 -18.5t-79 -52.5t-52 -79.5 t-18.5 -97.5t18.5 -97.5t52 -79t79 -52t96.5 -18.5q56 0 107 23t86 64l84 -73q-51 -60 -123 -93.5t-154 -33.5q-75 0 -143 27t-119 75.5t-79.5 115.5t-28.5 142z"/>
    <glyph glyph-name="cdotaccent" unicode="ċ" horiz-adv-x="527" d="M302 561q-25 0 -44.5 18.5t-19.5 44.5t19.5 44.5t44.5 18.5q26 0 45.5 -18.5t19.5 -44.5t-19.5 -44.5t-45.5 -18.5zM31 253q0 56 21 105.5t59 85.5t88.5 56t105.5 20q121 0 202 -87l-74 -77q-53 55 -128 55q-40 0 -77.5 -20t-57.5 -58t-20 -80t20 -80t57.5 -58t77.5 -20 q75 0 128 55l74 -77q-81 -87 -202 -87q-55 0 -105.5 20t-88.5 56t-59 85.5t-21 105.5z"/>
    <glyph glyph-name="Ccaron" unicode="Č" horiz-adv-x="712" d="M373 769l-138 121h117l58 -58l59 58h118l-138 -121h-76zM40 348q0 75 28.5 142t79.5 116t119 76t143 27q80 0 152.5 -33.5t123.5 -91.5l-85 -73q-35 40 -85 62.5t-106 22.5q-51 0 -96.5 -18.5t-79 -52.5t-52 -79.5t-18.5 -97.5t18.5 -97.5t52 -79t79 -52t96.5 -18.5 q56 0 107 23t86 64l84 -73q-51 -60 -123 -93.5t-154 -33.5q-75 0 -143 27t-119 75.5t-79.5 115.5t-28.5 142z"/>
    <glyph glyph-name="ccaron" unicode="č" horiz-adv-x="527" d="M265 576l-138 121h118l58 -58l58 58h118l-138 -121h-76zM31 253q0 56 21 105.5t59 85.5t88.5 56t105.5 20q121 0 202 -87l-74 -77q-53 55 -128 55q-40 0 -77.5 -20t-57.5 -58t-20 -80t20 -80t57.5 -58t77.5 -20q75 0 128 55l74 -77q-81 -87 -202 -87q-55 0 -105.5 20 t-88.5 56t-59 85.5t-21 105.5z"/>
    <glyph glyph-name="Dcaron" unicode="Ď" horiz-adv-x="733" d="M313 769l-138 121h117l58 -58l59 58h118l-138 -121h-76zM77 0v697h249q86 0 155 -25.5t116 -72.5t71 -112t24 -140q0 -76 -24 -140t-70.5 -110.5t-115.5 -71.5t-155 -25h-250zM202 113h116q82 0 136.5 26.5t83.5 78t29 129.5q0 80 -29.5 132t-83.5 78.5t-137 26.5h-115 v-471z"/>
    <glyph glyph-name="dcaron" unicode="ď" horiz-adv-x="803" d="M590 552l52 145h136l-97 -145h-91zM31 252q0 54 19 102.5t53.5 84.5t81 56t98.5 20q61 0 104.5 -24t56.5 -60v266h120v-697h-120v73q-13 -36 -56.5 -60t-104.5 -24q-52 0 -98.5 20t-81 56t-53.5 84.5t-19 102.5zM150 252q0 -24 7.5 -50t25.5 -49t47.5 -39t68.5 -16 q23 0 49.5 8t49.5 26.5t39 49t16 70.5q0 24 -8 50t-26.5 49t-49 39t-70.5 16q-23 0 -48 -8t-47.5 -26.5t-38 -49t-15.5 -70.5z"/>
    <glyph glyph-name="Dcroat" unicode="Đ" horiz-adv-x="737" d="M77 0v298h-55v113h55v286h249q86 0 155 -25.5t116 -72.5t71 -112t24 -140q0 -76 -24 -140t-70.5 -110.5t-115.5 -71.5t-155 -25h-250zM202 113h116q82 0 136.5 26.5t83.5 78t29 129.5q0 80 -29.5 132t-83.5 78.5t-137 26.5h-115v-173h144v-113h-144v-185z"/>
    <glyph glyph-name="dcroat" unicode="đ" horiz-adv-x="616" d="M31 252q0 54 19 102.5t53.5 84.5t81 56t98.5 20q61 0 104.5 -24t56.5 -60v118h-180v94h180v54h120v-54h45v-94h-45v-549h-120v73q-13 -36 -56.5 -60t-104.5 -24q-52 0 -98.5 20t-81 56t-53.5 84.5t-19 102.5zM150 252q0 -24 7.5 -50t25.5 -49t47.5 -39t68.5 -16 q23 0 49.5 8t49.5 26.5t39 49t16 70.5q0 24 -8 50t-26.5 49t-49 39t-70.5 16q-23 0 -48 -8t-47.5 -26.5t-38 -49t-15.5 -70.5z"/>
    <glyph glyph-name="Emacron" unicode="Ē" horiz-adv-x="578" d="M144 761v85h308v-85h-308zM77 0v697h444v-113h-319v-166h299v-113h-299v-192h326v-113h-451z"/>
    <glyph glyph-name="emacron" unicode="ē" horiz-adv-x="571" d="M143 583v85h308v-85h-308zM31 248v4q0 59 20 108.5t55.5 84.5t84.5 54t104 19q54 0 100.5 -19.5t79.5 -54.5t51 -81.5t18 -98.5l-2 -42h-392q3 -60 44.5 -96t107.5 -36q33 0 66 10.5t70 47.5l72 -70q-85 -90 -212 -90q-58 0 -107.5 18.5t-85 52.5t-55 82.5t-19.5 106.5z M153 306h269q0 45 -37.5 77.5t-89.5 32.5q-26 0 -58 -11t-56.5 -38.5t-27.5 -60.5z"/>
    <glyph glyph-name="Ebreve" unicode="Ĕ" horiz-adv-x="578" d="M301 749q-51 0 -89.5 23.5t-56.5 57t-22 61.5h91q9 -27 28.5 -42.5t48.5 -15.5t48.5 15.5t28.5 42.5h91q-4 -28 -22 -61.5t-56.5 -57t-89.5 -23.5zM77 0v697h444v-113h-319v-166h299v-113h-299v-192h326v-113h-451z"/>
    <glyph glyph-name="ebreve" unicode="ĕ" horiz-adv-x="571" d="M295 556q-51 0 -89.5 23.5t-56.5 57t-22 61.5h92q9 -27 28.5 -42.5t47.5 -15.5q29 0 48.5 15.5t28.5 42.5h92q-5 -37 -27.5 -71t-61 -52.5t-80.5 -18.5zM31 248v4q0 59 20 108.5t55.5 84.5t84.5 54t104 19q54 0 100.5 -19.5t79.5 -54.5t51 -81.5t18 -98.5l-2 -42h-392 q3 -60 44.5 -96t107.5 -36q33 0 66 10.5t70 47.5l72 -70q-85 -90 -212 -90q-58 0 -107.5 18.5t-85 52.5t-55 82.5t-19.5 106.5zM153 306h269q0 45 -37.5 77.5t-89.5 32.5q-26 0 -58 -11t-56.5 -38.5t-27.5 -60.5z"/>
    <glyph glyph-name="Edotaccent" unicode="Ė" horiz-adv-x="578" d="M301 751q-26 0 -45.5 18.5t-19.5 44.5t19.5 44t45.5 18q25 0 44.5 -18.5t19.5 -43.5q0 -26 -19 -44.5t-45 -18.5zM77 0v697h444v-113h-319v-166h299v-113h-299v-192h326v-113h-451z"/>
    <glyph glyph-name="edotaccent" unicode="ė" horiz-adv-x="571" d="M296 567q-26 0 -45.5 18.5t-19.5 44.5t19.5 44.5t45.5 18.5q25 0 44.5 -18.5t19.5 -44.5t-19.5 -44.5t-44.5 -18.5zM31 248v4q0 59 20 108.5t55.5 84.5t84.5 54t104 19q54 0 100.5 -19.5t79.5 -54.5t51 -81.5t18 -98.5l-2 -42h-392q3 -60 44.5 -96t107.5 -36 q33 0 66 10.5t70 47.5l72 -70q-85 -90 -212 -90q-58 0 -107.5 18.5t-85 52.5t-55 82.5t-19.5 106.5zM153 306h269q0 45 -37.5 77.5t-89.5 32.5q-26 0 -58 -11t-56.5 -38.5t-27.5 -60.5z"/>
    <glyph glyph-name="Eogonek" unicode="Ę" horiz-adv-x="578" d="M77 0v697h444v-113h-319v-166h299v-113h-299v-192h326v-113q-37 -24 -54.5 -48t-17.5 -43t14.5 -29t35.5 -10q29 0 58 13l-17 -79q-28 -14 -57 -14q-34 0 -61 14.5t-41.5 36.5t-14.5 50q0 25 17 54t58 55h-371z"/>
    <glyph glyph-name="eogonek" unicode="ę" horiz-adv-x="571" d="M31 248v4q0 59 20 108.5t55.5 84.5t84.5 54t104 19q54 0 100.5 -19.5t79.5 -54.5t51 -81.5t18 -98.5l-2 -42h-392q3 -60 44.5 -96t107.5 -36q33 0 66 10.5t70 47.5l72 -70q-30 -30 -68 -54q-56 -34 -79 -61t-23 -53q0 -19 14.5 -29t33.5 -10q28 0 57 13l-17 -79 q-28 -14 -56 -14q-45 0 -80.5 28.5t-35.5 72.5q0 28 15.5 53t39.5 43h-5q-45 0 -92.5 12t-82.5 38t-56 56.5t-32.5 70t-11.5 83.5zM153 306h269q0 45 -37.5 77.5t-89.5 32.5q-26 0 -58 -11t-56.5 -38.5t-27.5 -60.5z"/>
    <glyph glyph-name="Ecaron" unicode="Ě" horiz-adv-x="578" d="M302 739l-180 151h116l64 -63l63 63h117zM77 0v697h444v-113h-319v-166h299v-113h-299v-192h326v-113h-451z"/>
    <glyph glyph-name="ecaron" unicode="ě" horiz-adv-x="571" d="M261 576l-137 121h118l58 -58l58 58h117l-137 -121h-77zM31 248v4q0 59 20 108.5t55.5 84.5t84.5 54t104 19q54 0 100.5 -19.5t79.5 -54.5t51 -81.5t18 -98.5l-2 -42h-392q3 -60 44.5 -96t107.5 -36q33 0 66 10.5t70 47.5l72 -70q-85 -90 -212 -90q-58 0 -107.5 18.5 t-85 52.5t-55 82.5t-19.5 106.5zM153 306h269q0 45 -37.5 77.5t-89.5 32.5q-26 0 -58 -11t-56.5 -38.5t-27.5 -60.5z"/>
    <glyph glyph-name="Gcircumflex" unicode="Ĝ" horiz-adv-x="746" d="M234 764l138 121h76l138 -121h-117l-59 58l-58 -58h-118zM40 348q0 75 28.5 142t79.5 116t119 76t143 27t142 -27.5t117 -77.5l-83 -76q-33 32 -79 50t-97 18q-38 0 -79.5 -12.5t-83 -47t-62.5 -86t-21 -102.5q0 -52 18.5 -97.5t52 -79t79 -52t96.5 -18.5q48 0 91.5 16 t75.5 44v128h-194v111h312v-281q-49 -61 -124 -96t-161 -35q-75 0 -143 27t-119 75.5t-79.5 115.5t-28.5 142z"/>
    <glyph glyph-name="gcircumflex" unicode="ĝ" horiz-adv-x="615" d="M140 566l137 121h76l138 -121h-117l-59 58l-58 -58h-117zM150 254q0 -40 19 -76.5t55 -56t75 -19.5q65 0 109.5 43.5t44.5 108.5q0 64 -44.5 108t-109.5 44q-63 0 -106 -44t-43 -108zM31 254q0 53 19 101.5t53.5 84t81 55.5t98.5 20q61 0 104.5 -24t56.5 -60v73h120v-420 q0 -65 -8.5 -113t-28.5 -80.5t-48 -54.5q-34 -26 -81 -41t-97 -15q-141 0 -244 73l58 89q83 -55 173 -55q30 0 60 7.5t51 22.5q48 35 48 128v25q-17 -31 -61 -52.5t-103 -21.5q-52 0 -98.5 19.5t-81 54.5t-53.5 83t-19 101z"/>
    <glyph glyph-name="Gbreve" unicode="Ğ" horiz-adv-x="746" d="M406 749q-51 0 -89.5 23.5t-56.5 57t-22 61.5h91q9 -27 28.5 -42.5t48.5 -15.5q58 0 76 58h92q-4 -28 -22 -61.5t-56.5 -57t-89.5 -23.5zM40 348q0 75 28.5 142t79.5 116t119 76t143 27t142 -27.5t117 -77.5l-83 -76q-33 32 -79 50t-97 18q-38 0 -79.5 -12.5t-83 -47 t-62.5 -86t-21 -102.5q0 -52 18.5 -97.5t52 -79t79 -52t96.5 -18.5q48 0 91.5 16t75.5 44v128h-194v111h312v-281q-49 -61 -124 -96t-161 -35q-75 0 -143 27t-119 75.5t-79.5 115.5t-28.5 142z"/>
    <glyph glyph-name="gbreve" unicode="ğ" horiz-adv-x="615" d="M309 556q-51 0 -89.5 23.5t-56.5 57t-22 61.5h92q9 -27 28.5 -42.5t47.5 -15.5q29 0 48.5 15.5t28.5 42.5h92q-4 -28 -22 -61.5t-57 -57t-90 -23.5zM150 254q0 -40 19 -76.5t55 -56t75 -19.5q65 0 109.5 43.5t44.5 108.5q0 64 -44.5 108t-109.5 44q-63 0 -106 -44 t-43 -108zM31 254q0 53 19 101.5t53.5 84t81 55.5t98.5 20q61 0 104.5 -24t56.5 -60v73h120v-420q0 -65 -8.5 -113t-28.5 -80.5t-48 -54.5q-34 -26 -81 -41t-97 -15q-141 0 -244 73l58 89q83 -55 173 -55q30 0 60 7.5t51 22.5q48 35 48 128v25q-17 -31 -61 -52.5t-103 -21.5 q-52 0 -98.5 19.5t-81 54.5t-53.5 83t-19 101z"/>
    <glyph glyph-name="Gdotaccent" unicode="Ġ" horiz-adv-x="746" d="M408 751q-26 0 -45.5 18.5t-19.5 44.5t19.5 44t45.5 18t45.5 -18t19.5 -44t-19.5 -44.5t-45.5 -18.5zM40 348q0 75 28.5 142t79.5 116t119 76t143 27t142 -27.5t117 -77.5l-83 -76q-33 32 -79 50t-97 18q-38 0 -79.5 -12.5t-83 -47t-62.5 -86t-21 -102.5 q0 -52 18.5 -97.5t52 -79t79 -52t96.5 -18.5q48 0 91.5 16t75.5 44v128h-194v111h312v-281q-49 -61 -124 -96t-161 -35q-75 0 -143 27t-119 75.5t-79.5 115.5t-28.5 142z"/>
    <glyph glyph-name="gdotaccent" unicode="ġ" horiz-adv-x="615" d="M317 567q-26 0 -45.5 18.5t-19.5 44.5t19.5 44.5t45.5 18.5q25 0 45 -18.5t20 -44.5t-20 -44.5t-45 -18.5zM150 254q0 -40 19 -76.5t55 -56t75 -19.5q65 0 109.5 43.5t44.5 108.5q0 64 -44.5 108t-109.5 44q-63 0 -106 -44t-43 -108zM31 254q0 53 19 101.5t53.5 84 t81 55.5t98.5 20q61 0 104.5 -24t56.5 -60v73h120v-420q0 -65 -8.5 -113t-28.5 -80.5t-48 -54.5q-34 -26 -81 -41t-97 -15q-141 0 -244 73l58 89q83 -55 173 -55q30 0 60 7.5t51 22.5q48 35 48 128v25q-17 -31 -61 -52.5t-103 -21.5q-52 0 -98.5 19.5t-81 54.5t-53.5 83 t-19 101z"/>
    <glyph glyph-name="Gcommaaccent" unicode="Ģ" horiz-adv-x="746" d="M291 -193l52 145h137l-97 -145h-92zM40 348q0 75 28.5 142t79.5 116t119 76t143 27t142 -27.5t117 -77.5l-83 -76q-33 32 -79 50t-97 18q-38 0 -79.5 -12.5t-83 -47t-62.5 -86t-21 -102.5q0 -52 18.5 -97.5t52 -79t79 -52t96.5 -18.5q48 0 91.5 16t75.5 44v128h-194v111 h312v-281q-49 -61 -124 -96t-161 -35q-75 0 -143 27t-119 75.5t-79.5 115.5t-28.5 142z"/>
    <glyph glyph-name="gcommaaccent" unicode="ģ" horiz-adv-x="615" d="M258 552l52 145h136l-97 -145h-91zM150 254q0 -40 19 -76.5t55 -56t75 -19.5q65 0 109.5 43.5t44.5 108.5q0 64 -44.5 108t-109.5 44q-63 0 -106 -44t-43 -108zM31 254q0 53 19 101.5t53.5 84t81 55.5t98.5 20q61 0 104.5 -24t56.5 -60v73h120v-420q0 -65 -8.5 -113 t-28.5 -80.5t-48 -54.5q-34 -26 -81 -41t-97 -15q-141 0 -244 73l58 89q83 -55 173 -55q30 0 60 7.5t51 22.5q48 35 48 128v25q-17 -31 -61 -52.5t-103 -21.5q-52 0 -98.5 19.5t-81 54.5t-53.5 83t-19 101z"/>
    <glyph glyph-name="Hcircumflex" unicode="Ĥ" horiz-adv-x="739" d="M196 764l138 121h76l138 -121h-117l-59 58l-58 -58h-118zM77 0v697h125v-272h335v272h124v-697h-124v312h-335v-312h-125z"/>
    <glyph glyph-name="hcircumflex" unicode="ĥ" horiz-adv-x="554" d="M-64 759l138 121h76l138 -121h-117l-59 58l-58 -58h-118zM53 0v697h119v-263q17 36 56.5 58t90.5 22q87 0 135.5 -54.5t48.5 -147.5v-312h-119v295q0 37 -15.5 64.5t-39.5 37.5t-46 10q-23 0 -49 -11t-44 -40t-18 -66v-290h-119z"/>
    <glyph glyph-name="Hbar" unicode="Ħ" horiz-adv-x="743" d="M80 0v502h-54v98h54v97h124v-97h335v97h124v-97h53v-98h-53v-502h-124v312h-335v-312h-124zM204 425h335v77h-335v-77z"/>
    <glyph glyph-name="hbar" unicode="ħ" horiz-adv-x="554" d="M53 0v549h-41v94h41v54h119v-54h185v-94h-185v-115q17 36 56.5 58t90.5 22q87 0 135.5 -54.5t48.5 -147.5v-312h-119v295q0 37 -15.5 64.5t-39.5 37.5t-46 10q-23 0 -49 -11t-44 -40t-18 -66v-290h-119z"/>
    <glyph glyph-name="Itilde" unicode="Ĩ" horiz-adv-x="288" d="M32 753l-69 8q6 51 36.5 83t77.5 32q18 0 34.5 -5t48.5 -20t50 -15t29 9.5t16 31.5l69 -9q-7 -57 -35.5 -89t-79.5 -32q-32 0 -68.5 18t-48.5 20.5t-18 2.5q-35 0 -42 -35zM81 0v697h125v-697h-125z"/>
    <glyph glyph-name="itilde" unicode="ĩ" horiz-adv-x="255" d="M38 580l-68 9q4 35 20 63t37.5 38.5t40.5 10.5q15 0 30.5 -6t41 -21t36.5 -15q16 0 25.5 10t14.5 32l68 -9q-5 -40 -19.5 -68.5t-36.5 -39t-44 -10.5q-26 0 -61.5 20.5t-47.5 20.5q-30 0 -37 -35zM68 0v504h120v-504h-120z"/>
    <glyph glyph-name="Imacron" unicode="Ī" horiz-adv-x="288" d="M-4 761v85h296v-85h-296zM81 0v697h125v-697h-125z"/>
    <glyph glyph-name="imacron" unicode="ī" horiz-adv-x="235" d="M-12 583v85h258v-85h-258zM57 0v504h120v-504h-120z"/>
    <glyph glyph-name="Ibreve" unicode="Ĭ" horiz-adv-x="288" d="M143 749q-51 0 -89.5 23.5t-56.5 57t-22 61.5h92q9 -27 28.5 -42.5t47.5 -15.5q29 0 48.5 15.5t28.5 42.5h92q-4 -28 -22 -61.5t-57 -57t-90 -23.5zM81 0v697h125v-697h-125z"/>
    <glyph glyph-name="ibreve" unicode="ĭ" horiz-adv-x="243" d="M121 559q-24 0 -48.5 7t-47.5 26t-36 48.5t-15 57.5h91q4 -25 18 -39.5t38 -14.5t38.5 14.5t18.5 39.5h91q-2 -28 -15 -57.5t-36 -48.5t-48 -26t-49 -7zM62 0v504h119v-504h-119z"/>
    <glyph glyph-name="Iogonek" unicode="Į" horiz-adv-x="288" d="M81 0v697h125v-697q-18 -8 -37 -25.5t-28 -35t-9 -30.5q0 -19 14.5 -29t35.5 -10q27 0 58 13l-18 -79q-28 -14 -57 -14q-34 0 -61 14.5t-41.5 36.5t-14.5 50q0 33 22.5 61.5t55.5 47.5h-45z"/>
    <glyph glyph-name="iogonek" unicode="į" horiz-adv-x="226" d="M113 562q-29 0 -50.5 20.5t-21.5 50.5q0 29 21.5 50t50.5 21q28 0 49.5 -21t21.5 -50q0 -30 -21 -50.5t-50 -20.5zM53 0v504h120v-504q-38 -23 -56 -47.5t-18 -43.5t15 -29t35 -10q29 0 58 13l-16 -79q-28 -14 -57 -14q-34 0 -63 15.5t-42 38.5t-13 47q0 33 22 61.5 t54 47.5h-39z"/>
    <glyph glyph-name="Idotaccent" unicode="İ" horiz-adv-x="288" d="M143 751q-26 0 -45 18.5t-19 44.5q0 25 19.5 43.5t44.5 18.5q27 0 46 -18t19 -44t-19 -44.5t-46 -18.5zM81 0v697h125v-697h-125z"/>
    <glyph glyph-name="dotlessi" unicode="ı" horiz-adv-x="226" d="M53 0v504h120v-504h-120z"/>
    <glyph glyph-name="IJ" unicode="Ĳ" horiz-adv-x="511" d="M84 -1v112q47 -10 128 -10q49 0 73.5 23t24.5 94v479h124v-476q0 -80 -17 -128t-62 -76.5t-127 -28.5q-85 0 -144 11zM84 170v527h125v-527h-125z"/>
    <glyph glyph-name="ij" unicode="ĳ" horiz-adv-x="419" d="M310 564q-28 0 -48.5 20.5t-20.5 48.5t20.5 48.5t48.5 20.5t48.5 -20.5t20.5 -48.5t-20.5 -48.5t-48.5 -20.5zM111 564q-28 0 -49 20t-21 49t21 49t49 20t48.5 -20.5t20.5 -48.5t-20.5 -48.5t-48.5 -20.5zM55 -1v103q49 -12 114 -12q43 0 63 20.5t20 66.5v327h116v-341 q0 -86 -45 -129q-45 -48 -146 -48q-31 0 -66.5 3.5t-55.5 9.5zM53 160v344h115v-344h-115z"/>
    <glyph glyph-name="Jcircumflex" unicode="Ĵ" horiz-adv-x="343" d="M11 -4v113q24 -8 57 -8q39 0 60.5 23.5t21.5 89.5v483h125v-477q0 -65 -9.5 -106t-33 -70.5t-63.5 -42.5t-87 -13q-39 0 -71 8zM33 764l138 121h76l137 -121h-117l-59 58l-58 -58h-117z"/>
    <glyph glyph-name="jcircumflex" unicode="ĵ" horiz-adv-x="247" d="M71 -32v536h119v-547q0 -170 -166 -170q-35 0 -50 3v106l33 -2q33 0 48.5 17t15.5 57zM-22 566l115 121h76l115 -121h-111l-42 63l-42 -63h-111z"/>
    <glyph glyph-name="Kcommaaccent" unicode="Ķ" horiz-adv-x="668" d="M223 -193l51 145h137l-97 -145h-91zM77 0v697h125v-334l295 334h148l-271 -307l279 -390h-146l-217 301l-88 -97v-204h-125z"/>
    <glyph glyph-name="kcommaaccent" unicode="ķ" horiz-adv-x="516" d="M202 -48h136l-97 -145h-91zM53 0v697h119v-407l186 214h138l-197 -225l218 -279h-136l-159 203l-50 -56v-147h-119z"/>
    <glyph glyph-name="Lacute" unicode="Ĺ" horiz-adv-x="511" d="M90 745l51 145h137l-97 -145h-91zM77 0v697h125v-584h277v-113h-402z"/>
    <glyph glyph-name="lacute" unicode="ĺ" horiz-adv-x="226" d="M55 722l51 145h137l-98 -145h-90zM53 0v697h120v-697h-120z"/>
    <glyph glyph-name="Lcommaaccent" unicode="Ļ" horiz-adv-x="511" d="M218 -48h137l-97 -145h-91zM77 0v697h125v-584h277v-113h-402z"/>
    <glyph glyph-name="lcommaaccent" unicode="ļ" horiz-adv-x="226" d="M53 0v697h120v-697h-120zM52 -48h136l-97 -145h-90z"/>
    <glyph glyph-name="Lcaron" unicode="Ľ" horiz-adv-x="511" d="M266 552l51 145h137l-98 -145h-90zM77 0v697h125v-584h277v-113h-402z"/>
    <glyph glyph-name="lcaron" unicode="ľ" horiz-adv-x="377" d="M203 552l51 145h137l-97 -145h-91zM53 0v697h120v-697h-120z"/>
    <glyph glyph-name="Ldot" unicode="Ŀ" horiz-adv-x="511" d="M353 328q-27 0 -46 18.5t-19 44.5t19 44.5t46 18.5q25 0 44 -18.5t19 -44.5t-19 -44.5t-44 -18.5zM77 0v697h125v-584h277v-113h-402z"/>
    <glyph glyph-name="ldot" unicode="ŀ" horiz-adv-x="372" d="M53 0v697h120v-697h-120zM271 302q-26 0 -45.5 18.5t-19.5 44.5t19.5 44.5t45.5 18.5q25 0 44.5 -18.5t19.5 -44.5t-19 -44.5t-45 -18.5z"/>
    <glyph glyph-name="Lslash" unicode="Ł" horiz-adv-x="520" d="M87 0v255l-65 -34v116l65 34v326h124v-270l137 72v-116l-137 -72v-198h278v-113h-402z"/>
    <glyph glyph-name="lslash" unicode="ł" horiz-adv-x="268" d="M70 0v277l-68 -39v118l68 38v303h120v-241l86 48v-117l-86 -49v-338h-120z"/>
    <glyph glyph-name="Nacute" unicode="Ń" horiz-adv-x="754" d="M315 745l51 145h137l-98 -145h-90zM77 0v697h110l369 -484v484h121v-697h-102l-377 493v-493h-121z"/>
    <glyph glyph-name="nacute" unicode="ń" horiz-adv-x="564" d="M239 552l52 145h137l-97 -145h-92zM53 0v504h119v-72q17 36 58.5 59t94.5 23q90 0 140.5 -54.5t50.5 -147.5v-312h-120v295q0 51 -28.5 81.5t-78.5 30.5q-24 0 -51.5 -11t-46.5 -40t-19 -66v-290h-119z"/>
    <glyph glyph-name="Ncommaaccent" unicode="Ņ" horiz-adv-x="754" d="M281 -193l51 145h137l-97 -145h-91zM77 0v697h110l369 -484v484h121v-697h-102l-377 493v-493h-121z"/>
    <glyph glyph-name="ncommaaccent" unicode="ņ" horiz-adv-x="564" d="M225 -48h136l-96 -145h-91zM53 0v504h119v-72q17 36 58.5 59t94.5 23q90 0 140.5 -54.5t50.5 -147.5v-312h-120v295q0 51 -28.5 81.5t-78.5 30.5q-24 0 -51.5 -11t-46.5 -40t-19 -66v-290h-119z"/>
    <glyph glyph-name="Ncaron" unicode="Ň" horiz-adv-x="754" d="M335 769l-138 121h117l59 -58l58 58h118l-138 -121h-76zM77 0v697h110l369 -484v484h121v-697h-102l-377 493v-493h-121z"/>
    <glyph glyph-name="ncaron" unicode="ň" horiz-adv-x="564" d="M249 576l-137 121h117l58 -58l59 58h117l-137 -121h-77zM53 0v504h119v-72q17 36 58.5 59t94.5 23q90 0 140.5 -54.5t50.5 -147.5v-312h-120v295q0 51 -28.5 81.5t-78.5 30.5q-24 0 -51.5 -11t-46.5 -40t-19 -66v-290h-119z"/>
    <glyph glyph-name="Eng" unicode="Ŋ" horiz-adv-x="753" d="M77 0v697h111l368 -485v485h121v-671q0 -81 -17.5 -130t-59.5 -76.5t-116 -27.5q-36 0 -65 8v112q25 -7 58 -7q37 0 58 25.5t21 90.5v5l-358 468v-494h-121z"/>
    <glyph glyph-name="eng" unicode="ŋ" horiz-adv-x="556" d="M53 0v504h119v-75q21 40 60 62.5t90 22.5q87 0 136.5 -54.5t49.5 -147.5v-351q0 -93 -50 -138q-41 -36 -121 -36q-36 0 -54 3v106l38 -2q35 0 51.5 18.5t16.5 60.5v321q0 51 -28 82t-76 31q-22 0 -48.5 -11t-45.5 -40t-19 -67v-289h-119z"/>
    <glyph glyph-name="Omacron" unicode="Ō" horiz-adv-x="816" d="M258 762v85h308v-85h-308zM40 347q0 74 28.5 141t79 116.5t118.5 77t142 27.5q75 0 142.5 -27.5t118.5 -77t79.5 -116.5t28.5 -141t-28.5 -141t-79.5 -116t-118.5 -76.5t-142.5 -27.5q-74 0 -142 27.5t-118.5 76.5t-79 116t-28.5 141zM163 347q0 -51 18.5 -97t52 -79.5 t78.5 -52.5t96 -19q50 0 95.5 19t79 53t52 79.5t18.5 96.5t-18.5 96.5t-52 80t-79 53.5t-95.5 19t-95.5 -19t-79 -53t-52 -80t-18.5 -97z"/>
    <glyph glyph-name="omacron" unicode="ō" horiz-adv-x="612" d="M153 583v85h308v-85h-308zM31 252q0 55 21 104t59 85.5t88.5 57t106.5 20.5q26 0 60.5 -6.5t70 -25t68.5 -50.5t54.5 -81t21.5 -104q0 -26 -7 -60t-26 -68.5t-52.5 -66t-84 -52t-105.5 -20.5q-56 0 -106.5 20.5t-88.5 57t-59 85.5t-21 104zM150 252q0 -67 45 -112.5 t111 -45.5q24 0 50 8t49.5 27.5t40 50.5t16.5 72q0 32 -15 68.5t-53.5 63t-87.5 26.5q-66 0 -111 -45.5t-45 -112.5z"/>
    <glyph glyph-name="Obreve" unicode="Ŏ" horiz-adv-x="816" d="M411 749q-51 0 -89.5 23.5t-56.5 57t-22 61.5h92q18 -58 76 -58q29 0 48.5 15.5t28.5 42.5h91q-4 -28 -22 -61.5t-56.5 -57t-89.5 -23.5zM40 347q0 74 28.5 141t79 116.5t118.5 77t142 27.5q75 0 142.5 -27.5t118.5 -77t79.5 -116.5t28.5 -141t-28.5 -141t-79.5 -116 t-118.5 -76.5t-142.5 -27.5q-74 0 -142 27.5t-118.5 76.5t-79 116t-28.5 141zM163 347q0 -51 18.5 -97t52 -79.5t78.5 -52.5t96 -19q50 0 95.5 19t79 53t52 79.5t18.5 96.5t-18.5 96.5t-52 80t-79 53.5t-95.5 19t-95.5 -19t-79 -53t-52 -80t-18.5 -97z"/>
    <glyph glyph-name="obreve" unicode="ŏ" horiz-adv-x="612" d="M306 556q-42 0 -80.5 18.5t-61 52.5t-27.5 71h92q9 -27 28.5 -42.5t48.5 -15.5t48.5 15.5t28.5 42.5h91q-4 -28 -22 -61.5t-56.5 -57t-89.5 -23.5zM31 252q0 55 21 104t59 85.5t88.5 57t106.5 20.5q26 0 60.5 -6.5t70 -25t68.5 -50.5t54.5 -81t21.5 -104q0 -26 -7 -60 t-26 -68.5t-52.5 -66t-84 -52t-105.5 -20.5q-56 0 -106.5 20.5t-88.5 57t-59 85.5t-21 104zM150 252q0 -67 45 -112.5t111 -45.5q24 0 50 8t49.5 27.5t40 50.5t16.5 72q0 32 -15 68.5t-53.5 63t-87.5 26.5q-66 0 -111 -45.5t-45 -112.5z"/>
    <glyph glyph-name="Ohungarumlaut" unicode="Ő" horiz-adv-x="816" d="M452 745l68 145h129l-113 -145h-84zM281 745l68 145h129l-112 -145h-85zM40 347q0 74 28.5 141t79 116.5t118.5 77t142 27.5q75 0 142.5 -27.5t118.5 -77t79.5 -116.5t28.5 -141t-28.5 -141t-79.5 -116t-118.5 -76.5t-142.5 -27.5q-74 0 -142 27.5t-118.5 76.5t-79 116 t-28.5 141zM163 347q0 -51 18.5 -97t52 -79.5t78.5 -52.5t96 -19q50 0 95.5 19t79 53t52 79.5t18.5 96.5t-18.5 96.5t-52 80t-79 53.5t-95.5 19t-95.5 -19t-79 -53t-52 -80t-18.5 -97z"/>
    <glyph glyph-name="ohungarumlaut" unicode="ő" horiz-adv-x="612" d="M342 552l67 145h129l-112 -145h-84zM171 552l67 145h129l-112 -145h-84zM31 252q0 55 21 104t59 85.5t88.5 57t106.5 20.5q26 0 60.5 -6.5t70 -25t68.5 -50.5t54.5 -81t21.5 -104q0 -26 -7 -60t-26 -68.5t-52.5 -66t-84 -52t-105.5 -20.5q-56 0 -106.5 20.5t-88.5 57 t-59 85.5t-21 104zM150 252q0 -67 45 -112.5t111 -45.5q24 0 50 8t49.5 27.5t40 50.5t16.5 72q0 32 -15 68.5t-53.5 63t-87.5 26.5q-66 0 -111 -45.5t-45 -112.5z"/>
    <glyph glyph-name="OE" unicode="Œ" horiz-adv-x="1075" d="M40 348q0 74 28.5 141t79 116t118 76.5t141.5 27.5q76 0 138 -29.5t102 -81.5v99h372v-113h-249v-166h230v-113h-230v-192h256v-113h-379v100q-39 -53 -101.5 -82.5t-138.5 -29.5q-74 0 -141.5 27t-118 76.5t-79 116t-28.5 140.5zM165 348q0 -51 19 -97t52.5 -79.5 t79 -52.5t96.5 -19t96.5 19t79 53t52.5 79.5t19 96.5q0 37 -12.5 79t-47 84t-85.5 63.5t-102 21.5t-96.5 -19t-79.5 -53t-52.5 -79.5t-18.5 -96.5z"/>
    <glyph glyph-name="oe" unicode="œ" horiz-adv-x="995" d="M31 252q0 55 21 104t59 85.5t88.5 57t106.5 20.5q65 0 120 -29t88 -78q32 49 86.5 78t121.5 29q53 0 100 -20t81.5 -56.5t53.5 -85t19 -103.5l-1 -33h-403q3 -60 44.5 -94.5t109.5 -34.5q44 0 81.5 14.5t63.5 40.5l73 -73q-44 -44 -101.5 -66.5t-121.5 -22.5 q-69 0 -123.5 27t-84.5 76q-34 -48 -88 -75.5t-119 -27.5q-56 0 -106.5 20.5t-88.5 57t-59 85.5t-21 104zM576 306h278q-4 23 -19.5 49.5t-48 44.5t-70.5 18q-25 0 -55 -10.5t-54 -38.5t-31 -63zM150 252q0 -67 45 -112.5t111 -45.5q24 0 50 8t49.5 27.5t40 50.5t16.5 72 q0 32 -15 68.5t-53.5 63t-87.5 26.5q-66 0 -111 -45.5t-45 -112.5z"/>
    <glyph glyph-name="Racute" unicode="Ŕ" horiz-adv-x="636" d="M246 745l51 145h136l-97 -145h-90zM77 0v697h271q57 0 111.5 -28.5t84.5 -82t30 -110.5q0 -49 -20.5 -93t-50.5 -69t-56 -36l169 -278h-141l-149 248h-2h-122v-248h-125zM202 360h133q51 0 83 32t32 82q0 22 -10 48t-36 44t-59 18h-143v-224z"/>
    <glyph glyph-name="racute" unicode="ŕ" horiz-adv-x="390" d="M126 552l52 145h136l-97 -145h-91zM53 0v504h119v-75q18 39 58 62t92 23q21 0 36 -3v-116q-23 5 -50 5q-62 0 -99 -36.5t-37 -98.5v-265h-119z"/>
    <glyph glyph-name="Rcommaaccent" unicode="Ŗ" horiz-adv-x="636" d="M271 -48h136l-97 -145h-90zM77 0v697h271q57 0 111.5 -28.5t84.5 -82t30 -110.5q0 -49 -20.5 -93t-50.5 -69t-56 -36l169 -278h-141l-149 248h-2h-122v-248h-125zM202 360h133q51 0 83 32t32 82q0 22 -10 48t-36 44t-59 18h-143v-224z"/>
    <glyph glyph-name="rcommaaccent" unicode="ŗ" horiz-adv-x="390" d="M53 -48h136l-97 -145h-91zM53 0v504h119v-75q18 39 58 62t92 23q21 0 36 -3v-116q-23 5 -50 5q-62 0 -99 -36.5t-37 -98.5v-265h-119z"/>
    <glyph glyph-name="Rcaron" unicode="Ř" horiz-adv-x="636" d="M268 769l-137 121h117l58 -58l59 58h117l-137 -121h-77zM77 0v697h271q57 0 111.5 -28.5t84.5 -82t30 -110.5q0 -49 -20.5 -93t-50.5 -69t-56 -36l169 -278h-141l-149 248h-2h-122v-248h-125zM202 360h133q51 0 83 32t32 82q0 22 -10 48t-36 44t-59 18h-143v-224z"/>
    <glyph glyph-name="rcaron" unicode="ř" horiz-adv-x="390" d="M160 576l-138 121h118l58 -58l58 58h118l-138 -121h-76zM53 0v504h119v-75q18 39 58 62t92 23q21 0 36 -3v-116q-23 5 -50 5q-62 0 -99 -36.5t-37 -98.5v-265h-119z"/>
    <glyph glyph-name="Sacute" unicode="Ś" horiz-adv-x="568" d="M232 745l52 145h136l-97 -145h-91zM21 147l94 59q25 -48 70 -77t105 -29q34 0 62 10.5t42 34t14 46.5q0 33 -24.5 58.5t-117.5 60.5q-73 28 -114 54t-63.5 64.5t-22.5 92.5q0 31 11.5 63.5t38 60t69 46t97.5 18.5q74 0 128 -31t87 -82l-89 -61q-40 62 -124 62 q-19 0 -41.5 -7t-38 -25.5t-15.5 -41.5q0 -17 6.5 -32.5t25.5 -28.5t67 -32t59 -24q61 -25 100.5 -51.5t62.5 -64t23 -96.5q0 -44 -15.5 -82t-46 -65.5t-77 -43t-105.5 -15.5q-97 0 -166 42.5t-102 116.5z"/>
    <glyph glyph-name="sacute" unicode="ś" horiz-adv-x="450" d="M162 552l52 145h136l-97 -145h-91zM14 89l77 65q17 -27 52 -45t81 -18q23 0 45 6t33.5 19.5t11.5 29.5q0 18 -16.5 31.5t-64 29.5t-57.5 19q-44 16 -72.5 37.5t-40 48.5t-11.5 56q0 44 21.5 77t61.5 53.5t95 20.5t96 -20t67 -54l-67 -71q-33 42 -98 42q-28 0 -44.5 -12.5 t-16.5 -32.5q0 -13 10 -25t57.5 -28.5t59.5 -20.5q69 -25 102 -61t33 -89q0 -51 -26 -86.5t-71.5 -54.5t-109.5 -19q-75 0 -129.5 28t-78.5 74z"/>
    <glyph glyph-name="Scircumflex" unicode="Ŝ" horiz-adv-x="568" d="M118 764l138 121h75l138 -121h-117l-59 58l-58 -58h-117zM21 147l94 59q25 -48 70 -77t105 -29q34 0 62 10.5t42 34t14 46.5q0 33 -24.5 58.5t-117.5 60.5q-73 28 -114 54t-63.5 64.5t-22.5 92.5q0 31 11.5 63.5t38 60t69 46t97.5 18.5q74 0 128 -31t87 -82l-89 -61 q-40 62 -124 62q-19 0 -41.5 -7t-38 -25.5t-15.5 -41.5q0 -17 6.5 -32.5t25.5 -28.5t67 -32t59 -24q61 -25 100.5 -51.5t62.5 -64t23 -96.5q0 -44 -15.5 -82t-46 -65.5t-77 -43t-105.5 -15.5q-97 0 -166 42.5t-102 116.5z"/>
    <glyph glyph-name="scircumflex" unicode="ŝ" horiz-adv-x="450" d="M59 566l138 121h75l138 -121h-117l-59 58l-58 -58h-117zM14 89l77 65q17 -27 52 -45t81 -18q23 0 45 6t33.5 19.5t11.5 29.5q0 18 -16.5 31.5t-64 29.5t-57.5 19q-44 16 -72.5 37.5t-40 48.5t-11.5 56q0 44 21.5 77t61.5 53.5t95 20.5t96 -20t67 -54l-67 -71 q-33 42 -98 42q-28 0 -44.5 -12.5t-16.5 -32.5q0 -13 10 -25t57.5 -28.5t59.5 -20.5q69 -25 102 -61t33 -89q0 -51 -26 -86.5t-71.5 -54.5t-109.5 -19q-75 0 -129.5 28t-78.5 74z"/>
    <glyph glyph-name="Scedilla" unicode="Ş" horiz-adv-x="568" d="M21 147l94 59q25 -48 70 -77t105 -29q34 0 62 10.5t42 34t14 46.5q0 33 -24.5 58.5t-117.5 60.5q-73 28 -114 54t-63.5 64.5t-22.5 92.5q0 31 11.5 63.5t38 60t69 46t97.5 18.5q74 0 128 -31t87 -82l-89 -61q-40 62 -124 62q-19 0 -41.5 -7t-38 -25.5t-15.5 -41.5 q0 -17 6.5 -32.5t25.5 -28.5t67 -32t59 -24q61 -25 100.5 -51.5t62.5 -64t23 -96.5q0 -42 -14 -78.5t-42 -64t-70 -43.5t-96 -19l-15 -35q27 0 46.5 -20.5t19.5 -52.5q0 -21 -10 -43t-38 -35t-66 -13q-22 0 -47.5 7.5t-38.5 17.5l26 53q26 -15 50 -15q17 0 28 9t11 24 q0 16 -12 27t-52 11l28 67q-79 9 -135.5 50.5t-84.5 105.5z"/>
    <glyph glyph-name="scedilla" unicode="ş" horiz-adv-x="450" d="M14 89l77 65q17 -27 52 -45t81 -18q23 0 45 6t33.5 19.5t11.5 29.5q0 18 -16.5 31.5t-64 29.5t-57.5 19q-44 16 -72.5 37.5t-40 48.5t-11.5 56q0 44 21.5 77t61.5 53.5t95 20.5t96 -20t67 -54l-67 -71q-33 42 -98 42q-28 0 -44.5 -12.5t-16.5 -32.5q0 -13 10 -25 t57.5 -28.5t59.5 -20.5q69 -25 102 -61t33 -89q0 -63 -43 -106.5t-127 -51.5l-16 -35q27 0 46.5 -20.5t19.5 -52.5q0 -21 -10 -43t-38 -35t-66 -13q-22 0 -47.5 7.5t-38.5 17.5l26 53q26 -15 50 -15q17 0 28 9t11 24q0 16 -12 27t-52 11l27 65q-62 6 -107 33t-66 67z"/>
    <glyph glyph-name="Scaron" unicode="Š" horiz-adv-x="568" d="M258 769l-138 121h117l58 -58l59 58h118l-138 -121h-76zM21 147l94 59q25 -48 70 -77t105 -29q34 0 62 10.5t42 34t14 46.5q0 33 -24.5 58.5t-117.5 60.5q-73 28 -114 54t-63.5 64.5t-22.5 92.5q0 31 11.5 63.5t38 60t69 46t97.5 18.5q74 0 128 -31t87 -82l-89 -61 q-40 62 -124 62q-19 0 -41.5 -7t-38 -25.5t-15.5 -41.5q0 -17 6.5 -32.5t25.5 -28.5t67 -32t59 -24q61 -25 100.5 -51.5t62.5 -64t23 -96.5q0 -44 -15.5 -82t-46 -65.5t-77 -43t-105.5 -15.5q-97 0 -166 42.5t-102 116.5z"/>
    <glyph glyph-name="scaron" unicode="š" horiz-adv-x="450" d="M195 576l-138 121h118l58 -58l58 58h118l-138 -121h-76zM14 89l77 65q17 -27 52 -45t81 -18q23 0 45 6t33.5 19.5t11.5 29.5q0 18 -16.5 31.5t-64 29.5t-57.5 19q-44 16 -72.5 37.5t-40 48.5t-11.5 56q0 44 21.5 77t61.5 53.5t95 20.5t96 -20t67 -54l-67 -71 q-33 42 -98 42q-28 0 -44.5 -12.5t-16.5 -32.5q0 -13 10 -25t57.5 -28.5t59.5 -20.5q69 -25 102 -61t33 -89q0 -51 -26 -86.5t-71.5 -54.5t-109.5 -19q-75 0 -129.5 28t-78.5 74z"/>
    <glyph glyph-name="Tcommaaccent" unicode="Ţ" horiz-adv-x="540" d="M203 -48h137l-98 -145h-90zM209 0v584h-189v113h503v-113h-189v-584h-125z"/>
    <glyph glyph-name="tcommaaccent" unicode="ţ" horiz-adv-x="336" d="M86 -48h136l-97 -145h-91zM87 0v395h-65v109h65v193h120v-193h109v-109h-109v-395h-120z"/>
    <glyph glyph-name="Tcaron" unicode="Ť" horiz-adv-x="540" d="M232 769l-138 121h117l58 -58l59 58h118l-138 -121h-76zM209 0v584h-189v113h503v-113h-189v-584h-125z"/>
    <glyph glyph-name="tcaron" unicode="ť" horiz-adv-x="404" d="M238 552l51 145h133l-93 -145h-91zM87 0v395h-65v109h65v193h120v-193h109v-109h-109v-395h-120z"/>
    <glyph glyph-name="Tbar" unicode="Ŧ" horiz-adv-x="540" d="M209 0v342h-117v103h117v139h-189v113h503v-113h-189v-139h116v-103h-116v-342h-125z"/>
    <glyph glyph-name="tbar" unicode="ŧ" horiz-adv-x="336" d="M87 0v246h-65v97h65v64h-65v97h65v193h120v-193h105v-97h-105v-64h105v-97h-105v-246h-120z"/>
    <glyph glyph-name="Utilde" unicode="Ũ" horiz-adv-x="708" d="M175 761q6 51 36 83t77 32q32 0 74.5 -20t62.5 -20q18 0 29 9.5t16 31.5l69 -9q-7 -57 -35.5 -89t-79.5 -32q-33 0 -75.5 20.5t-62.5 20.5q-34 0 -42 -35zM71 267v430h125v-417q0 -45 14 -87t51.5 -66.5t92.5 -24.5q73 0 115 44t42 134v417h125v-430q0 -67 -21.5 -120 t-60 -88t-90 -52.5t-110.5 -17.5t-111 17.5t-90.5 52.5t-60 88t-21.5 120z"/>
    <glyph glyph-name="utilde" unicode="ũ" horiz-adv-x="556" d="M96 588q5 36 23.5 64t43.5 38.5t47 10.5q19 0 36 -5.5t49.5 -21t50.5 -15.5q35 0 45 42l70 -9q-8 -56 -36.5 -88t-80.5 -32q-32 0 -74.5 21t-62.5 21q-34 0 -42 -35zM47 200v304h121v-294q0 -56 30.5 -84.5t79.5 -28.5t79.5 28.5t30.5 85.5v293h121v-301q0 -39 -12 -78 t-41 -69.5t-74 -49.5t-105 -19q-72 0 -123.5 27.5t-79 74t-27.5 111.5z"/>
    <glyph glyph-name="Umacron" unicode="Ū" horiz-adv-x="708" d="M200 762v85h308v-85h-308zM71 267v430h125v-417q0 -45 14 -87t51.5 -66.5t92.5 -24.5q73 0 115 44t42 134v417h125v-430q0 -67 -21.5 -120t-60 -88t-90 -52.5t-110.5 -17.5t-111 17.5t-90.5 52.5t-60 88t-21.5 120z"/>
    <glyph glyph-name="umacron" unicode="ū" horiz-adv-x="556" d="M124 583v85h308v-85h-308zM47 200v304h121v-294q0 -56 30.5 -84.5t79.5 -28.5t79.5 28.5t30.5 85.5v293h121v-301q0 -39 -12 -78t-41 -69.5t-74 -49.5t-105 -19q-72 0 -123.5 27.5t-79 74t-27.5 111.5z"/>
    <glyph glyph-name="Ubreve" unicode="Ŭ" horiz-adv-x="708" d="M354 749q-34 0 -71.5 14t-64.5 50t-33 78h92q9 -27 28.5 -42.5t48.5 -15.5q56 0 77 58h91q-4 -28 -22 -61.5t-56.5 -57t-89.5 -23.5zM71 267v430h125v-417q0 -45 14 -87t51.5 -66.5t92.5 -24.5q73 0 115 44t42 134v417h125v-430q0 -67 -21.5 -120t-60 -88t-90 -52.5 t-110.5 -17.5t-111 17.5t-90.5 52.5t-60 88t-21.5 120z"/>
    <glyph glyph-name="ubreve" unicode="ŭ" horiz-adv-x="556" d="M279 556q-42 0 -80.5 18.5t-61 52.5t-27.5 71h92q9 -27 28.5 -42.5t48.5 -15.5q57 0 76 58h92q-4 -28 -22 -61.5t-56.5 -57t-89.5 -23.5zM47 200v304h121v-294q0 -56 30.5 -84.5t79.5 -28.5t79.5 28.5t30.5 85.5v293h121v-301q0 -39 -12 -78t-41 -69.5t-74 -49.5 t-105 -19q-72 0 -123.5 27.5t-79 74t-27.5 111.5z"/>
    <glyph glyph-name="Uring" unicode="Ů" horiz-adv-x="708" d="M354 711q-21 0 -47.5 10.5t-46 38t-19.5 59.5t19.5 59.5t46 38t47.5 10.5q46 0 79 -31.5t33 -76.5q0 -21 -11 -46t-39.5 -43.5t-61.5 -18.5zM354 777q17 0 29.5 12.5t12.5 29.5q0 16 -12.5 28.5t-29.5 12.5q-16 0 -29 -12.5t-13 -28.5q0 -17 13 -29.5t29 -12.5zM71 267 v430h125v-417q0 -45 14 -87t51.5 -66.5t92.5 -24.5q73 0 115 44t42 134v417h125v-430q0 -67 -21.5 -120t-60 -88t-90 -52.5t-110.5 -17.5t-111 17.5t-90.5 52.5t-60 88t-21.5 120z"/>
    <glyph glyph-name="uring" unicode="ů" horiz-adv-x="556" d="M279 528q-22 0 -48.5 11t-45.5 38t-19 59q0 20 11 45.5t39.5 44.5t62.5 19q21 0 47 -11t45 -38.5t19 -59.5q0 -20 -11 -45.5t-39 -44t-61 -18.5zM279 595q16 0 28.5 12.5t12.5 28.5q0 17 -12.5 29t-28.5 12q-17 0 -29.5 -12t-12.5 -29q0 -16 12.5 -28.5t29.5 -12.5z M47 200v304h121v-294q0 -56 30.5 -84.5t79.5 -28.5t79.5 28.5t30.5 85.5v293h121v-301q0 -39 -12 -78t-41 -69.5t-74 -49.5t-105 -19q-72 0 -123.5 27.5t-79 74t-27.5 111.5z"/>
    <glyph glyph-name="Uhungarumlaut" unicode="Ű" horiz-adv-x="708" d="M392 745l67 145h130l-113 -145h-84zM221 745l67 145h130l-112 -145h-85zM71 267v430h125v-417q0 -45 14 -87t51.5 -66.5t92.5 -24.5q73 0 115 44t42 134v417h125v-430q0 -67 -21.5 -120t-60 -88t-90 -52.5t-110.5 -17.5t-111 17.5t-90.5 52.5t-60 88t-21.5 120z"/>
    <glyph glyph-name="uhungarumlaut" unicode="ű" horiz-adv-x="556" d="M311 552l67 145h130l-112 -145h-85zM140 552l68 145h129l-112 -145h-85zM47 200v304h121v-294q0 -56 30.5 -84.5t79.5 -28.5t79.5 28.5t30.5 85.5v293h121v-301q0 -39 -12 -78t-41 -69.5t-74 -49.5t-105 -19q-72 0 -123.5 27.5t-79 74t-27.5 111.5z"/>
    <glyph glyph-name="Uogonek" unicode="Ų" horiz-adv-x="708" d="M636 267q0 -77 -27.5 -134t-76.5 -93q-3 -2 -10 -6.5t-46.5 -28t-56 -46t-16.5 -43.5q0 -20 14 -30.5t36 -10.5q29 0 58 13l-16 -80q-28 -14 -57 -14q-47 0 -82.5 28.5t-35.5 73.5q0 27 16 51.5t40 42.5l-22 -1q-59 0 -111 17.5t-90.5 52.5t-60 88t-21.5 120v430h125 v-417q0 -45 14 -87t51.5 -66.5t92.5 -24.5q73 0 115 44t42 134v417h125v-430z"/>
    <glyph glyph-name="uogonek" unicode="ų" horiz-adv-x="556" d="M47 200v304h121v-294q0 -56 30.5 -84.5t79.5 -28.5t79.5 28.5t30.5 85.5v293h121v-300q0 -129 -121 -203q-47 -29 -65 -51t-18 -42q0 -14 11.5 -26t38.5 -12q31 0 58 12l-17 -79q-28 -14 -57 -14q-46 0 -82 28.5t-36 72.5q0 29 17.5 55t42.5 42h-8q-45 0 -86.5 13.5 t-72.5 40t-49 67t-18 92.5z"/>
    <glyph glyph-name="Wcircumflex" unicode="Ŵ" horiz-adv-x="948" d="M299 764l137 121h76l138 -121h-117l-59 58l-58 -58h-117zM228 0l-208 697h122l141 -468l144 468h94l144 -468l142 468h121l-208 -697h-99l-147 468l-148 -468h-98z"/>
    <glyph glyph-name="wcircumflex" unicode="ŵ" horiz-adv-x="748" d="M198 566l138 121h76l137 -121h-117l-58 58l-59 -58h-117zM176 0l-168 504h113l105 -314l102 314h91l102 -314l105 314h114l-169 -504h-93l-104 319l-104 -319h-94z"/>
    <glyph glyph-name="Ycircumflex" unicode="Ŷ" horiz-adv-x="662" d="M156 764l138 121h76l137 -121h-117l-58 58l-59 -58h-117zM269 0v270l-251 427h135l179 -307l178 307h134l-251 -427v-270h-124z"/>
    <glyph glyph-name="ycircumflex" unicode="ŷ" horiz-adv-x="563" d="M104 566l138 121h75l138 -121h-117l-59 58l-58 -58h-117zM216 -7l-207 511h123l147 -368l151 368h123l-296 -698h-122z"/>
    <glyph glyph-name="Ydieresis" unicode="Ÿ" horiz-adv-x="662" d="M434 739q-25 0 -44 18t-19 44q0 25 19 43.5t44 18.5t44.5 -18.5t19.5 -43.5t-19.5 -43.5t-44.5 -18.5zM227 739q-26 0 -45 18t-19 44q0 25 19 43.5t45 18.5q25 0 44 -18t19 -44t-19 -44t-44 -18zM269 0v270l-251 427h135l179 -307l178 307h134l-251 -427v-270h-124z"/>
    <glyph glyph-name="Zacute" unicode="Ź" horiz-adv-x="642" d="M279 745l52 145h136l-97 -145h-91zM39 0v82l393 502h-352v113h516v-91l-387 -493h394v-113h-564z"/>
    <glyph glyph-name="zacute" unicode="ź" horiz-adv-x="520" d="M209 552l52 145h136l-97 -145h-91zM21 0v74l287 323h-257v107h424v-83l-276 -314h288v-107h-466z"/>
    <glyph glyph-name="Zdotaccent" unicode="Ż" horiz-adv-x="642" d="M347 751q-26 0 -45.5 18.5t-19.5 44.5t19.5 44t45.5 18q25 0 44.5 -18.5t19.5 -43.5q0 -26 -19 -44.5t-45 -18.5zM39 0v82l393 502h-352v113h516v-91l-387 -493h394v-113h-564z"/>
    <glyph glyph-name="zdotaccent" unicode="ż" horiz-adv-x="520" d="M277 567q-26 0 -45 18.5t-19 44.5t19 44.5t45 18.5t45 -18.5t19 -44.5t-19 -44.5t-45 -18.5zM21 0v74l287 323h-257v107h424v-83l-276 -314h288v-107h-466z"/>
    <glyph glyph-name="Zcaron" unicode="Ž" horiz-adv-x="642" d="M305 769l-137 121h117l58 -58l59 58h117l-137 -121h-77zM39 0v82l393 502h-352v113h516v-91l-387 -493h394v-113h-564z"/>
    <glyph glyph-name="zcaron" unicode="ž" horiz-adv-x="520" d="M236 576l-137 121h117l58 -58l59 58h117l-137 -121h-77zM21 0v74l287 323h-257v107h424v-83l-276 -314h288v-107h-466z"/>
    <glyph glyph-name="florin" unicode="ƒ" horiz-adv-x="424" d="M14 -101l98 451h-73l21 97h73l15 68q23 104 76.5 151t146.5 47q38 0 65 -7l-23 -107q-27 4 -56 4q-39 0 -60 -21t-30 -62l-16 -73h99l-21 -97h-98l-97 -451h-120z"/>
    <glyph glyph-name="Aringacute" unicode="Ǻ" horiz-adv-x="727" d="M327 907l51 145h137l-97 -145h-91zM23 0l279 661q-22 13 -36 36.5t-14 50.5q0 20 11.5 45.5t40 44t62.5 18.5q21 0 46.5 -11t44.5 -38t19 -59q0 -28 -14 -52t-37 -37l279 -659h-133l-58 139h-300l-58 -139h-132zM366 706q16 0 28 12.5t12 29.5q0 16 -12 28.5t-28 12.5 q-17 0 -30 -12.5t-13 -28.5q0 -17 13 -29.5t30 -12.5zM251 242h223l-111 270z"/>
    <glyph glyph-name="aringacute" unicode="ǻ" horiz-adv-x="615" d="M271 801l51 145h137l-97 -145h-91zM318 551q-34 0 -62.5 18.5t-40 43.5t-11.5 46t11.5 46t40 43.5t62.5 18.5q45 0 78 -31.5t33 -76.5q0 -21 -11 -46t-39 -43.5t-61 -18.5zM318 618q16 0 28 12.5t12 28.5q0 17 -12 29.5t-28 12.5q-17 0 -30 -12.5t-13 -29.5 q0 -16 13 -28.5t30 -12.5zM31 252q0 54 19 102.5t53.5 84.5t81 56t98.5 20q61 0 104.5 -24t56.5 -60v73h120v-504h-120v73q-13 -36 -56.5 -60t-104.5 -24q-52 0 -98.5 20t-81 56t-53.5 84.5t-19 102.5zM150 252q0 -24 7.5 -50t25.5 -49t47.5 -39t68.5 -16q23 0 49.5 8 t49.5 26.5t39 49t16 70.5q0 24 -8 50t-26.5 49t-49 39t-70.5 16q-23 0 -48 -8t-47.5 -26.5t-38 -49t-15.5 -70.5z"/>
    <glyph glyph-name="AEacute" unicode="Ǽ" horiz-adv-x="919" d="M494 745l51 145h137l-98 -145h-90zM-28 0l550 697h341v-113h-249v-166h230v-113h-230v-192h256v-113h-378v139h-266l-109 -139h-145zM307 242h185v239z"/>
    <glyph glyph-name="aeacute" unicode="ǽ" horiz-adv-x="878" d="M388 552l51 145h137l-97 -145h-91zM32 141q0 75 51 119t148 44h50q24 0 45.5 4.5t31 16t9.5 29.5q0 19 -11.5 34t-35.5 21.5t-50 6.5q-31 0 -67 -13.5t-68 -51.5l-72 61q16 24 44.5 49t71.5 40.5t90 15.5q44 0 82 -12.5t58.5 -31.5t28.5 -36q32 38 76.5 59t96.5 21 q49 0 93.5 -20t77 -55.5t50.5 -84t18 -103.5l-2 -32h-375q3 -60 42 -96t104 -36q31 0 62.5 10.5t67.5 47.5l73 -70q-46 -49 -96.5 -70t-108.5 -21q-59 0 -107.5 21.5t-80.5 61.5q-61 -84 -209 -84q-88 0 -138 42.5t-50 112.5zM148 152q0 -61 86 -61q62 0 97.5 24.5 t35.5 65.5v46q-16 -9 -51 -10l-60 -2q-37 -2 -62.5 -9t-35.5 -22t-10 -32zM477 308h252q-3 22 -16 48t-41 44t-61 18q-24 0 -53 -10.5t-52 -38t-29 -61.5z"/>
    <glyph glyph-name="Oslashacute" unicode="Ǿ" horiz-adv-x="816" d="M369 745l51 145h136l-97 -145h-90zM95 13l56 74q-52 48 -81.5 116t-29.5 144q0 74 28.5 141t79 116.5t118.5 77t142 27.5q95 0 183 -47l61 80l85 -64l-61 -80q47 -49 74 -114.5t27 -136.5q0 -74 -28.5 -141t-79.5 -116t-118.5 -76.5t-142.5 -27.5q-47 0 -91.5 11.5 t-79.5 28.5l-59 -78zM225 181l295 388q-24 12 -54 19.5t-58 7.5q-50 0 -95.5 -19t-79 -53t-52 -80t-18.5 -97q0 -47 16.5 -90.5t45.5 -75.5zM309 120q45 -21 99 -21q50 0 95.5 19t79 53t52 79.5t18.5 96.5q0 32 -11 73.5t-42 80.5z"/>
    <glyph glyph-name="oslashacute" unicode="ǿ" horiz-adv-x="612" d="M268 552l52 145h136l-97 -145h-91zM68 6l42 56q-37 36 -58 85.5t-21 104.5t21 104t59 85.5t88.5 57t106.5 20.5q31 0 63.5 -7.5t58.5 -20.5l40 54l73 -53l-40 -51q38 -36 59 -85t21 -104q0 -26 -7 -60t-26 -68.5t-52.5 -66t-84 -52t-105.5 -20.5q-30 0 -63 7.5t-59 19.5 l-44 -59zM183 156l176 240q-24 13 -53 13q-67 0 -112 -45.5t-45 -111.5q0 -26 9.5 -52t24.5 -44zM253 107q23 -12 53 -12q66 0 111.5 45.5t45.5 111.5q0 25 -9 51t-24 44z"/>
    <glyph glyph-name="Scommaaccent" unicode="Ș" horiz-adv-x="568" d="M167 -193l52 145h136l-97 -145h-91zM21 147l94 59q25 -48 70 -77t105 -29q34 0 62 10.5t42 34t14 46.5q0 33 -24.5 58.5t-117.5 60.5q-73 28 -114 54t-63.5 64.5t-22.5 92.5q0 31 11.5 63.5t38 60t69 46t97.5 18.5q74 0 128 -31t87 -82l-89 -61q-40 62 -124 62 q-19 0 -41.5 -7t-38 -25.5t-15.5 -41.5q0 -17 6.5 -32.5t25.5 -28.5t67 -32t59 -24q61 -25 100.5 -51.5t62.5 -64t23 -96.5q0 -44 -15.5 -82t-46 -65.5t-77 -43t-105.5 -15.5q-97 0 -166 42.5t-102 116.5z"/>
    <glyph glyph-name="scommaaccent" unicode="ș" horiz-adv-x="450" d="M144 -48h136l-97 -145h-91zM14 89l77 65q17 -27 52 -45t81 -18q23 0 45 6t33.5 19.5t11.5 29.5q0 18 -16.5 31.5t-64 29.5t-57.5 19q-44 16 -72.5 37.5t-40 48.5t-11.5 56q0 44 21.5 77t61.5 53.5t95 20.5t96 -20t67 -54l-67 -71q-33 42 -98 42q-28 0 -44.5 -12.5 t-16.5 -32.5q0 -13 10 -25t57.5 -28.5t59.5 -20.5q69 -25 102 -61t33 -89q0 -51 -26 -86.5t-71.5 -54.5t-109.5 -19q-75 0 -129.5 28t-78.5 74z"/>
    <glyph glyph-name="circumflex" unicode="ˆ" horiz-adv-x="569" d="M104 566l135 121h91l136 -121h-117l-65 63l-63 -63h-117z"/>
    <glyph glyph-name="caron" unicode="ˇ" horiz-adv-x="569" d="M239 579l-136 121h117l64 -62l64 62h117l-135 -121h-91z"/>
    <glyph glyph-name="breve" unicode="˘" horiz-adv-x="567" d="M283 559q-31 0 -65 13t-60.5 47.5t-32.5 77.5h90q16 -53 68 -53q51 0 69 53h89q-8 -59 -51.5 -98.5t-106.5 -39.5z"/>
    <glyph glyph-name="dotaccent" unicode="˙" horiz-adv-x="519" d="M260 567q-26 0 -45.5 18.5t-19.5 44.5t19.5 44.5t45.5 18.5t45.5 -18.5t19.5 -44.5t-19.5 -44.5t-45.5 -18.5z"/>
    <glyph glyph-name="ring" unicode="˚" horiz-adv-x="350" d="M175 528q-22 0 -48.5 11t-46 38t-19.5 59q0 20 11.5 45.5t40 44.5t62.5 19q21 0 46.5 -11t44.5 -38.5t19 -59.5q0 -20 -11 -45.5t-38.5 -44t-60.5 -18.5zM175 595q16 0 28 12.5t12 28.5q0 17 -12 29t-28 12q-17 0 -30 -12t-13 -29q0 -16 13 -28.5t30 -12.5z"/>
    <glyph glyph-name="ogonek" unicode="˛" horiz-adv-x="519" d="M159 -109q0 25 17 54t58 55h80q-37 -24 -54.5 -48t-17.5 -43t14.5 -29t35.5 -10q29 0 58 13l-17 -79q-28 -14 -57 -14q-34 0 -61 14.5t-41.5 36.5t-14.5 50z"/>
    <glyph glyph-name="tilde" unicode="˜" horiz-adv-x="552" d="M94 601q6 50 36.5 81.5t77.5 31.5q32 0 68.5 -18.5t49 -21t18.5 -2.5q35 0 45 42l69 -9q-7 -56 -35.5 -87.5t-79.5 -31.5q-33 0 -75.5 20.5t-62.5 20.5q-34 0 -42 -35z"/>
    <glyph glyph-name="hungarumlaut" unicode="˝" horiz-adv-x="554" d="M286 552l67 145h130l-112 -145h-85zM115 552l67 145h130l-112 -145h-85z"/>
    <glyph glyph-name="pi" unicode="π" horiz-adv-x="604" d="M117 0q41 92 57 180t16 215h-18q-22 0 -39.5 -13t-26.5 -36l-86 48q20 49 65 79.5t100 30.5h417l-27 -109h-58v-245q0 -20 7.5 -32.5t40.5 -12.5v-104q-20 -5 -51 -5q-117 0 -117 142v257h-82q-8 -297 -71 -395h-127z"/>
    <glyph glyph-name="Wgrave" unicode="Ẁ" horiz-adv-x="948" d="M459 745l-97 145h136l52 -145h-91zM228 0l-208 697h122l141 -468l144 468h94l144 -468l142 468h121l-208 -697h-99l-147 468l-148 -468h-98z"/>
    <glyph glyph-name="wgrave" unicode="ẁ" horiz-adv-x="748" d="M354 552l-97 145h137l51 -145h-91zM176 0l-168 504h113l105 -314l102 314h91l102 -314l105 314h114l-169 -504h-93l-104 319l-104 -319h-94z"/>
    <glyph glyph-name="Wacute" unicode="Ẃ" horiz-adv-x="948" d="M404 745l52 145h136l-97 -145h-91zM228 0l-208 697h122l141 -468l144 468h94l144 -468l142 468h121l-208 -697h-99l-147 468l-148 -468h-98z"/>
    <glyph glyph-name="wacute" unicode="ẃ" horiz-adv-x="748" d="M302 552l51 145h136l-96 -145h-91zM176 0l-168 504h113l105 -314l102 314h91l102 -314l105 314h114l-169 -504h-93l-104 319l-104 -319h-94z"/>
    <glyph glyph-name="Wdieresis" unicode="Ẅ" horiz-adv-x="948" d="M578 740q-25 0 -44 18t-19 43q0 26 19 44t44 18t44.5 -18.5t19.5 -43.5t-19.5 -43t-44.5 -18zM371 740q-26 0 -45 18t-19 43q0 26 19 44t45 18q25 0 44 -18t19 -44q0 -25 -19 -43t-44 -18zM228 0l-208 697h122l141 -468l144 468h94l144 -468l142 468h121l-208 -697h-99 l-147 468l-148 -468h-98z"/>
    <glyph glyph-name="wdieresis" unicode="ẅ" horiz-adv-x="748" d="M478 567q-26 0 -45 18t-19 44t19 44t45 18q25 0 44 -18t19 -44t-19 -44t-44 -18zM270 567q-25 0 -44 18t-19 44t19 44t44 18t44 -18t19 -44t-19 -44t-44 -18zM176 0l-168 504h113l105 -314l102 314h91l102 -314l105 314h114l-169 -504h-93l-104 319l-104 -319h-94z"/>
    <glyph glyph-name="Ygrave" unicode="Ỳ" horiz-adv-x="662" d="M301 745l-98 145h137l51 -145h-90zM269 0v270l-251 427h135l179 -307l178 307h134l-251 -427v-270h-124z"/>
    <glyph glyph-name="ygrave" unicode="ỳ" horiz-adv-x="563" d="M249 552l-97 145h137l51 -145h-91zM216 -7l-207 511h123l147 -368l151 368h123l-296 -698h-122z"/>
    <glyph glyph-name="endash" unicode="–" horiz-adv-x="510" d="M39 218v110h432v-110h-432z"/>
    <glyph glyph-name="emdash" unicode="—" horiz-adv-x="727" d="M39 218v110h649v-110h-649z"/>
    <glyph glyph-name="quoteleft" unicode="‘" horiz-adv-x="227" d="M11 450l129 247h92l-92 -247h-129z"/>
    <glyph glyph-name="quoteright" unicode="’" horiz-adv-x="232" d="M7 450l91 247h129l-129 -247h-91z"/>
    <glyph glyph-name="quotesinglbase" unicode="‚" horiz-adv-x="220" d="M58 111h129l-126 -239h-92z"/>
    <glyph glyph-name="quotedblleft" unicode="“" horiz-adv-x="404" d="M189 450l128 247h92l-92 -247h-128zM11 450l129 247h92l-92 -247h-129z"/>
    <glyph glyph-name="quotedblright" unicode="”" horiz-adv-x="409" d="M184 450l92 247h128l-129 -247h-91zM7 450l91 247h129l-129 -247h-91z"/>
    <glyph glyph-name="quotedblbase" unicode="„" horiz-adv-x="393" d="M146 -128l89 239h129l-126 -239h-92zM58 111h129l-126 -239h-92z"/>
    <glyph glyph-name="dagger" unicode="†" horiz-adv-x="304" d="M107 301l5 227l-81 -3v85l79 -3l-3 90h90l-3 -90l79 3v-85l-81 3l5 -227h-90z"/>
    <glyph glyph-name="daggerdbl" unicode="‡" horiz-adv-x="304" d="M107 301l3 88l-79 -3v83l81 -3v66l-81 -3v83l79 -3l-3 88h90l-3 -88l79 3v-83l-81 3v-66l81 3v-83l-79 3l3 -88h-90z"/>
    <glyph glyph-name="bullet" unicode="•" horiz-adv-x="321" d="M161 148q-19 0 -43.5 10.5t-43 36.5t-18.5 58q0 20 10.5 44.5t37.5 42t57 17.5t56.5 -17.5t37 -42t10.5 -44.5q0 -21 -10.5 -45.5t-36.5 -42t-57 -17.5z"/>
    <glyph glyph-name="ellipsis" unicode="…" horiz-adv-x="608" d="M436 61q0 28 21 48t49 20t48.5 -20t20.5 -48t-20.5 -48.5t-48.5 -20.5t-49 20t-21 49zM234 61q0 28 21 48t49 20t48.5 -20t20.5 -48t-20.5 -48.5t-48.5 -20.5t-49 20.5t-21 48.5zM32 61q0 28 21 48t49 20t48.5 -20t20.5 -48t-20.5 -48.5t-48.5 -20.5t-49 20.5t-21 48.5z "/>
    <glyph glyph-name="perthousand" unicode="‰" horiz-adv-x="1128" d="M188 401q-65 0 -111.5 45t-46.5 109t46.5 109.5t111.5 45.5t111.5 -45.5t46.5 -109.5t-46.5 -109t-111.5 -45zM86 0l466 697h113l-466 -697h-113zM188 486q26 0 45.5 20.5t19.5 48.5t-19.5 49t-45.5 21q-27 0 -46 -21t-19 -49q0 -29 19 -49t46 -20zM783 142q0 64 46 109 t111 45q32 0 57.5 -10.5t46 -27t37.5 -47t17 -69.5t-18.5 -73t-55 -58t-84.5 -24q-65 0 -111 45.5t-46 109.5zM405 142q0 64 46.5 109t111.5 45q32 0 57.5 -10.5t46 -27t37.5 -47t17 -69.5t-18.5 -73t-55 -58t-84.5 -24q-65 0 -111.5 45.5t-46.5 109.5zM875 142 q0 -29 19 -49.5t46 -20.5t46.5 20.5t19.5 49.5q0 28 -19.5 48.5t-46.5 20.5t-46 -20.5t-19 -48.5zM498 142q0 -29 19 -49.5t46 -20.5t46.5 20.5t19.5 49.5q0 28 -19.5 48.5t-46.5 20.5t-46 -20.5t-19 -48.5z"/>
    <glyph glyph-name="guilsinglleft" unicode="‹" horiz-adv-x="305" d="M149 71l-116 182l116 182h124l-118 -182l118 -182h-124z"/>
    <glyph glyph-name="guilsinglright" unicode="›" horiz-adv-x="305" d="M32 71l118 182l-118 182h124l116 -182l-116 -182h-124z"/>
    <glyph glyph-name="fraction" unicode="⁄" horiz-adv-x="548" d="M-15 0l466 697h112l-465 -697h-113z"/>
    <glyph glyph-name="uni2070" unicode="⁰" horiz-adv-x="362" d="M319 588l1 -75l-1 -76q-6 -49 -45.5 -82.5t-92.5 -33.5t-92.5 33.5t-45.5 82.5l-1 76l1 75q3 23 18 50t48.5 46.5t71.5 19.5t71.5 -19.5t48.5 -46.5t18 -50zM234 446q1 12 1 67l-1 65q-3 20 -18.5 34t-34.5 14q-20 0 -35 -13.5t-18 -34.5l-1 -65q0 -55 1 -67 q3 -21 18 -34.5t35 -13.5q19 0 34.5 13.5t18.5 34.5z"/>
    <glyph glyph-name="uni2074" unicode="⁴" horiz-adv-x="350" d="M223 327v68h-200v59l121 243h85l-115 -227h109v72h81v-215h-81z"/>
    <glyph glyph-name="uni2075" unicode="⁵" horiz-adv-x="327" d="M154 321q-44 0 -82 22.5t-59 58.5l68 40q9 -18 27 -29.5t38 -11.5q25 0 43 16t18 41q0 24 -18.5 40t-45.5 16q-29 0 -44 -14l-58 17l32 180h196v-79h-128l-9 -47q12 5 37 5q37 0 68.5 -21t44 -50t12.5 -53q0 -33 -18.5 -64.5t-52.5 -49t-69 -17.5z"/>
    <glyph glyph-name="uni2076" unicode="⁶" horiz-adv-x="349" d="M174 321q-58 0 -100 40t-42 95q0 15 6 38t46 83l79 120h98l-79 -114h12q23 0 51 -12.5t49.5 -44t21.5 -69.5q0 -56 -42 -96t-100 -40zM174 398q23 0 40.5 17.5t17.5 40.5t-17 40t-41 17t-41 -16.5t-17 -40.5t17 -41t41 -17z"/>
    <glyph glyph-name="uni2077" unicode="⁷" horiz-adv-x="336" d="M64 328l149 290h-173v79h273v-56l-158 -313h-91z"/>
    <glyph glyph-name="uni2078" unicode="⁸" horiz-adv-x="349" d="M175 321q-27 0 -60 12.5t-56.5 44.5t-23.5 69q0 30 16 56t39 38q-12 9 -20 24.5t-8 32.5q0 20 11 45t39.5 43t62.5 18q22 0 48.5 -10.5t45.5 -37t19 -58.5q0 -17 -8 -32.5t-20 -24.5q23 -12 39 -38t16 -56q0 -37 -23.5 -69t-56.5 -44.5t-60 -12.5zM175 558 q15 0 25.5 10.5t10.5 26.5q0 13 -10 24.5t-26 11.5t-26 -11.5t-10 -24.5q0 -16 10.5 -26.5t25.5 -10.5zM175 398q22 0 38 15.5t16 36.5t-16 37t-38 16t-38 -16t-16 -37t16 -36.5t38 -15.5z"/>
    <glyph glyph-name="uni2079" unicode="⁹" horiz-adv-x="351" d="M86 328l83 118l-12 -1q-29 0 -58.5 16.5t-46.5 47t-17 62.5q0 54 42 93.5t100 39.5q26 0 58.5 -13t56.5 -46t24 -73q0 -22 -9 -47.5t-42 -73.5l-82 -123h-97zM177 515q25 0 41 16.5t16 39.5t-17 39.5t-40 16.5q-24 0 -40.5 -16.5t-16.5 -39.5t16.5 -39.5t40.5 -16.5z"/>
    <glyph glyph-name="uni2080" unicode="₀" horiz-adv-x="362" d="M319 260l1 -75l-1 -76q-6 -49 -45.5 -82.5t-92.5 -33.5t-92.5 33.5t-45.5 82.5l-1 76l1 75q3 23 18 50t48.5 46.5t71.5 19.5t71.5 -19.5t48.5 -46.5t18 -50zM234 118q1 12 1 67l-1 65q-3 20 -18.5 34t-34.5 14q-20 0 -35 -13.5t-18 -34.5l-1 -65q0 -55 1 -67 q3 -21 18 -34.5t35 -13.5q19 0 34.5 13.5t18.5 34.5z"/>
    <glyph glyph-name="uni2081" unicode="₁" horiz-adv-x="233" d="M89 0v290h-57v79h140v-369h-83z"/>
    <glyph glyph-name="uni2082" unicode="₂" horiz-adv-x="331" d="M32 0v61l158 152q22 22 22 43q0 18 -12.5 31.5t-30.5 13.5t-31.5 -16t-13.5 -38h-80q0 25 12.5 55t44 52t68.5 22q24 0 53 -11.5t50 -41t21 -64.5q0 -22 -8.5 -42.5t-29.5 -42.5l-96 -94h144v-80h-271z"/>
    <glyph glyph-name="uni2083" unicode="₃" horiz-adv-x="341" d="M16 73l68 41q24 -41 71 -41q28 0 47 14.5t19 38.5q0 23 -19 38.5t-49 15.5q-33 0 -52 -10l-24 41l97 79h-124v79h237v-57l-87 -72q14 0 25 -4q37 -11 59.5 -42t22.5 -69q0 -56 -42 -94t-109 -38q-46 0 -84 22t-56 58z"/>
    <glyph glyph-name="uni2084" unicode="₄" horiz-adv-x="350" d="M23 67v60l121 243h85l-115 -228h109v72h81v-214h-81v67h-200z"/>
    <glyph glyph-name="uni2085" unicode="₅" horiz-adv-x="327" d="M13 74l68 40q9 -18 27 -29.5t38 -11.5q25 0 43 16t18 41q0 24 -18.5 40t-45.5 16q-29 0 -44 -14l-58 17l32 180h196v-79h-128l-9 -47q12 5 37 5q37 0 68.5 -21t44 -50t12.5 -53q0 -33 -18.5 -64.5t-52.5 -49t-69 -17.5q-44 0 -82 22.5t-59 58.5z"/>
    <glyph glyph-name="uni2086" unicode="₆" horiz-adv-x="349" d="M32 128q0 15 6 38t46 83l79 120h98l-79 -114h12q23 0 51 -12.5t49.5 -44t21.5 -69.5q0 -56 -42 -96t-100 -40t-100 40t-42 95zM116 128q0 -24 17 -41t41 -17q23 0 40.5 17.5t17.5 40.5t-17 40t-41 17t-41 -16.5t-17 -40.5z"/>
    <glyph glyph-name="uni2087" unicode="₇" horiz-adv-x="336" d="M64 0l149 290h-173v79h273v-56l-158 -313h-91z"/>
    <glyph glyph-name="uni2088" unicode="₈" horiz-adv-x="350" d="M35 119q0 30 16 56t39 38q-12 9 -20 24.5t-8 32.5q0 20 11 45t39.5 43t62.5 18q22 0 48.5 -10.5t45.5 -37t19 -58.5q0 -17 -8 -32.5t-20 -24.5q23 -12 39 -38t16 -56q0 -37 -23.5 -69t-56.5 -44.5t-60 -12.5t-60 12.5t-56.5 44.5t-23.5 69zM175 230q15 0 25.5 10.5 t10.5 26.5q0 13 -10 24.5t-26 11.5t-26 -11.5t-10 -24.5q0 -16 10.5 -26.5t25.5 -10.5zM121 122q0 -21 16 -36.5t38 -15.5t38 15.5t16 36.5t-16 37t-38 16t-38 -16t-16 -37z"/>
    <glyph glyph-name="uni2089" unicode="₉" horiz-adv-x="344" d="M82 0l83 118l-12 -1q-29 0 -55.5 14.5t-46 43.5t-19.5 68q0 54 42 93.5t99 39.5t98.5 -38.5t41.5 -93.5q0 -22 -9 -47.5t-42 -73.5l-82 -123h-98zM173 187q25 0 41.5 16.5t16.5 39.5t-17 39.5t-41 16.5t-40.5 -16.5t-16.5 -39.5t16.5 -39.5t40.5 -16.5z"/>
    <glyph glyph-name="Euro" unicode="€" horiz-adv-x="755" d="M626 181l86 -73q-48 -56 -116 -88t-144 -32q-57 0 -110.5 18.5t-98 52.5t-76 82t-46.5 104h-115l33 72h75l-1 31l2 42h-89l32 72h67q34 110 124 178.5t203 68.5q74 0 140.5 -32t114.5 -86l-86 -74q-31 37 -75.5 58t-93.5 21q-31 0 -69 -12t-73.5 -45t-54.5 -77h254 l-32 -72h-237q-4 -19 -4 -42q0 -21 3 -31h208l-33 -72h-165q25 -65 80 -105t123 -40q51 0 96.5 21.5t77.5 59.5z"/>
    <glyph glyph-name="afii61289" unicode="ℓ" horiz-adv-x="521" d="M38 106l-37 80l94 62v233q0 64 14.5 110.5t39.5 74t58 39.5t71 12q72 0 115.5 -49.5t43.5 -128.5q0 -92 -55.5 -174t-165.5 -165v-8q1 -55 26.5 -78t65.5 -23q64 0 121 74l67 -69q-80 -114 -217 -114q-39 0 -68 11.5t-51 29.5t-39.5 49t-20.5 70q-37 -23 -62 -36z M214 320q52 48 80.5 104.5t28.5 111.5q0 37 -14 55t-37 18q-24 0 -41 -25.5t-17 -74.5v-189z"/>
    <glyph glyph-name="afii61352" unicode="№" horiz-adv-x="1243" d="M745 474q0 33 11.5 69t39 67.5t71 53.5t98.5 22q32 0 69 -10.5t75 -40t57.5 -73.5t19.5 -88q0 -56 -29.5 -107.5t-83 -79t-108.5 -27.5q-44 0 -84 16t-70.5 45t-48 69t-17.5 84zM862 474q0 -19 10 -44t36 -43.5t57 -18.5q21 0 45 11t41 37.5t17 57.5q0 19 -10 43.5 t-35.5 42.5t-57.5 18q-31 0 -57 -18t-36 -42.5t-10 -43.5zM755 86v107h425v-107h-425zM77 0v697h111l326 -469v469h121v-697h-102l-335 478v-478h-121z"/>
    <glyph glyph-name="trademark" unicode="™" horiz-adv-x="881" d="M406 326v371h52l164 -176l164 176h50v-371h-107v177l-107 -119l-109 119v-177h-107zM135 326v265h-112v106h335v-106h-110v-265h-113z"/>
    <glyph glyph-name="uni2126" unicode="Ω" horiz-adv-x="804" d="M49 0v113h95q-45 45 -71.5 109.5t-26.5 135.5q0 72 27.5 137t77 113t115 74.5t136.5 26.5t136 -26.5t114.5 -74.5t77 -113t27.5 -137t-26.5 -136t-71.5 -109h96v-113h-318q55 33 98.5 82t70 110t26.5 132q0 56 -16.5 106t-46.5 87t-73 58t-94 21t-94 -21t-73 -58 t-46.5 -87t-16.5 -106q0 -71 26.5 -132t70 -110t98.5 -82h-318z"/>
    <glyph glyph-name="estimated" unicode="℮" horiz-adv-x="897" d="M194 102q51 -43 117.5 -68t137.5 -25q41 0 93.5 11.5t105.5 42t91 73.5h30q-56 -68 -140.5 -108t-180.5 -40q-61 0 -129.5 20t-130.5 67.5t-95.5 105t-44 105t-10.5 84.5q0 57 21.5 121t72.5 121.5t112.5 88.5t113 41t90.5 10q82 0 157.5 -29.5t132.5 -82.5t89 -123.5 t32 -146.5v-11h-665v-257zM194 380h508v259q-51 42 -116.5 66.5t-136.5 24.5t-137.5 -25t-117.5 -68v-257z"/>
    <glyph glyph-name="onethird" unicode="⅓" horiz-adv-x="761" d="M56 0l430 697h110l-429 -697h-111zM101 328v290h-57v79h140v-369h-83zM429 73l69 41q22 -41 70 -41q29 0 47.5 14.5t18.5 38.5q0 23 -18.5 38.5t-49.5 15.5q-34 0 -51 -10l-25 41l97 79h-124v79h237v-57l-86 -72q13 0 24 -4q37 -11 60 -42t23 -69q0 -56 -42 -94t-110 -38 q-46 0 -84 22t-56 58z"/>
    <glyph glyph-name="twothirds" unicode="⅔" horiz-adv-x="840" d="M153 0l429 697h111l-430 -697h-110zM508 73l69 41q22 -41 71 -41q28 0 47 14.5t19 38.5q0 23 -19 38.5t-50 15.5q-32 0 -51 -10l-25 41l98 79h-125v79h238v-57l-87 -72q15 0 24 -4q37 -11 60 -42t23 -69q0 -56 -42 -94t-110 -38q-46 0 -83.5 22t-56.5 58zM43 328v61 l158 152q22 22 22 43q0 19 -12 32t-30 13t-32 -16.5t-14 -37.5h-80q0 25 12.5 55t44 52t68.5 22q52 0 88 -34t36 -83q0 -46 -37 -85l-92 -94h139v-80h-271z"/>
    <glyph glyph-name="arrowleft" unicode="←" horiz-adv-x="665" d="M635 315v-113h-402l117 -116l-78 -78l-250 250l250 250l78 -78l-116 -115h401z"/>
    <glyph glyph-name="arrowup" unicode="↑" horiz-adv-x="709" d="M293 0v376l-112 -115l-76 77l246 246l247 -246l-77 -77l-112 115v-376h-116z"/>
    <glyph glyph-name="arrowright" unicode="→" horiz-adv-x="665" d="M30 202v113h401l-116 115l78 78l250 -250l-250 -250l-78 78l117 116h-402z"/>
    <glyph glyph-name="arrowdown" unicode="↓" horiz-adv-x="709" d="M105 175l76 77l112 -114v366h116v-366l112 114l77 -77l-247 -246z"/>
    <glyph glyph-name="arrowboth" unicode="↔" horiz-adv-x="934" d="M233 202l117 -116l-78 -78l-250 250l250 250l78 -78l-116 -115h466l-116 115l78 78l250 -250l-250 -250l-78 78l117 116h-468z"/>
    <glyph glyph-name="arrowupdn" unicode="↕" horiz-adv-x="709" d="M119 116l77 77l97 -99v343l-97 -99l-77 77l232 229l233 -229l-77 -77l-98 99v-343l98 99l77 -77l-233 -229z"/>
    <glyph glyph-name="uni2196" unicode="↖" horiz-adv-x="709" d="M141 118v363h361v-111h-170l277 -276l-80 -80l-274 274v-170h-114z"/>
    <glyph glyph-name="uni2197" unicode="↗" horiz-adv-x="709" d="M100 94l277 276h-170v111h361v-363h-114v170l-274 -274z"/>
    <glyph glyph-name="uni2198" unicode="↘" horiz-adv-x="709" d="M232 28v111h169l-277 277l80 80l274 -274v169h114v-363h-360z"/>
    <glyph glyph-name="uni2199" unicode="↙" horiz-adv-x="709" d="M141 28v363h114v-169l274 274l80 -80l-277 -277h170v-111h-361z"/>
    <glyph glyph-name="partialdiff" unicode="∂" horiz-adv-x="535" d="M34 216q0 45 17 88t48 77t73.5 53.5t91.5 19.5q32 0 63.5 -13t48.5 -37v1q0 62 -17.5 107.5t-46.5 67t-68 21.5q-63 0 -101 -38l-70 80q30 27 60 42.5t61 21t58 5.5q67 0 119.5 -34t82.5 -97q17 -35 29 -88.5t12 -120.5q0 -194 -70 -292q-32 -44 -82 -69.5t-103 -25.5 q-37 0 -73.5 12.5t-66 42t-48 74.5t-18.5 102zM154 207q0 -44 24.5 -76.5t68.5 -32.5q31 0 58 19t42 51q17 31 17 73q0 21 -9 45.5t-33 42t-56 17.5q-19 0 -44.5 -12t-46.5 -45t-21 -82z"/>
    <glyph glyph-name="uni2206" unicode="∆" horiz-adv-x="643" d="M37 0v74l237 623h94l238 -623v-74h-569zM172 113h300l-150 400z"/>
    <glyph glyph-name="product" unicode="∏" horiz-adv-x="689" d="M130 0v586h-104v111h637v-111h-104v-586h-120v586h-189v-586h-120z"/>
    <glyph glyph-name="summation" unicode="∑" horiz-adv-x="576" d="M47 0v84l213 282l-203 249v82h465v-116h-307l178 -222l-188 -246h328v-113h-486z"/>
    <glyph glyph-name="minus" unicode="−" horiz-adv-x="469" d="M43 295v106h383v-106h-383z"/>
    <glyph glyph-name="radical" unicode="√" horiz-adv-x="694" d="M57 278l-35 82l187 77l137 -331l217 694h112l-285 -887h-76l-166 404z"/>
    <glyph glyph-name="infinity" unicode="∞" horiz-adv-x="811" d="M212 153q-37 0 -69.5 12.5t-55.5 35.5t-36 54.5t-13 67.5q0 43 23.5 85t67.5 65.5t92 23.5q40 0 79 -20.5t102 -85.5q59 62 107 84t91 22q75 0 124 -48.5t49 -125.5q0 -33 -12 -60t-31.5 -49.5t-56.5 -41.5t-85 -19q-38 0 -71 17.5t-57.5 39.5t-47.5 46 q-60 -60 -108.5 -81.5t-91.5 -21.5zM473 321q39 -39 63.5 -52t44.5 -13q32 0 54 19.5t22 47.5q0 32 -21 52t-53 20q-21 0 -45.5 -15t-64.5 -59zM230 256q20 0 44.5 15t66.5 58q-66 66 -109 66q-34 0 -56 -21t-22 -51q0 -29 21 -48t55 -19z"/>
    <glyph glyph-name="integral" unicode="∫" horiz-adv-x="326" d="M17 6q18 -6 44 -6q30 0 45 27t15 130q0 42 -9 186.5t-9 213.5q0 79 17 129.5t51.5 76.5t89.5 26q24 0 48 -6v-99q-13 5 -33 5q-29 0 -44 -30.5t-15 -118.5q0 -59 10 -215.5t10 -201.5q0 -46 -7.5 -88.5t-25.5 -73t-48.5 -47t-78.5 -16.5q-29 0 -60 9v99z"/>
    <glyph glyph-name="approxequal" unicode="≈" horiz-adv-x="456" d="M29 389q6 54 37.5 88.5t81.5 34.5q36 0 78.5 -18t56.5 -20.5t21 -2.5q39 0 51 42l69 -10q-8 -61 -38 -95t-83 -34q-38 0 -80.5 18t-56.5 20.5t-21 2.5q-39 0 -47 -35zM32 214q7 54 39 88.5t81 34.5q36 0 84 -20t71 -20q20 0 32.5 9.5t19.5 31.5l69 -9q-8 -61 -38 -95.5 t-84 -34.5q-38 0 -80.5 18t-56 20.5t-20.5 2.5q-39 0 -48 -35z"/>
    <glyph glyph-name="notequal" unicode="≠" horiz-adv-x="516" d="M71 127l46 78h-73v105h135l50 84h-185v104h249l73 122l79 -47l-44 -75h71v-104h-134l-50 -84h184v-105h-247l-74 -126z"/>
    <glyph glyph-name="lessequal" unicode="≤" horiz-adv-x="437" d="M31 0v105h356v-105h-356zM45 344v85l342 195v-123l-207 -115l207 -113v-124z"/>
    <glyph glyph-name="greaterequal" unicode="≥" horiz-adv-x="437" d="M50 0v105h356v-105h-356zM50 149v124l207 113l-207 115v123l342 -195v-85z"/>
    <glyph glyph-name="triagup" unicode="▲" d="M73 119l201 354l214 -354h-415z"/>
    <glyph glyph-name="triagrt" unicode="►" d="M125 52v415l354 -201z"/>
    <glyph glyph-name="triagdn" unicode="▼" d="M274 55l-201 354h415z"/>
    <glyph glyph-name="triaglf" unicode="◄" d="M82 266l354 201v-415z"/>
    <glyph glyph-name="lozenge" unicode="◊" horiz-adv-x="550" d="M239 0l-218 349l217 348h74l217 -348l-218 -349h-72zM275 139l128 209l-128 207l-128 -207z"/>
    <glyph glyph-name="uni25E2" unicode="◢" d="M64 179l294 294l108 -393z"/>
    <glyph glyph-name="uni25E3" unicode="◣" d="M95 80l109 393l293 -294z"/>
    <glyph glyph-name="uni25E4" unicode="◤" d="M200 50l-104 397l397 -104z"/>
    <glyph glyph-name="uni25E5" unicode="◥" d="M72 339l393 108l-99 -402z"/>
    <glyph glyph-name="space.aalt" horiz-adv-x="26"/>
    <glyph glyph-name="C.ss01" horiz-adv-x="690" d="M40 348q0 75 28.5 142t79.5 116t119 76t143 27q62 0 118 -19t99 -54v-133q-43 44 -99 68.5t-118 24.5q-51 0 -96.5 -18.5t-79 -52.5t-52 -79.5t-18.5 -97.5t18.5 -97.5t52 -79t79 -52t96.5 -18.5q62 0 118 24.5t99 68.5v-133q-43 -35 -99 -54t-118 -19q-75 0 -143 27 t-119 75.5t-79.5 115.5t-28.5 142z"/>
    <glyph glyph-name="G.ss01" horiz-adv-x="746" d="M40 348q0 75 28.5 142t79.5 116t119 76t143 27q121 0 211 -62v-126q-41 35 -96 55t-115 20q-51 0 -96.5 -18.5t-79 -52.5t-52 -79.5t-18.5 -97.5t18.5 -97.5t52 -79t79 -52t96.5 -18.5q48 0 91.5 16.5t75.5 46.5v123h-194v113h312v-281q-49 -61 -124 -96t-161 -35 q-75 0 -143 27t-119 75.5t-79.5 115.5t-28.5 142z"/>
    <glyph glyph-name="K.ss03" horiz-adv-x="649" d="M77 0v697h125v-317l272 317h151l-298 -340l309 -357h-154l-280 326v-326h-125z"/>
    <glyph glyph-name="M.ss04" horiz-adv-x="859" d="M22 0l108 697h98l201 -500l202 500h98l108 -697h-120l-68 445l-175 -445h-89l-175 446l-68 -446h-120z"/>
    <glyph glyph-name="Q.ss01" horiz-adv-x="816" d="M40 348q0 74 28.5 141t79.5 116t118.5 76.5t141.5 27.5t142 -27.5t119 -76.5t79.5 -116t28.5 -141q0 -71 -26.5 -135t-72.5 -111l89 -102h-138l-34 40q-85 -52 -187 -52q-74 0 -141.5 27t-118.5 76.5t-79.5 116t-28.5 140.5zM163 348q0 -51 18.5 -97t52 -79.5t79 -52.5 t95.5 -19q55 0 107 26l-153 178h138l98 -116q55 64 55 160q0 37 -12.5 79t-46.5 84t-85 63.5t-101 21.5t-95 -19t-79 -53t-52.5 -79.5t-18.5 -96.5z"/>
    <glyph glyph-name="S.ss01" d="M41 59v134q95 -93 226 -93q63 0 98.5 25.5t35.5 60.5q0 24 -11.5 44t-42 38.5t-102.5 48.5q-62 26 -102 54.5t-61.5 66t-21.5 85.5q0 42 17.5 76.5t49 59t75 37.5t92.5 13q99 0 169 -48v-127q-70 61 -166 61q-52 0 -82 -20t-30 -52q0 -20 11 -35t27 -25.5t33.5 -19 t43.5 -20t35 -15.5q112 -49 151 -100.5t39 -121.5q0 -40 -16.5 -76.5t-48 -63.5t-79.5 -42.5t-107 -15.5q-134 0 -233 71z"/>
    <glyph glyph-name="W.ss05" horiz-adv-x="979" d="M286 0l-270 697h129l196 -511l83 218l-114 293h118l62 -157l62 157h117q-1 -3 -6 -16t-48 -125t-60 -152l83 -219l197 512h128l-269 -697h-100l-104 269l-104 -269h-100z"/>
    <glyph glyph-name="Cacute.ss01" horiz-adv-x="690" d="M357 745l51 145h137l-97 -145h-91zM40 348q0 75 28.5 142t79.5 116t119 76t143 27q62 0 118 -19t99 -54v-133q-43 44 -99 68.5t-118 24.5q-51 0 -96.5 -18.5t-79 -52.5t-52 -79.5t-18.5 -97.5t18.5 -97.5t52 -79t79 -52t96.5 -18.5q62 0 118 24.5t99 68.5v-133 q-43 -35 -99 -54t-118 -19q-75 0 -143 27t-119 75.5t-79.5 115.5t-28.5 142z"/>
    <glyph glyph-name="Ccircumflex.ss01" horiz-adv-x="690" d="M237 764l138 121h76l137 -121h-117l-59 58l-58 -58h-117zM40 348q0 75 28.5 142t79.5 116t119 76t143 27q62 0 118 -19t99 -54v-133q-43 44 -99 68.5t-118 24.5q-51 0 -96.5 -18.5t-79 -52.5t-52 -79.5t-18.5 -97.5t18.5 -97.5t52 -79t79 -52t96.5 -18.5q62 0 118 24.5 t99 68.5v-133q-43 -35 -99 -54t-118 -19q-75 0 -143 27t-119 75.5t-79.5 115.5t-28.5 142z"/>
    <glyph glyph-name="Ccaron.ss01" horiz-adv-x="690" d="M372 769l-137 121h117l58 -58l59 58h117l-137 -121h-77zM40 348q0 75 28.5 142t79.5 116t119 76t143 27q62 0 118 -19t99 -54v-133q-43 44 -99 68.5t-118 24.5q-51 0 -96.5 -18.5t-79 -52.5t-52 -79.5t-18.5 -97.5t18.5 -97.5t52 -79t79 -52t96.5 -18.5q62 0 118 24.5 t99 68.5v-133q-43 -35 -99 -54t-118 -19q-75 0 -143 27t-119 75.5t-79.5 115.5t-28.5 142z"/>
    <glyph glyph-name="Cdotaccent.ss01" horiz-adv-x="690" d="M406 751q-26 0 -45.5 18.5t-19.5 44.5t19.5 44t45.5 18q25 0 44.5 -18.5t19.5 -43.5q0 -26 -19 -44.5t-45 -18.5zM40 348q0 75 28.5 142t79.5 116t119 76t143 27q62 0 118 -19t99 -54v-133q-43 44 -99 68.5t-118 24.5q-51 0 -96.5 -18.5t-79 -52.5t-52 -79.5t-18.5 -97.5 t18.5 -97.5t52 -79t79 -52t96.5 -18.5q62 0 118 24.5t99 68.5v-133q-43 -35 -99 -54t-118 -19q-75 0 -143 27t-119 75.5t-79.5 115.5t-28.5 142z"/>
    <glyph glyph-name="Ccedilla.ss01" horiz-adv-x="690" d="M40 348q0 75 28.5 142t79.5 116t119 76t143 27q62 0 118 -19t99 -54v-133q-43 44 -99 68.5t-118 24.5q-51 0 -96.5 -18.5t-79 -52.5t-52 -79.5t-18.5 -97.5t18.5 -97.5t52 -79t79 -52t96.5 -18.5q62 0 118 24.5t99 68.5v-133q-86 -71 -215 -73l-15 -34q27 0 46.5 -20.5 t19.5 -52.5q0 -21 -10 -43t-38 -35t-66 -13q-22 0 -47.5 7.5t-38.5 17.5l26 53q26 -15 50 -15q17 0 28 9t11 24q0 16 -12 27t-52 11l29 70q-47 8 -98.5 30.5t-96.5 65.5t-69 93t-31.5 91.5t-7.5 73.5z"/>
    <glyph glyph-name="Gcircumflex.ss01" horiz-adv-x="746" d="M235 764l138 121h76l137 -121h-117l-59 58l-58 -58h-117zM40 348q0 75 28.5 142t79.5 116t119 76t143 27q121 0 211 -62v-126q-41 35 -96 55t-115 20q-51 0 -96.5 -18.5t-79 -52.5t-52 -79.5t-18.5 -97.5t18.5 -97.5t52 -79t79 -52t96.5 -18.5q48 0 91.5 16.5t75.5 46.5 v123h-194v113h312v-281q-49 -61 -124 -96t-161 -35q-75 0 -143 27t-119 75.5t-79.5 115.5t-28.5 142z"/>
    <glyph glyph-name="Gbreve.ss01" horiz-adv-x="746" d="M408 749q-34 0 -71.5 14t-64.5 50t-33 78h92q9 -27 28.5 -42.5t48.5 -15.5q57 0 76 58h92q-4 -28 -22 -61.5t-56.5 -57t-89.5 -23.5zM40 348q0 75 28.5 142t79.5 116t119 76t143 27q121 0 211 -62v-126q-41 35 -96 55t-115 20q-51 0 -96.5 -18.5t-79 -52.5t-52 -79.5 t-18.5 -97.5t18.5 -97.5t52 -79t79 -52t96.5 -18.5q48 0 91.5 16.5t75.5 46.5v123h-194v113h312v-281q-49 -61 -124 -96t-161 -35q-75 0 -143 27t-119 75.5t-79.5 115.5t-28.5 142z"/>
    <glyph glyph-name="Gdotaccent.ss01" horiz-adv-x="746" d="M407 751q-26 0 -45.5 18.5t-19.5 44.5t19.5 44t45.5 18q25 0 44.5 -18.5t19.5 -43.5q0 -26 -19 -44.5t-45 -18.5zM40 348q0 75 28.5 142t79.5 116t119 76t143 27q121 0 211 -62v-126q-41 35 -96 55t-115 20q-51 0 -96.5 -18.5t-79 -52.5t-52 -79.5t-18.5 -97.5 t18.5 -97.5t52 -79t79 -52t96.5 -18.5q48 0 91.5 16.5t75.5 46.5v123h-194v113h312v-281q-49 -61 -124 -96t-161 -35q-75 0 -143 27t-119 75.5t-79.5 115.5t-28.5 142z"/>
    <glyph glyph-name="Gcommaaccent.ss01" horiz-adv-x="746" d="M293 -193l51 145h137l-97 -145h-91zM40 348q0 75 28.5 142t79.5 116t119 76t143 27q121 0 211 -62v-126q-41 35 -96 55t-115 20q-51 0 -96.5 -18.5t-79 -52.5t-52 -79.5t-18.5 -97.5t18.5 -97.5t52 -79t79 -52t96.5 -18.5q48 0 91.5 16.5t75.5 46.5v123h-194v113h312 v-281q-49 -61 -124 -96t-161 -35q-75 0 -143 27t-119 75.5t-79.5 115.5t-28.5 142z"/>
    <glyph glyph-name="Kcommaaccent.ss03" horiz-adv-x="643" d="M271 -48h137l-97 -145h-91zM77 0v697h125v-317l272 317h151l-298 -340l309 -357h-154l-280 326v-326h-125z"/>
    <glyph glyph-name="Sacute.ss01" d="M235 745l51 145h137l-98 -145h-90zM41 59v134q95 -93 226 -93q63 0 98.5 25.5t35.5 60.5q0 24 -11.5 44t-42 38.5t-102.5 48.5q-62 26 -102 54.5t-61.5 66t-21.5 85.5q0 42 17.5 76.5t49 59t75 37.5t92.5 13q99 0 169 -48v-127q-70 61 -166 61q-52 0 -82 -20t-30 -52 q0 -20 11 -35t27 -25.5t33.5 -19t43.5 -20t35 -15.5q112 -49 151 -100.5t39 -121.5q0 -40 -16.5 -76.5t-48 -63.5t-79.5 -42.5t-107 -15.5q-134 0 -233 71z"/>
    <glyph glyph-name="Scircumflex.ss01" d="M117 764l137 121h76l137 -121h-117l-58 58l-58 -58h-117zM41 59v134q95 -93 226 -93q63 0 98.5 25.5t35.5 60.5q0 24 -11.5 44t-42 38.5t-102.5 48.5q-62 26 -102 54.5t-61.5 66t-21.5 85.5q0 42 17.5 76.5t49 59t75 37.5t92.5 13q99 0 169 -48v-127q-70 61 -166 61 q-52 0 -82 -20t-30 -52q0 -20 11 -35t27 -25.5t33.5 -19t43.5 -20t35 -15.5q112 -49 151 -100.5t39 -121.5q0 -40 -16.5 -76.5t-48 -63.5t-79.5 -42.5t-107 -15.5q-134 0 -233 71z"/>
    <glyph glyph-name="Scaron.ss01" d="M261 769l-137 121h117l58 -58l59 58h118l-138 -121h-77zM41 59v134q95 -93 226 -93q63 0 98.5 25.5t35.5 60.5q0 24 -11.5 44t-42 38.5t-102.5 48.5q-62 26 -102 54.5t-61.5 66t-21.5 85.5q0 42 17.5 76.5t49 59t75 37.5t92.5 13q99 0 169 -48v-127q-70 61 -166 61 q-52 0 -82 -20t-30 -52q0 -20 11 -35t27 -25.5t33.5 -19t43.5 -20t35 -15.5q112 -49 151 -100.5t39 -121.5q0 -40 -16.5 -76.5t-48 -63.5t-79.5 -42.5t-107 -15.5q-134 0 -233 71z"/>
    <glyph glyph-name="Scommaaccent.ss01" d="M220 -48h136l-97 -145h-91zM41 59v134q95 -93 226 -93q63 0 98.5 25.5t35.5 60.5q0 24 -11.5 44t-42 38.5t-102.5 48.5q-62 26 -102 54.5t-61.5 66t-21.5 85.5q0 42 17.5 76.5t49 59t75 37.5t92.5 13q99 0 169 -48v-127q-70 61 -166 61q-52 0 -82 -20t-30 -52 q0 -20 11 -35t27 -25.5t33.5 -19t43.5 -20t35 -15.5q112 -49 151 -100.5t39 -121.5q0 -40 -16.5 -76.5t-48 -63.5t-79.5 -42.5t-107 -15.5q-134 0 -233 71z"/>
    <glyph glyph-name="Scedilla.ss01" d="M41 59v134q95 -93 226 -93q63 0 98.5 25.5t35.5 60.5q0 24 -11.5 44t-42 38.5t-102.5 48.5q-62 26 -102 54.5t-61.5 66t-21.5 85.5q0 42 17.5 76.5t49 59t75 37.5t92.5 13q99 0 169 -48v-127q-70 61 -166 61q-52 0 -82 -20t-30 -52q0 -20 11 -35t27 -25.5t33.5 -19 t43.5 -20t35 -15.5q112 -49 151 -100.5t39 -121.5q0 -38 -14 -72t-41.5 -60.5t-68.5 -43t-93 -20.5l-16 -36q27 0 46.5 -20.5t19.5 -52.5q0 -21 -10 -43t-38 -35t-66 -13q-22 0 -47.5 7.5t-38.5 17.5l26 53q26 -15 50 -15q17 0 28 9t11 24q0 16 -12 27t-52 11l27 66 q-112 9 -195 69z"/>
    <glyph glyph-name="Wgrave.ss05" horiz-adv-x="979" d="M448 745l-97 145h136l52 -145h-91zM286 0l-270 697h129l196 -511l83 218l-114 293h118l62 -157l62 157h117q-1 -3 -6 -16t-48 -125t-60 -152l83 -219l197 512h128l-269 -697h-100l-104 269l-104 -269h-100z"/>
    <glyph glyph-name="Wacute.ss05" horiz-adv-x="979" d="M439 745l51 145h137l-98 -145h-90zM286 0l-270 697h129l196 -511l83 218l-114 293h118l62 -157l62 157h117q-1 -3 -6 -16t-48 -125t-60 -152l83 -219l197 512h128l-269 -697h-100l-104 269l-104 -269h-100z"/>
    <glyph glyph-name="Wcircumflex.ss05" horiz-adv-x="979" d="M315 764l138 121h76l137 -121h-117l-59 58l-58 -58h-117zM286 0l-270 697h129l196 -511l83 218l-114 293h118l62 -157l62 157h117q-1 -3 -6 -16t-48 -125t-60 -152l83 -219l197 512h128l-269 -697h-100l-104 269l-104 -269h-100z"/>
    <glyph glyph-name="Wdieresis.ss05" horiz-adv-x="979" d="M598 740q-26 0 -45 18t-19 43q0 26 19 44t45 18q25 0 44 -18.5t19 -43.5t-19 -43t-44 -18zM380 740q-25 0 -44.5 18t-19.5 43t19.5 43.5t44.5 18.5t44 -18t19 -44q0 -25 -19 -43t-44 -18zM286 0l-270 697h129l196 -511l83 218l-114 293h118l62 -157l62 157h117 q-1 -3 -6 -16t-48 -125t-60 -152l83 -219l197 512h128l-269 -697h-100l-104 269l-104 -269h-100z"/>
    <glyph glyph-name="a.ss01" horiz-adv-x="554" d="M34 139q0 77 53.5 117.5t164.5 50.5q77 7 96 21.5t19 36.5q0 23 -21.5 39t-62.5 16q-81 0 -135 -66l-74 63q35 50 89 76.5t118 26.5q94 0 148.5 -43.5t54.5 -119.5v-223q0 -19 7.5 -29t34.5 -10h3v-93q-18 -11 -56 -11q-40 0 -64 24q-11 11 -18 33q-26 -31 -71.5 -46.5 t-99.5 -15.5q-83 0 -134.5 42t-51.5 111zM151 149q0 -29 23 -45t64 -16q28 0 58.5 8.5t50.5 32.5t20 59v56q-5 -7 -21 -14.5t-90 -15.5q-36 -4 -61 -13t-34.5 -23t-9.5 -29z"/>
    <glyph glyph-name="c.ss01" horiz-adv-x="504" d="M31 253q0 56 21 105.5t58.5 85.5t88 56t107.5 20q46 0 88.5 -13.5t73.5 -37.5v-120q-65 62 -155 62q-70 0 -116.5 -45t-46.5 -113t46.5 -113t116.5 -45q92 0 155 62v-120q-31 -25 -73 -38t-89 -13q-57 0 -107.5 20t-88 56t-58.5 85.5t-21 105.5z"/>
    <glyph glyph-name="e.ss01" horiz-adv-x="566" d="M31 247v5q0 58 19.5 107.5t55 84.5t83.5 53.5t103 18.5q53 0 99 -19.5t79 -54t50.5 -81t17.5 -97.5l-2 -43h-386q3 -60 44 -95.5t108 -35.5q33 0 69.5 6.5t65 21t46.5 30.5v-112q-37 -26 -80.5 -38.5t-105.5 -12.5q-58 0 -107.5 18.5t-85 53t-54.5 83.5t-19 107zM153 306 h263q0 44 -36.5 76t-87.5 32q-55 0 -95.5 -31.5t-43.5 -76.5z"/>
    <glyph glyph-name="g.ss01" horiz-adv-x="615" d="M31 254q0 53 19 101.5t53.5 84t81 55.5t98.5 20q61 0 104.5 -24t56.5 -60v73h120v-420q0 -118 -21 -168.5t-65 -82.5q-34 -25 -82 -39t-100 -14q-65 0 -124.5 14.5t-98.5 42.5v114q17 -16 46.5 -32.5t72.5 -26t86 -9.5q79 0 120 30q22 15 35.5 44t13.5 82v31 q-18 -32 -61.5 -53t-102.5 -21q-52 0 -98.5 19.5t-81 54.5t-53.5 83t-19 101zM150 254q0 -40 19 -76.5t55 -56t75 -19.5q65 0 109.5 43.5t44.5 108.5q0 64 -44.5 108t-109.5 44q-63 0 -106 -44t-43 -108z"/>
    <glyph glyph-name="j.ss07" horiz-adv-x="224" d="M112 562q-28 0 -49.5 21t-21.5 50t21.5 50t49.5 21t49.5 -21t21.5 -50t-21.5 -50t-49.5 -21zM53 -193v697h119v-697h-119z"/>
    <glyph glyph-name="k.ss03" horiz-adv-x="496" d="M53 0v697h119v-408l170 215h136l-191 -241l207 -263h-140l-182 233v-233h-119z"/>
    <glyph glyph-name="l.ss01" horiz-adv-x="290" d="M51 149v548h120v-532q0 -37 14 -53.5t46 -16.5q21 0 36 4v-107q-21 -6 -57 -6q-159 0 -159 163z"/>
    <glyph glyph-name="r.ss08" horiz-adv-x="357" d="M51 0v347q0 171 187 171q51 0 88 -8v-107q-28 6 -63 6q-46 0 -69.5 -17.5t-23.5 -67.5v-324h-119z"/>
    <glyph glyph-name="s.ss01" horiz-adv-x="441" d="M33 41v118q74 -67 187 -67q40 0 62.5 13t22.5 35q0 15 -14.5 29t-69 35.5t-65.5 26.5q-107 47 -107 142q0 67 52 106.5t129 39.5q82 0 136 -34v-109q-25 16 -59.5 27t-71.5 11q-33 0 -53 -11t-20 -32q0 -4 3.5 -14t18 -18.5t63.5 -26.5q64 -25 98.5 -45t55 -50t20.5 -75 q0 -29 -11.5 -56.5t-36 -50t-64 -35.5t-91.5 -13q-106 0 -185 54z"/>
    <glyph glyph-name="t.ss01" horiz-adv-x="334" d="M83 157v238h-63v109h63v193h120v-193h111v-109h-111v-225q0 -40 15.5 -57.5t47.5 -17.5q22 0 42 4v-107q-25 -6 -62 -6q-163 0 -163 171z"/>
    <glyph glyph-name="u.ss09" horiz-adv-x="547" d="M47 192v312h120v-295q0 -51 27.5 -81.5t74.5 -30.5q22 0 48 11t44 40t18 66v290h120v-504h-120v70q-17 -36 -56 -58t-90 -22q-87 0 -136.5 54.5t-49.5 147.5z"/>
    <glyph glyph-name="w.ss05" horiz-adv-x="782" d="M224 0l-218 504h120l152 -356l56 131l-98 225h106l49 -115l49 115h106l-99 -225l57 -131l151 356h121l-218 -504h-93l-74 172l-75 -172h-92z"/>
    <glyph glyph-name="y.ss01" horiz-adv-x="551" d="M80 -101q23 -8 56 -8q28 0 44 11q17 11 29 43l13 36l-211 523h121l148 -380l139 380h121l-226 -586q-22 -59 -54 -90q-45 -42 -121 -42q-33 0 -59 8v105z"/>
    <glyph glyph-name="agrave.ss01" horiz-adv-x="554" d="M242 552l-97 145h137l51 -145h-91zM34 139q0 77 53.5 117.5t164.5 50.5q77 7 96 21.5t19 36.5q0 23 -21.5 39t-62.5 16q-81 0 -135 -66l-74 63q35 50 89 76.5t118 26.5q94 0 148.5 -43.5t54.5 -119.5v-223q0 -19 7.5 -29t34.5 -10h3v-93q-18 -11 -56 -11q-40 0 -64 24 q-11 11 -18 33q-26 -31 -71.5 -46.5t-99.5 -15.5q-83 0 -134.5 42t-51.5 111zM151 149q0 -29 23 -45t64 -16q28 0 58.5 8.5t50.5 32.5t20 59v56q-5 -7 -21 -14.5t-90 -15.5q-36 -4 -61 -13t-34.5 -23t-9.5 -29z"/>
    <glyph glyph-name="aacute.ss01" horiz-adv-x="554" d="M217 552l51 145h137l-97 -145h-91zM34 139q0 77 53.5 117.5t164.5 50.5q77 7 96 21.5t19 36.5q0 23 -21.5 39t-62.5 16q-81 0 -135 -66l-74 63q35 50 89 76.5t118 26.5q94 0 148.5 -43.5t54.5 -119.5v-223q0 -19 7.5 -29t34.5 -10h3v-93q-18 -11 -56 -11q-40 0 -64 24 q-11 11 -18 33q-26 -31 -71.5 -46.5t-99.5 -15.5q-83 0 -134.5 42t-51.5 111zM151 149q0 -29 23 -45t64 -16q28 0 58.5 8.5t50.5 32.5t20 59v56q-5 -7 -21 -14.5t-90 -15.5q-36 -4 -61 -13t-34.5 -23t-9.5 -29z"/>
    <glyph glyph-name="acircumflex.ss01" horiz-adv-x="554" d="M106 566l138 121h76l137 -121h-117l-59 58l-58 -58h-117zM34 139q0 77 53.5 117.5t164.5 50.5q77 7 96 21.5t19 36.5q0 23 -21.5 39t-62.5 16q-81 0 -135 -66l-74 63q35 50 89 76.5t118 26.5q94 0 148.5 -43.5t54.5 -119.5v-223q0 -19 7.5 -29t34.5 -10h3v-93 q-18 -11 -56 -11q-40 0 -64 24q-11 11 -18 33q-26 -31 -71.5 -46.5t-99.5 -15.5q-83 0 -134.5 42t-51.5 111zM151 149q0 -29 23 -45t64 -16q28 0 58.5 8.5t50.5 32.5t20 59v56q-5 -7 -21 -14.5t-90 -15.5q-36 -4 -61 -13t-34.5 -23t-9.5 -29z"/>
    <glyph glyph-name="atilde.ss01" horiz-adv-x="554" d="M95 588q5 36 23.5 64t43.5 38.5t47 10.5q19 0 36 -5.5t49.5 -21t50.5 -15.5q35 0 46 42l69 -9q-17 -120 -116 -120q-32 0 -75 21t-63 21q-34 0 -42 -35zM34 139q0 77 53.5 117.5t164.5 50.5q77 7 96 21.5t19 36.5q0 23 -21.5 39t-62.5 16q-81 0 -135 -66l-74 63 q35 50 89 76.5t118 26.5q94 0 148.5 -43.5t54.5 -119.5v-223q0 -19 7.5 -29t34.5 -10h3v-93q-18 -11 -56 -11q-40 0 -64 24q-11 11 -18 33q-26 -31 -71.5 -46.5t-99.5 -15.5q-83 0 -134.5 42t-51.5 111zM151 149q0 -29 23 -45t64 -16q28 0 58.5 8.5t50.5 32.5t20 59v56 q-5 -7 -21 -14.5t-90 -15.5q-36 -4 -61 -13t-34.5 -23t-9.5 -29z"/>
    <glyph glyph-name="adieresis.ss01" horiz-adv-x="554" d="M383 567q-25 0 -44 18t-19 44t19 44t44 18t44.5 -18.5t19.5 -43.5t-19.5 -43.5t-44.5 -18.5zM176 567q-26 0 -45 18t-19 44t19 44t45 18q25 0 44 -18t19 -44t-19 -44t-44 -18zM34 139q0 77 53.5 117.5t164.5 50.5q77 7 96 21.5t19 36.5q0 23 -21.5 39t-62.5 16 q-81 0 -135 -66l-74 63q35 50 89 76.5t118 26.5q94 0 148.5 -43.5t54.5 -119.5v-223q0 -19 7.5 -29t34.5 -10h3v-93q-18 -11 -56 -11q-40 0 -64 24q-11 11 -18 33q-26 -31 -71.5 -46.5t-99.5 -15.5q-83 0 -134.5 42t-51.5 111zM151 149q0 -29 23 -45t64 -16q28 0 58.5 8.5 t50.5 32.5t20 59v56q-5 -7 -21 -14.5t-90 -15.5q-36 -4 -61 -13t-34.5 -23t-9.5 -29z"/>
    <glyph glyph-name="amacron.ss01" horiz-adv-x="554" d="M126 583v85h308v-85h-308zM34 139q0 77 53.5 117.5t164.5 50.5q77 7 96 21.5t19 36.5q0 23 -21.5 39t-62.5 16q-81 0 -135 -66l-74 63q35 50 89 76.5t118 26.5q94 0 148.5 -43.5t54.5 -119.5v-223q0 -19 7.5 -29t34.5 -10h3v-93q-18 -11 -56 -11q-40 0 -64 24 q-11 11 -18 33q-26 -31 -71.5 -46.5t-99.5 -15.5q-83 0 -134.5 42t-51.5 111zM151 149q0 -29 23 -45t64 -16q28 0 58.5 8.5t50.5 32.5t20 59v56q-5 -7 -21 -14.5t-90 -15.5q-36 -4 -61 -13t-34.5 -23t-9.5 -29z"/>
    <glyph glyph-name="abreve.ss01" horiz-adv-x="554" d="M276 556q-51 0 -89.5 23.5t-56.5 57t-22 61.5h91q21 -58 77 -58q57 0 76 58h92q-4 -28 -22 -61.5t-56.5 -57t-89.5 -23.5zM34 139q0 77 53.5 117.5t164.5 50.5q77 7 96 21.5t19 36.5q0 23 -21.5 39t-62.5 16q-81 0 -135 -66l-74 63q35 50 89 76.5t118 26.5 q94 0 148.5 -43.5t54.5 -119.5v-223q0 -19 7.5 -29t34.5 -10h3v-93q-18 -11 -56 -11q-40 0 -64 24q-11 11 -18 33q-26 -31 -71.5 -46.5t-99.5 -15.5q-83 0 -134.5 42t-51.5 111zM151 149q0 -29 23 -45t64 -16q28 0 58.5 8.5t50.5 32.5t20 59v56q-5 -7 -21 -14.5t-90 -15.5 q-36 -4 -61 -13t-34.5 -23t-9.5 -29z"/>
    <glyph glyph-name="aring.ss01" horiz-adv-x="554" d="M278 551q-34 0 -62.5 18.5t-39.5 43.5t-11 46t11 46t39.5 43.5t62.5 18.5q33 0 61 -18.5t39 -43.5t11 -46t-11 -46t-39 -43.5t-61 -18.5zM278 618q16 0 28 12.5t12 28.5q0 17 -12 29.5t-28 12.5q-17 0 -29.5 -12.5t-12.5 -29.5q0 -16 12.5 -28.5t29.5 -12.5zM34 139 q0 77 53.5 117.5t164.5 50.5q77 7 96 21.5t19 36.5q0 23 -21.5 39t-62.5 16q-81 0 -135 -66l-74 63q35 50 89 76.5t118 26.5q94 0 148.5 -43.5t54.5 -119.5v-223q0 -19 7.5 -29t34.5 -10h3v-93q-18 -11 -56 -11q-40 0 -64 24q-11 11 -18 33q-26 -31 -71.5 -46.5t-99.5 -15.5 q-83 0 -134.5 42t-51.5 111zM151 149q0 -29 23 -45t64 -16q28 0 58.5 8.5t50.5 32.5t20 59v56q-5 -7 -21 -14.5t-90 -15.5q-36 -4 -61 -13t-34.5 -23t-9.5 -29z"/>
    <glyph glyph-name="aringacute.ss01" horiz-adv-x="554" d="M230 801l51 145h136l-97 -145h-90zM278 551q-21 0 -47.5 10.5t-46 38t-19.5 59.5t19.5 59.5t46 38t47.5 10.5q33 0 61.5 -18.5t39.5 -43.5t11 -46t-11 -46t-39.5 -43.5t-61.5 -18.5zM278 618q17 0 29 12.5t12 28.5q0 17 -12 29.5t-29 12.5q-16 0 -29 -12.5t-13 -29.5 q0 -16 13 -28.5t29 -12.5zM34 139q0 77 53.5 117.5t164.5 50.5q77 7 96 21.5t19 36.5q0 23 -21.5 39t-62.5 16q-81 0 -135 -66l-74 63q35 50 89 76.5t118 26.5q94 0 148.5 -43.5t54.5 -119.5v-223q0 -19 7.5 -29t34.5 -10h3v-93q-18 -11 -56 -11q-40 0 -64 24q-11 11 -18 33 q-26 -31 -71.5 -46.5t-99.5 -15.5q-83 0 -134.5 42t-51.5 111zM151 149q0 -29 23 -45t64 -16q28 0 58.5 8.5t50.5 32.5t20 59v56q-5 -7 -21 -14.5t-90 -15.5q-36 -4 -61 -13t-34.5 -23t-9.5 -29z"/>
    <glyph glyph-name="aogonek.ss01" horiz-adv-x="554" d="M151 149q0 -29 23 -45t64 -16q28 0 58.5 8.5t50.5 32.5t20 59v56q-5 -7 -21 -14.5t-90 -15.5q-36 -4 -61 -13t-34.5 -23t-9.5 -29zM529 95v-93q-75 -47 -75 -93q0 -19 15 -29t35 -10q29 0 58 13l-16 -79q-28 -14 -57 -14q-34 0 -63 15.5t-42 38.5t-13 47q0 60 69 103 q-10 3 -22 11q-8 5 -15 16q-9 12 -12 27q-26 -31 -71.5 -46.5t-99.5 -15.5q-83 0 -134.5 42t-51.5 111q0 77 53.5 117.5t164.5 50.5q79 7 97 21t18 37t-21.5 39t-62.5 16q-81 0 -135 -66l-74 63q35 50 89 76.5t118 26.5q94 0 148.5 -43.5t54.5 -119.5v-223q0 -19 7.5 -29 t34.5 -10h3z"/>
    <glyph glyph-name="cacute.ss01" horiz-adv-x="504" d="M254 552l51 145h137l-98 -145h-90zM31 253q0 56 21 105.5t58.5 85.5t88 56t107.5 20q46 0 88.5 -13.5t73.5 -37.5v-120q-65 62 -155 62q-70 0 -116.5 -45t-46.5 -113t46.5 -113t116.5 -45q92 0 155 62v-120q-31 -25 -73 -38t-89 -13q-57 0 -107.5 20t-88 56t-58.5 85.5 t-21 105.5z"/>
    <glyph glyph-name="ccircumflex.ss01" horiz-adv-x="504" d="M131 566l137 121h76l138 -121h-117l-59 58l-58 -58h-117zM31 253q0 56 21 105.5t58.5 85.5t88 56t107.5 20q46 0 88.5 -13.5t73.5 -37.5v-120q-65 62 -155 62q-70 0 -116.5 -45t-46.5 -113t46.5 -113t116.5 -45q92 0 155 62v-120q-31 -25 -73 -38t-89 -13 q-57 0 -107.5 20t-88 56t-58.5 85.5t-21 105.5z"/>
    <glyph glyph-name="ccaron.ss01" horiz-adv-x="504" d="M266 576l-137 121h117l58 -58l59 58h117l-137 -121h-77zM31 253q0 56 21 105.5t58.5 85.5t88 56t107.5 20q46 0 88.5 -13.5t73.5 -37.5v-120q-65 62 -155 62q-70 0 -116.5 -45t-46.5 -113t46.5 -113t116.5 -45q92 0 155 62v-120q-31 -25 -73 -38t-89 -13q-57 0 -107.5 20 t-88 56t-58.5 85.5t-21 105.5z"/>
    <glyph glyph-name="cdotaccent.ss01" horiz-adv-x="504" d="M305 567q-25 0 -44.5 18.5t-19.5 44.5t19.5 44.5t44.5 18.5q26 0 45.5 -18.5t19.5 -44.5t-19.5 -44.5t-45.5 -18.5zM31 253q0 56 21 105.5t58.5 85.5t88 56t107.5 20q46 0 88.5 -13.5t73.5 -37.5v-120q-65 62 -155 62q-70 0 -116.5 -45t-46.5 -113t46.5 -113t116.5 -45 q92 0 155 62v-120q-31 -25 -73 -38t-89 -13q-57 0 -107.5 20t-88 56t-58.5 85.5t-21 105.5z"/>
    <glyph glyph-name="ccedilla.ss01" horiz-adv-x="504" d="M31 253q0 56 21 105.5t58.5 85.5t88 56t107.5 20q46 0 88.5 -13.5t73.5 -37.5v-120q-65 62 -155 62q-70 0 -116.5 -45t-46.5 -113t46.5 -113t116.5 -45q92 0 155 62v-120q-61 -49 -161 -51l-14 -32q27 0 46.5 -20.5t19.5 -52.5q0 -21 -10 -43t-38 -35t-66 -13 q-22 0 -47.5 7.5t-38.5 17.5l26 53q26 -15 50 -15q17 0 28 9t11 24q0 16 -12 27t-52 11l29 70q-45 10 -83.5 33.5t-66.5 57.5t-43 77t-15 91z"/>
    <glyph glyph-name="egrave.ss01" horiz-adv-x="566" d="M259 552l-97 145h136l51 -145h-90zM31 247v5q0 58 19.5 107.5t55 84.5t83.5 53.5t103 18.5q53 0 99 -19.5t79 -54t50.5 -81t17.5 -97.5l-2 -43h-386q3 -60 44 -95.5t108 -35.5q33 0 69.5 6.5t65 21t46.5 30.5v-112q-37 -26 -80.5 -38.5t-105.5 -12.5q-58 0 -107.5 18.5 t-85 53t-54.5 83.5t-19 107zM153 306h263q0 44 -36.5 76t-87.5 32q-55 0 -95.5 -31.5t-43.5 -76.5z"/>
    <glyph glyph-name="eacute.ss01" horiz-adv-x="566" d="M238 552l52 145h136l-97 -145h-91zM31 247v5q0 58 19.5 107.5t55 84.5t83.5 53.5t103 18.5q53 0 99 -19.5t79 -54t50.5 -81t17.5 -97.5l-2 -43h-386q3 -60 44 -95.5t108 -35.5q33 0 69.5 6.5t65 21t46.5 30.5v-112q-37 -26 -80.5 -38.5t-105.5 -12.5q-58 0 -107.5 18.5 t-85 53t-54.5 83.5t-19 107zM153 306h263q0 44 -36.5 76t-87.5 32q-55 0 -95.5 -31.5t-43.5 -76.5z"/>
    <glyph glyph-name="ecircumflex.ss01" horiz-adv-x="566" d="M119 566l138 121h76l137 -121h-117l-59 58l-58 -58h-117zM31 247v5q0 58 19.5 107.5t55 84.5t83.5 53.5t103 18.5q53 0 99 -19.5t79 -54t50.5 -81t17.5 -97.5l-2 -43h-386q3 -60 44 -95.5t108 -35.5q33 0 69.5 6.5t65 21t46.5 30.5v-112q-37 -26 -80.5 -38.5 t-105.5 -12.5q-58 0 -107.5 18.5t-85 53t-54.5 83.5t-19 107zM153 306h263q0 44 -36.5 76t-87.5 32q-55 0 -95.5 -31.5t-43.5 -76.5z"/>
    <glyph glyph-name="ecaron.ss01" horiz-adv-x="566" d="M261 576l-137 121h118l58 -58l58 58h117l-137 -121h-77zM31 247v5q0 58 19.5 107.5t55 84.5t83.5 53.5t103 18.5q53 0 99 -19.5t79 -54t50.5 -81t17.5 -97.5l-2 -43h-386q3 -60 44 -95.5t108 -35.5q33 0 69.5 6.5t65 21t46.5 30.5v-112q-37 -26 -80.5 -38.5t-105.5 -12.5 q-58 0 -107.5 18.5t-85 53t-54.5 83.5t-19 107zM153 306h263q0 44 -36.5 76t-87.5 32q-55 0 -95.5 -31.5t-43.5 -76.5z"/>
    <glyph glyph-name="edieresis.ss01" horiz-adv-x="566" d="M395 567q-25 0 -44 18t-19 44t19 44t44 18t44.5 -18.5t19.5 -43.5t-19.5 -43.5t-44.5 -18.5zM188 567q-25 0 -44.5 18.5t-19.5 43.5t19.5 43.5t44.5 18.5t44.5 -18.5t19.5 -43.5t-19.5 -43.5t-44.5 -18.5zM31 247v5q0 58 19.5 107.5t55 84.5t83.5 53.5t103 18.5 q53 0 99 -19.5t79 -54t50.5 -81t17.5 -97.5l-2 -43h-386q3 -60 44 -95.5t108 -35.5q33 0 69.5 6.5t65 21t46.5 30.5v-112q-37 -26 -80.5 -38.5t-105.5 -12.5q-58 0 -107.5 18.5t-85 53t-54.5 83.5t-19 107zM153 306h263q0 44 -36.5 76t-87.5 32q-55 0 -95.5 -31.5 t-43.5 -76.5z"/>
    <glyph glyph-name="emacron.ss01" horiz-adv-x="566" d="M137 583v85h308v-85h-308zM31 247v5q0 58 19.5 107.5t55 84.5t83.5 53.5t103 18.5q53 0 99 -19.5t79 -54t50.5 -81t17.5 -97.5l-2 -43h-386q3 -60 44 -95.5t108 -35.5q33 0 69.5 6.5t65 21t46.5 30.5v-112q-37 -26 -80.5 -38.5t-105.5 -12.5q-58 0 -107.5 18.5t-85 53 t-54.5 83.5t-19 107zM153 306h263q0 44 -36.5 76t-87.5 32q-55 0 -95.5 -31.5t-43.5 -76.5z"/>
    <glyph glyph-name="ebreve.ss01" horiz-adv-x="566" d="M293 556q-51 0 -89.5 23.5t-56.5 57t-22 61.5h92q19 -58 76 -58q29 0 48.5 15.5t28.5 42.5h91q-4 -28 -22 -61.5t-56.5 -57t-89.5 -23.5zM31 247v5q0 58 19.5 107.5t55 84.5t83.5 53.5t103 18.5q53 0 99 -19.5t79 -54t50.5 -81t17.5 -97.5l-2 -43h-386q3 -60 44 -95.5 t108 -35.5q33 0 69.5 6.5t65 21t46.5 30.5v-112q-37 -26 -80.5 -38.5t-105.5 -12.5q-58 0 -107.5 18.5t-85 53t-54.5 83.5t-19 107zM153 306h263q0 44 -36.5 76t-87.5 32q-55 0 -95.5 -31.5t-43.5 -76.5z"/>
    <glyph glyph-name="edotaccent.ss01" horiz-adv-x="566" d="M291 567q-25 0 -44.5 18.5t-19.5 44.5t19.5 44.5t44.5 18.5q26 0 45.5 -18.5t19.5 -44.5t-19.5 -44.5t-45.5 -18.5zM31 247v5q0 58 19.5 107.5t55 84.5t83.5 53.5t103 18.5q53 0 99 -19.5t79 -54t50.5 -81t17.5 -97.5l-2 -43h-386q3 -60 44 -95.5t108 -35.5 q33 0 69.5 6.5t65 21t46.5 30.5v-112q-37 -26 -80.5 -38.5t-105.5 -12.5q-58 0 -107.5 18.5t-85 53t-54.5 83.5t-19 107zM153 306h263q0 44 -36.5 76t-87.5 32q-55 0 -95.5 -31.5t-43.5 -76.5z"/>
    <glyph glyph-name="eogonek.ss01" horiz-adv-x="566" d="M538 264l-2 -43h-386q3 -60 44 -95.5t108 -35.5q33 0 69.5 6.5t65 21t46.5 30.5v-108l-34 -21q-57 -29 -82.5 -55.5t-25.5 -53.5q0 -19 14.5 -29t33.5 -10q27 0 56 13l-17 -80q-26 -14 -55 -14q-33 0 -62.5 16t-41.5 40t-12 45q0 54 56 97l-16 -1q-58 0 -107.5 18.5 t-85 53t-54.5 83t-19 105.5v5q0 58 19.5 107.5t55 84.5t83.5 53.5t103 18.5q53 0 99 -19.5t79 -54t50.5 -81t17.5 -97.5zM153 306h263q0 44 -36.5 76t-87.5 32q-55 0 -95.5 -31.5t-43.5 -76.5z"/>
    <glyph glyph-name="gcircumflex.ss01" horiz-adv-x="615" d="M141 566l138 121h76l137 -121h-117l-59 58l-58 -58h-117zM31 254q0 53 19 101.5t53.5 84t81 55.5t98.5 20q61 0 104.5 -24t56.5 -60v73h120v-420q0 -118 -21 -168.5t-65 -82.5q-34 -25 -82 -39t-100 -14q-65 0 -124.5 14.5t-98.5 42.5v114q17 -16 46.5 -32.5t72.5 -26 t86 -9.5q79 0 120 30q22 15 35.5 44t13.5 82v31q-18 -32 -61.5 -53t-102.5 -21q-52 0 -98.5 19.5t-81 54.5t-53.5 83t-19 101zM150 254q0 -40 19 -76.5t55 -56t75 -19.5q65 0 109.5 43.5t44.5 108.5q0 64 -44.5 108t-109.5 44q-63 0 -106 -44t-43 -108z"/>
    <glyph glyph-name="gbreve.ss01" horiz-adv-x="615" d="M311 556q-34 0 -71.5 14t-64.5 50t-33 78h91q21 -58 78 -58q28 0 47.5 15.5t28.5 42.5h92q-4 -28 -22 -61.5t-56.5 -57t-89.5 -23.5zM31 254q0 53 19 101.5t53.5 84t81 55.5t98.5 20q61 0 104.5 -24t56.5 -60v73h120v-420q0 -118 -21 -168.5t-65 -82.5q-34 -25 -82 -39 t-100 -14q-65 0 -124.5 14.5t-98.5 42.5v114q17 -16 46.5 -32.5t72.5 -26t86 -9.5q79 0 120 30q22 15 35.5 44t13.5 82v31q-18 -32 -61.5 -53t-102.5 -21q-52 0 -98.5 19.5t-81 54.5t-53.5 83t-19 101zM150 254q0 -40 19 -76.5t55 -56t75 -19.5q65 0 109.5 43.5t44.5 108.5 q0 64 -44.5 108t-109.5 44q-63 0 -106 -44t-43 -108z"/>
    <glyph glyph-name="gdotaccent.ss01" horiz-adv-x="615" d="M314 567q-26 0 -45.5 18.5t-19.5 44.5t19.5 44.5t45.5 18.5q25 0 44.5 -18.5t19.5 -44.5t-19.5 -44.5t-44.5 -18.5zM31 254q0 53 19 101.5t53.5 84t81 55.5t98.5 20q61 0 104.5 -24t56.5 -60v73h120v-420q0 -118 -21 -168.5t-65 -82.5q-34 -25 -82 -39t-100 -14 q-65 0 -124.5 14.5t-98.5 42.5v114q17 -16 46.5 -32.5t72.5 -26t86 -9.5q79 0 120 30q22 15 35.5 44t13.5 82v31q-18 -32 -61.5 -53t-102.5 -21q-52 0 -98.5 19.5t-81 54.5t-53.5 83t-19 101zM150 254q0 -40 19 -76.5t55 -56t75 -19.5q65 0 109.5 43.5t44.5 108.5 q0 64 -44.5 108t-109.5 44q-63 0 -106 -44t-43 -108z"/>
    <glyph glyph-name="gcommaaccent.ss01" horiz-adv-x="615" d="M259 552l51 145h137l-97 -145h-91zM31 254q0 53 19 101.5t53.5 84t81 55.5t98.5 20q61 0 104.5 -24t56.5 -60v73h120v-420q0 -118 -21 -168.5t-65 -82.5q-34 -25 -82 -39t-100 -14q-65 0 -124.5 14.5t-98.5 42.5v114q17 -16 46.5 -32.5t72.5 -26t86 -9.5q79 0 120 30 q22 15 35.5 44t13.5 82v31q-18 -32 -61.5 -53t-102.5 -21q-52 0 -98.5 19.5t-81 54.5t-53.5 83t-19 101zM150 254q0 -40 19 -76.5t55 -56t75 -19.5q65 0 109.5 43.5t44.5 108.5q0 64 -44.5 108t-109.5 44q-63 0 -106 -44t-43 -108z"/>
    <glyph glyph-name="jcircumflex.ss07" horiz-adv-x="258" d="M69 -193v697h120v-697h-120zM-23 566l115 121h76l114 -121h-110l-42 63l-42 -63h-111z"/>
    <glyph glyph-name="kcommaaccent.ss03" horiz-adv-x="496" d="M196 -48h136l-97 -145h-91zM53 0v697h119v-408l170 215h136l-191 -241l207 -263h-140l-182 233v-233h-119z"/>
    <glyph glyph-name="lacute.ss01" horiz-adv-x="290" d="M53 722l51 145h137l-98 -145h-90zM51 149v548h120v-532q0 -37 14 -53.5t46 -16.5q21 0 36 4v-107q-21 -6 -57 -6q-159 0 -159 163z"/>
    <glyph glyph-name="lcaron.ss01" horiz-adv-x="382" d="M201 552l51 145h137l-97 -145h-91zM51 149v548h120v-532q0 -37 14 -53.5t46 -16.5q21 0 36 4v-107q-21 -6 -57 -6q-159 0 -159 163z"/>
    <glyph glyph-name="lcommaaccent.ss01" horiz-adv-x="290" d="M70 -48h137l-98 -145h-90zM51 149v548h120v-532q0 -37 14 -53.5t46 -16.5q21 0 36 4v-107q-21 -6 -57 -6q-159 0 -159 163z"/>
    <glyph glyph-name="ldot.ss01" horiz-adv-x="372" d="M279 302q-26 0 -45 18.5t-19 44.5t19 44.5t45 18.5t45 -18.5t19 -44.5t-19 -44.5t-45 -18.5zM51 149v548h120v-532q0 -37 14 -53.5t46 -16.5q21 0 36 4v-107q-21 -6 -57 -6q-159 0 -159 163z"/>
    <glyph glyph-name="lslash.ss01" horiz-adv-x="313" d="M72 149v129l-68 -38v116l68 38v303h119v-242l87 49v-115l-87 -50v-174q0 -36 14 -53t46 -17q21 0 36 4v-107q-19 -6 -57 -6q-158 0 -158 163z"/>
    <glyph glyph-name="racute.ss08" horiz-adv-x="357" d="M124 552l51 145h136l-97 -145h-90zM51 0v347q0 171 187 171q51 0 88 -8v-107q-28 6 -63 6q-46 0 -69.5 -17.5t-23.5 -67.5v-324h-119z"/>
    <glyph glyph-name="rcommaaccent.ss08" horiz-adv-x="357" d="M52 -48h136l-97 -145h-91zM51 0v347q0 171 187 171q51 0 88 -8v-107q-28 6 -63 6q-46 0 -69.5 -17.5t-23.5 -67.5v-324h-119z"/>
    <glyph glyph-name="rcaron.ss08" horiz-adv-x="357" d="M162 576l-129 121h113l54 -60l54 60h113l-129 -121h-76zM51 0v347q0 171 187 171q51 0 88 -8v-107q-28 6 -63 6q-46 0 -69.5 -17.5t-23.5 -67.5v-324h-119z"/>
    <glyph glyph-name="sacute.ss01" horiz-adv-x="441" d="M163 552l52 145h136l-97 -145h-91zM33 41v118q74 -67 187 -67q40 0 62.5 13t22.5 35q0 15 -14.5 29t-69 35.5t-65.5 26.5q-107 47 -107 142q0 67 52 106.5t129 39.5q82 0 136 -34v-109q-25 16 -59.5 27t-71.5 11q-33 0 -53 -11t-20 -32q0 -4 3.5 -14t18 -18.5t63.5 -26.5 q64 -25 98.5 -45t55 -50t20.5 -75q0 -29 -11.5 -56.5t-36 -50t-64 -35.5t-91.5 -13q-106 0 -185 54z"/>
    <glyph glyph-name="scircumflex.ss01" horiz-adv-x="441" d="M53 566l137 121h76l138 -121h-117l-59 58l-58 -58h-117zM33 41v118q74 -67 187 -67q40 0 62.5 13t22.5 35q0 15 -14.5 29t-69 35.5t-65.5 26.5q-107 47 -107 142q0 67 52 106.5t129 39.5q82 0 136 -34v-109q-25 16 -59.5 27t-71.5 11q-33 0 -53 -11t-20 -32q0 -4 3.5 -14 t18 -18.5t63.5 -26.5q64 -25 98.5 -45t55 -50t20.5 -75q0 -29 -11.5 -56.5t-36 -50t-64 -35.5t-91.5 -13q-106 0 -185 54z"/>
    <glyph glyph-name="scaron.ss01" horiz-adv-x="441" d="M194 576l-137 121h117l58 -58l58 58h118l-137 -121h-77zM33 41v118q74 -67 187 -67q40 0 62.5 13t22.5 35q0 15 -14.5 29t-69 35.5t-65.5 26.5q-107 47 -107 142q0 67 52 106.5t129 39.5q82 0 136 -34v-109q-25 16 -59.5 27t-71.5 11q-33 0 -53 -11t-20 -32q0 -4 3.5 -14 t18 -18.5t63.5 -26.5q64 -25 98.5 -45t55 -50t20.5 -75q0 -29 -11.5 -56.5t-36 -50t-64 -35.5t-91.5 -13q-106 0 -185 54z"/>
    <glyph glyph-name="scommaaccent.ss01" horiz-adv-x="441" d="M150 -48h137l-97 -145h-91zM33 41v118q74 -67 187 -67q40 0 62.5 13t22.5 35q0 15 -14.5 29t-69 35.5t-65.5 26.5q-107 47 -107 142q0 67 52 106.5t129 39.5q82 0 136 -34v-109q-25 16 -59.5 27t-71.5 11q-33 0 -53 -11t-20 -32q0 -4 3.5 -14t18 -18.5t63.5 -26.5 q64 -25 98.5 -45t55 -50t20.5 -75q0 -29 -11.5 -56.5t-36 -50t-64 -35.5t-91.5 -13q-106 0 -185 54z"/>
    <glyph glyph-name="scedilla.ss01" horiz-adv-x="441" d="M33 41v118q74 -67 187 -67q40 0 62.5 13t22.5 35q0 15 -14.5 29t-69 35.5t-65.5 26.5q-107 47 -107 142q0 67 52 106.5t129 39.5q82 0 136 -34v-109q-25 16 -59.5 27t-71.5 11q-33 0 -53 -11t-20 -32q0 -4 3.5 -14t18 -18.5t63.5 -26.5q64 -25 98.5 -45t55 -50t20.5 -75 q0 -33 -17 -67.5t-56 -57.5t-92 -28l-16 -35q27 0 46.5 -20.5t19.5 -52.5q0 -21 -10 -43t-38 -35t-66 -13q-22 0 -47.5 7.5t-38.5 17.5l26 53q26 -15 50 -15q17 0 28 9t11 24q0 16 -12 27t-52 11l27 65q-86 7 -151 52z"/>
    <glyph glyph-name="glyph340" horiz-adv-x="580" d="M52 0v531q0 37 14.5 70t40.5 58t61.5 39t74.5 14q28 0 60 -9t60.5 -31.5t48.5 -57.5t20 -80q0 -52 -33 -88q42 -13 78 -44.5t55.5 -74.5t19.5 -94t-18.5 -96.5t-52.5 -79t-80.5 -52.5t-99.5 -19q-27 0 -59 5v113q21 -8 51 -8q56 0 97.5 40.5t41.5 96.5q0 54 -41.5 93.5 t-97.5 39.5q-25 0 -51 -8v88q36 5 56 26t20 54q0 30 -21.5 53t-50.5 23q-30 0 -51.5 -23t-21.5 -55v-524h-121z"/>
    <glyph glyph-name="tcaron.ss01" horiz-adv-x="405" d="M242 552l51 145h136l-97 -145h-90zM83 157v238h-63v109h63v193h120v-193h111v-109h-111v-225q0 -40 15.5 -57.5t47.5 -17.5q22 0 42 4v-107q-25 -6 -62 -6q-163 0 -163 171z"/>
    <glyph glyph-name="tcommaaccent.ss01" horiz-adv-x="334" d="M102 -48h136l-97 -145h-90zM83 157v238h-63v109h63v193h120v-193h111v-109h-111v-225q0 -40 15.5 -57.5t47.5 -17.5q22 0 42 4v-107q-25 -6 -62 -6q-163 0 -163 171z"/>
    <glyph glyph-name="tbar.ss01" horiz-adv-x="336" d="M83 157v90h-61v101h61v50h-61v106h61v193h119v-193h110v-106h-109v-50h109v-101h-109v-85q0 -36 16 -51.5t47 -15.5q22 0 42 4v-107q-25 -6 -62 -6q-163 0 -163 171z"/>
    <glyph glyph-name="ugrave.ss09" horiz-adv-x="547" d="M241 552l-98 145h137l51 -145h-90zM47 192v312h120v-295q0 -51 27.5 -81.5t74.5 -30.5q22 0 48 11t44 40t18 66v290h120v-504h-120v70q-17 -36 -56 -58t-90 -22q-87 0 -136.5 54.5t-49.5 147.5z"/>
    <glyph glyph-name="uacute.ss09" horiz-adv-x="547" d="M223 552l51 145h136l-97 -145h-90zM47 192v312h120v-295q0 -51 27.5 -81.5t74.5 -30.5q22 0 48 11t44 40t18 66v290h120v-504h-120v70q-17 -36 -56 -58t-90 -22q-87 0 -136.5 54.5t-49.5 147.5z"/>
    <glyph glyph-name="ucircumflex.ss09" horiz-adv-x="547" d="M102 566l138 121h76l137 -121h-117l-58 58l-59 -58h-117zM47 192v312h120v-295q0 -51 27.5 -81.5t74.5 -30.5q22 0 48 11t44 40t18 66v290h120v-504h-120v70q-17 -36 -56 -58t-90 -22q-87 0 -136.5 54.5t-49.5 147.5z"/>
    <glyph glyph-name="utilde.ss09" horiz-adv-x="547" d="M96 588q5 36 23.5 64t43.5 38.5t47 10.5q19 0 36 -5.5t49.5 -21t50.5 -15.5q35 0 45 42l70 -9q-8 -56 -36.5 -88t-80.5 -32q-32 0 -74.5 21t-62.5 21q-34 0 -42 -35zM47 192v312h120v-295q0 -51 27.5 -81.5t74.5 -30.5q22 0 48 11t44 40t18 66v290h120v-504h-120v70 q-17 -36 -56 -58t-90 -22q-87 0 -136.5 54.5t-49.5 147.5z"/>
    <glyph glyph-name="udieresis.ss09" horiz-adv-x="547" d="M381 567q-26 0 -45 18t-19 44t19 44t45 18q25 0 44 -18.5t19 -43.5t-19 -43.5t-44 -18.5zM173 567q-26 0 -45 18t-19 44t19 44t45 18q25 0 44 -18t19 -44t-19 -44t-44 -18zM47 192v312h120v-295q0 -51 27.5 -81.5t74.5 -30.5q22 0 48 11t44 40t18 66v290h120v-504h-120 v70q-17 -36 -56 -58t-90 -22q-87 0 -136.5 54.5t-49.5 147.5z"/>
    <glyph glyph-name="umacron.ss09" horiz-adv-x="547" d="M123 583v85h308v-85h-308zM47 192v312h120v-295q0 -51 27.5 -81.5t74.5 -30.5q22 0 48 11t44 40t18 66v290h120v-504h-120v70q-17 -36 -56 -58t-90 -22q-87 0 -136.5 54.5t-49.5 147.5z"/>
    <glyph glyph-name="ubreve.ss09" horiz-adv-x="547" d="M278 556q-34 0 -71.5 14t-64.5 50t-33 78h92q9 -27 28.5 -42.5t48.5 -15.5q57 0 76 58h92q-4 -28 -22 -61.5t-56.5 -57t-89.5 -23.5zM47 192v312h120v-295q0 -51 27.5 -81.5t74.5 -30.5q22 0 48 11t44 40t18 66v290h120v-504h-120v70q-17 -36 -56 -58t-90 -22 q-87 0 -136.5 54.5t-49.5 147.5z"/>
    <glyph glyph-name="uring.ss09" horiz-adv-x="547" d="M277 528q-21 0 -47.5 11t-46 38t-19.5 59q0 20 11.5 45.5t40 44.5t61.5 19q21 0 47 -11t45 -38.5t19 -59.5q0 -20 -11 -45.5t-39 -44t-61 -18.5zM277 595q17 0 29 12.5t12 28.5q0 17 -12 29t-29 12t-29.5 -12t-12.5 -29q0 -16 12.5 -28.5t29.5 -12.5zM47 192v312h120 v-295q0 -51 27.5 -81.5t74.5 -30.5q22 0 48 11t44 40t18 66v290h120v-504h-120v70q-17 -36 -56 -58t-90 -22q-87 0 -136.5 54.5t-49.5 147.5z"/>
    <glyph glyph-name="uhungarumlaut.ss09" horiz-adv-x="547" d="M311 552l67 145h130l-113 -145h-84zM140 552l68 145h129l-113 -145h-84zM47 192v312h120v-295q0 -51 27.5 -81.5t74.5 -30.5q22 0 48 11t44 40t18 66v290h120v-504h-120v70q-17 -36 -56 -58t-90 -22q-87 0 -136.5 54.5t-49.5 147.5z"/>
    <glyph glyph-name="uogonek.ss09" horiz-adv-x="550" d="M47 192v312h120v-295q0 -51 27.5 -81.5t74.5 -30.5q22 0 48 11t44 40t18 66v290h120v-504q-37 -24 -54.5 -48t-17.5 -43t14.5 -29t35.5 -10q29 0 58 13l-17 -79q-28 -14 -57 -14q-34 0 -61 14.5t-41.5 36.5t-14.5 50q0 25 17 54t58 55h-40v70q-17 -36 -56 -58t-90 -22 q-87 0 -136.5 54.5t-49.5 147.5z"/>
    <glyph glyph-name="wgrave.ss05" horiz-adv-x="782" d="M360 552l-97 145h136l52 -145h-91zM224 0l-218 504h120l152 -356l56 131l-98 225h106l49 -115l49 115h106l-99 -225l57 -131l151 356h121l-218 -504h-93l-74 172l-75 -172h-92z"/>
    <glyph glyph-name="wacute.ss05" horiz-adv-x="782" d="M343 552l51 145h136l-96 -145h-91zM224 0l-218 504h120l152 -356l56 131l-98 225h106l49 -115l49 115h106l-99 -225l57 -131l151 356h121l-218 -504h-93l-74 172l-75 -172h-92z"/>
    <glyph glyph-name="wcircumflex.ss05" horiz-adv-x="782" d="M215 566l138 121h76l137 -121h-117l-58 58l-59 -58h-117zM224 0l-218 504h120l152 -356l56 131l-98 225h106l49 -115l49 115h106l-99 -225l57 -131l151 356h121l-218 -504h-93l-74 172l-75 -172h-92z"/>
    <glyph glyph-name="wdieresis.ss05" horiz-adv-x="782" d="M508 567q-26 0 -45 18.5t-19 43.5q0 26 19 44t45 18q25 0 44 -18t19 -44q0 -25 -19 -43.5t-44 -18.5zM290 567q-25 0 -44 18.5t-19 43.5q0 26 19 44t44 18t44.5 -18.5t19.5 -43.5t-19.5 -43.5t-44.5 -18.5zM224 0l-218 504h120l152 -356l56 131l-98 225h106l49 -115 l49 115h106l-99 -225l57 -131l151 356h121l-218 -504h-93l-74 172l-75 -172h-92z"/>
    <glyph glyph-name="ygrave.ss01" horiz-adv-x="550" d="M250 552l-97 145h137l52 -145h-92zM80 -101q23 -8 56 -8q28 0 44 11q17 11 29 43l13 36l-211 523h121l148 -380l139 380h121l-226 -586q-22 -59 -54 -90q-45 -42 -121 -42q-33 0 -59 8v105z"/>
    <glyph glyph-name="yacute.ss01" horiz-adv-x="550" d="M225 552l51 145h137l-98 -145h-90zM80 -101q23 -8 56 -8q28 0 44 11q17 11 29 43l13 36l-211 523h121l148 -380l139 380h121l-226 -586q-22 -59 -54 -90q-45 -42 -121 -42q-33 0 -59 8v105z"/>
    <glyph glyph-name="ycircumflex.ss01" horiz-adv-x="550" d="M106 566l137 121h76l138 -121h-117l-59 58l-58 -58h-117zM80 -101q23 -8 56 -8q28 0 44 11q17 11 29 43l13 36l-211 523h121l148 -380l139 380h121l-226 -586q-22 -59 -54 -90q-45 -42 -121 -42q-33 0 -59 8v105z"/>
    <glyph glyph-name="ydieresis.ss01" horiz-adv-x="550" d="M385 567q-25 0 -44 18t-19 44t19 44t44 18q26 0 45 -18t19 -44t-19 -44t-45 -18zM177 567q-25 0 -44 18.5t-19 43.5t19 43.5t44 18.5q26 0 45 -18t19 -44t-19 -44t-45 -18zM80 -101q23 -8 56 -8q28 0 44 11q17 11 29 43l13 36l-211 523h121l148 -380l139 380h121 l-226 -586q-22 -59 -54 -90q-45 -42 -121 -42q-33 0 -59 8v105z"/>
    <glyph glyph-name="f_j.liga.ss07" horiz-adv-x="548" d="M110 0v395h-83v109h83v25q0 57 13 91.5t42 56.5q22 16 54.5 25t89.5 9q52 0 82 -5v-102q-26 5 -67 5q-51 0 -75 -16.5t-24 -54.5v-34h270v-697h-119v588h-150v-395h-116z"/>
    <glyph glyph-name="uniFB02.aalt" horiz-adv-x="642" d="M109 0v395h-82v109h82v25q0 43 10 81.5t45 67.5q19 16 47.5 24.5t77.5 8.5q30 0 52 -4v-103q-14 5 -46 5q-36 0 -53 -16.5t-17 -54.5v-34h99v-109h-99v-395h-116zM403 149v548h119v-532q0 -36 14 -53t46 -17q21 0 36 4v-107q-21 -6 -57 -6q-158 0 -158 163z"/>
    <glyph glyph-name="f_f_j.liga.ss07" horiz-adv-x="813" d="M109 0v395h-82v109h82v25q0 92 43 137t133 45q31 0 51 -4v-103q-13 5 -43 5q-35 0 -52 -16.5t-17 -54.5v-34h155v25q0 43 10 81.5t45 66.5q22 16 54.5 25t90.5 9q51 0 81 -5v-102q-26 5 -66 5q-51 0 -75 -16.5t-24 -54.5v-34h269v-697h-119v588h-150v-395h-116v395h-154 v-395h-116z"/>
    <glyph glyph-name="uniFB04.aalt" horiz-adv-x="901" d="M109 0v395h-82v109h82v25q0 92 43 137t133 45q31 0 51 -4v-103q-13 5 -43 5q-35 0 -52 -16.5t-17 -54.5v-34h155v25q0 92 44 137t136 45q31 0 51 -4v-103q-13 5 -45 5q-36 0 -53.5 -16.5t-17.5 -54.5v-34h100v-109h-99v-395h-116v395h-154v-395h-116zM662 149v548h120 v-532q0 -37 14 -53.5t46 -16.5q21 0 36 4v-107q-21 -6 -58 -6q-158 0 -158 163z"/>
    <glyph glyph-name="zero.oldstyle" horiz-adv-x="580" d="M502 401q39 -66 39 -149t-39 -149q-22 -38 -60 -67t-79 -40t-73 -11q-50 0 -96 19t-74.5 47t-42.5 52q-38 64 -38 149t38 149q31 53 88 85.5t125 32.5q32 0 73 -11t79 -40t60 -67zM410 174q14 33 14 78q0 44 -14 78q-16 35 -48.5 57t-71.5 22t-72 -22t-48 -57 q-14 -31 -14 -78q0 -48 13 -78q16 -35 49 -57t72 -22t71.5 22t48.5 57z"/>
    <glyph glyph-name="one.oldstyle" horiz-adv-x="388" d="M188 0v350l-107 -71l-61 97l189 128h101v-504h-122z"/>
    <glyph glyph-name="two.oldstyle" horiz-adv-x="519" d="M26 0v81l271 175q57 38 57 81q0 31 -27 52.5t-65 21.5q-20 0 -45 -10.5t-43 -37t-18 -57.5h-112q0 43 17 82.5t47.5 69t71 46t84.5 16.5q43 0 81 -13.5t66 -37t43 -55t15 -66.5q0 -99 -90 -152l-119 -83h233v-113h-467z"/>
    <glyph glyph-name="three.oldstyle" horiz-adv-x="534" d="M7 6l99 59q19 -37 55.5 -57t86.5 -20q57 0 94.5 27.5t37.5 71.5q0 22 -11.5 47t-43.5 40.5t-79 15.5q-35 0 -80 -15l-40 68l182 148h-245v113h414v-85l-172 -140h13q28 -1 59 -11.5t58 -33.5t46 -60t19 -85q0 -45 -17.5 -84.5t-50.5 -68.5t-80 -45t-102 -16 q-61 0 -113.5 20.5t-83.5 51.5t-46 59z"/>
    <glyph glyph-name="four.oldstyle" horiz-adv-x="586" d="M38 0v76l210 428h129l-196 -396h218v142h122v-417h-122v167h-361z"/>
    <glyph glyph-name="five.oldstyle" horiz-adv-x="538" d="M19 10l103 58q17 -36 52.5 -58t81.5 -22q24 0 52.5 10.5t49 37.5t20.5 60q0 22 -11.5 48.5t-41 45t-64.5 18.5q-27 0 -55 -10t-47 -25l-94 26l55 305h344v-113h-249l-19 -100q35 14 88 14q58 0 111 -28.5t80.5 -78.5t27.5 -99q0 -48 -19 -89.5t-53 -71.5t-79.5 -46.5 t-95.5 -16.5q-80 0 -142.5 37t-94.5 98z"/>
    <glyph glyph-name="six.oldstyle" horiz-adv-x="548" d="M32 222q0 26 9 60t30 71t62 99l163 245h138l-167 -247l29 3q38 0 77 -16.5t71 -47.5t51.5 -74.5t19.5 -92.5q0 -46 -19 -89t-53 -75.5t-78.5 -51t-92.5 -18.5t-92 18.5t-77.5 51t-52 75.5t-18.5 89zM151 222q0 -49 36 -84.5t85 -35.5q50 0 86 35.5t36 84.5q0 23 -12 51.5 t-43 49.5t-67 21t-66.5 -21t-42.5 -49.5t-12 -51.5z"/>
    <glyph glyph-name="seven.oldstyle" horiz-adv-x="510" d="M82 -193l263 584h-318v113h451v-95l-270 -602h-126z"/>
    <glyph glyph-name="eight.oldstyle" horiz-adv-x="562" d="M34 222q0 29 10.5 64.5t37 66.5t61.5 49q-27 20 -43 50.5t-16 66.5q0 28 10.5 60t35 61t63.5 49.5t88 20.5q29 0 62 -10t66.5 -37t51 -66.5t17.5 -77.5q0 -36 -16 -66t-44 -51q49 -24 80 -71t31 -109q0 -46 -19 -89t-53.5 -75.5t-80 -51t-95.5 -18.5t-95.5 18.5t-79.5 51 t-53 75t-19 89.5zM281 435q34 0 58.5 25t24.5 59q0 33 -24.5 57t-58.5 24t-58.5 -24t-24.5 -57q0 -34 24.5 -59t58.5 -25zM157 222q0 -23 12.5 -51t43.5 -48.5t68 -20.5q51 0 87.5 35.5t36.5 84.5q0 30 -16.5 59t-46.5 45t-61 16q-51 0 -87.5 -35.5t-36.5 -84.5z"/>
    <glyph glyph-name="nine.oldstyle" horiz-adv-x="549" d="M114 0l167 247l-29 -3q-38 0 -77 16.5t-71.5 47.5t-51.5 74.5t-19 92.5q0 46 19 89t52.5 75.5t78 51t93.5 18.5q48 0 92 -18.5t77.5 -51t52 -75.5t18.5 -89q0 -26 -9.5 -60.5t-31 -72.5t-62.5 -100l-160 -242h-139zM276 353q36 0 66.5 21t42.5 49.5t12 51.5 q0 49 -36 84.5t-85 35.5q-23 0 -52 -12t-50 -42t-21 -66q0 -23 12.5 -51.5t43.5 -49.5t67 -21z"/>
    <glyph glyph-name="zero.tnum" horiz-adv-x="549" d="M42 197q-3 34 -3 152q0 117 3 151q3 32 17.5 67.5t47 71t78 53.5t89.5 18t84.5 -16t72 -44.5t51.5 -67.5t24 -82q3 -34 3 -151q0 -118 -3 -152q-3 -32 -17.5 -67.5t-43 -67t-72.5 -53.5t-99 -22q-44 0 -84.5 16t-72 44.5t-51.5 67.5t-24 82zM164 206q2 -21 14 -46 t38.5 -42t57.5 -17q20 0 44.5 10t43.5 36t22 59q3 28 3 143q0 112 -3 140q-2 21 -14 46.5t-38.5 43t-57.5 17.5t-57.5 -17.5t-38.5 -43t-14 -46.5q-3 -28 -3 -140q0 -115 3 -143z"/>
    <glyph glyph-name="one.tnum" horiz-adv-x="549" d="M284 0v549l-158 -102l-61 97l233 153h109v-697h-123z"/>
    <glyph glyph-name="two.tnum" horiz-adv-x="549" d="M36 0v81l305 324q42 45 42 95q0 19 -10 42.5t-36 40.5t-57 17q-32 0 -59.5 -18.5t-38.5 -44.5t-11 -47h-114q0 44 17.5 84.5t48.5 71t72 47.5t85 17q45 0 85.5 -16t70 -45t46 -67.5t16.5 -81.5q0 -89 -82 -175l-197 -212h292v-113h-475z"/>
    <glyph glyph-name="three.tnum" horiz-adv-x="549" d="M10 128l99 58q9 -19 27 -39t49 -32.5t68 -12.5q58 0 96.5 34.5t38.5 89.5q0 24 -13 53t-48.5 49t-86.5 20q-41 0 -82 -13l-41 68l196 181h-246v113h414v-87l-182 -170l14 1q41 -3 77 -20t63 -45.5t41.5 -66.5t14.5 -80q0 -37 -12 -78t-46 -81.5t-87.5 -61t-108.5 -20.5 q-83 0 -148.5 38t-96.5 102z"/>
    <glyph glyph-name="four.tnum" horiz-adv-x="549" d="M35 140v85l226 472h129l-215 -446h210v139h122v-390h-122v140h-350z"/>
    <glyph glyph-name="five.tnum" horiz-adv-x="549" d="M14 129l101 58q17 -38 53 -61.5t79 -23.5q55 0 93 37t38 93q0 57 -36 94t-89 37q-27 0 -53 -8.5t-43 -23.5l-91 23l61 343h333v-113h-239l-20 -125q29 9 68 9q37 0 77.5 -13t75 -43t58 -76.5t23.5 -102.5q0 -38 -13 -80t-49 -83t-89 -61.5t-105 -20.5q-55 0 -106 22.5 t-82 56t-45 62.5z"/>
    <glyph glyph-name="six.tnum" horiz-adv-x="550" d="M32 229q0 25 11.5 67.5t81.5 154.5l151 246h136l-153 -246q15 7 42 7q38 0 77.5 -16t72 -46.5t52 -73t19.5 -92.5q0 -48 -19 -92t-53 -77t-79.5 -51.5t-94.5 -18.5q-48 0 -93 18.5t-79 51.5t-53 76.5t-19 91.5zM156 228q0 -52 35 -87.5t85 -35.5t86.5 36.5t36.5 86.5 q0 49 -36.5 85.5t-86.5 36.5q-24 0 -52 -12t-48 -42.5t-20 -67.5z"/>
    <glyph glyph-name="seven.tnum" horiz-adv-x="549" d="M88 0l303 584h-364v113h500v-95l-310 -602h-129z"/>
    <glyph glyph-name="eight.tnum" horiz-adv-x="549" d="M34 222q0 29 10.5 64.5t37 66.5t61.5 49q-27 20 -43.5 50.5t-16.5 66.5q0 78 56.5 134.5t134.5 56.5q38 0 69 -13t56 -34t45.5 -58.5t20.5 -85.5q0 -36 -16 -66t-44 -51q35 -17 62 -48t37.5 -66.5t10.5 -65.5q0 -47 -18.5 -89.5t-51.5 -75t-77.5 -51t-93.5 -18.5 q-36 0 -76.5 12.5t-81 45.5t-61.5 81t-21 95zM274 435q31 0 53.5 25t22.5 59q0 33 -22.5 57t-53.5 24t-53.5 -24t-22.5 -57q0 -34 22.5 -59t53.5 -25zM158 222q0 -23 11.5 -51t41 -48.5t63.5 -20.5q48 0 82.5 35.5t34.5 84.5q0 30 -14 56t-41 45t-62 19q-48 0 -82 -35.5 t-34 -84.5z"/>
    <glyph glyph-name="nine.tnum" horiz-adv-x="549" d="M132 0l154 249q-15 -7 -41 -7q-37 0 -76 16t-71 46.5t-51.5 73t-19.5 92.5q0 36 12.5 76t47 80.5t84.5 61.5t99 21q48 0 92 -18.5t77.5 -51.5t52.5 -76.5t19 -91.5q0 -24 -10 -64t-78 -151l-155 -256h-136zM270 349q23 0 50.5 12t47 42.5t19.5 68.5q0 24 -11.5 53 t-41 49.5t-64.5 20.5q-23 0 -51 -12.5t-49 -43.5t-21 -67t21 -67t49 -43.5t51 -12.5z"/>
    <glyph glyph-name="four.ss10" horiz-adv-x="574" d="M19 108v86l355 503h91v-485h84v-104h-84v-108h-118v108h-328zM159 211h188v266z"/>
    <glyph glyph-name="four.ss10.oldstyle" horiz-adv-x="549" d="M17 0v99l320 405h102v-400h80v-104h-80v-167h-117v167h-305zM147 103h175v224z"/>
    <glyph glyph-name="four.ss10.tnum" horiz-adv-x="549" d="M16 108v86l332 503h92v-485h76v-104h-76v-108h-117v108h-307zM151 211h172v262z"/>
    <glyph glyph-name="uni2074.ss10" horiz-adv-x="364" d="M23 379v54l194 264h69v-246h44v-72h-44v-51h-79v51h-184zM121 450h86v117z"/>
    <glyph glyph-name="uni2084.ss10" horiz-adv-x="364" d="M23 51v54l194 264h69v-246h44v-72h-44v-51h-79v51h-184zM121 122h86v117z"/>
    <glyph glyph-name="onequarter.ss10" horiz-adv-x="688" d="M62 0l430 697h110l-429 -697h-111zM101 328v290h-57v79h140v-369h-83zM341 51v54l194 264h69v-246h45v-72h-45v-51h-79v51h-184zM439 122h86v117z"/>
    <glyph glyph-name="threequarters.ss10" horiz-adv-x="755" d="M129 0l430 697h111l-430 -697h-111zM161 321q-46 0 -83.5 22t-56.5 58l69 41q22 -41 71 -41q28 0 47 14.5t19 38.5q0 23 -19 38.5t-49 15.5q-33 0 -52 -10l-25 41l98 79h-125v79h238v-57l-87 -72q15 0 24 -4q37 -11 60 -42t23 -69q0 -56 -42 -94t-110 -38zM408 51v54 l194 264h69v-246h45v-72h-45v-51h-79v51h-184zM506 122h86v117z"/>
    <glyph glyph-name="parenleft_P_parenright.dlig" horiz-adv-x="810" d="M37 348q0 100 51.5 186t136.5 133t180 47q72 0 139 -28t118.5 -78t81 -117.5t29.5 -142.5q0 -71 -28 -138t-78.5 -118.5t-118.5 -80.5t-143 -29q-71 0 -138.5 28t-119 78t-81 117.5t-29.5 142.5zM116 348q0 -58 22.5 -111t62.5 -93t93 -62.5t111 -22.5t111 22.5 t92.5 62.5t62 93t22.5 111t-22.5 111t-62 92.5t-92.5 62t-111 22.5t-111 -22.5t-93 -62t-62.5 -92.5t-22.5 -111zM285 138v404h155q22 0 51.5 -12t54 -44.5t24.5 -78.5q0 -45 -23.5 -77.5t-53.5 -45t-53 -12.5h-68v-134h-87zM372 352h60q20 0 36 14.5t16 40.5t-16 40.5 t-36 14.5h-60v-110z"/>
    <glyph glyph-name="colon.aalt" horiz-adv-x="212" d="M106 411q-28 0 -48.5 20t-20.5 48q0 29 20.5 49.5t48.5 20.5t49 -20.5t21 -49.5q0 -28 -21 -48t-49 -20zM106 141q-28 0 -48.5 20t-20.5 48t20.5 48.5t48.5 20.5t49 -20.5t21 -48.5t-21 -48t-49 -20z"/>
    <glyph glyph-name="semicolon.aalt" horiz-adv-x="258" d="M135 411q-28 0 -48.5 20t-20.5 48q0 29 20.5 49.5t48.5 20.5t48.5 -20.5t20.5 -49.5q0 -28 -20.5 -48t-48.5 -20zM-6 0l85 230h129l-121 -230h-93z"/>
    <glyph glyph-name="bullet.case" horiz-adv-x="321" d="M161 244q-19 0 -43.5 10.5t-43 36.5t-18.5 57q0 44 31 74t74 30q19 0 43.5 -10t42.5 -36t18 -58q0 -21 -10.5 -45.5t-36.5 -41.5t-57 -17z"/>
    <glyph glyph-name="periodcentered.aalt" horiz-adv-x="204" d="M102 278q-28 0 -49 20.5t-21 49.5q0 28 21 48t49 20t48.5 -20t20.5 -48q0 -29 -20.5 -49.5t-48.5 -20.5z"/>
    <glyph glyph-name="guilsinglleft.aalt" horiz-adv-x="305" d="M149 167l-116 181l116 183h124l-118 -183l118 -181h-124z"/>
    <glyph glyph-name="guilsinglright.aalt" horiz-adv-x="305" d="M32 167l118 181l-118 183h124l116 -183l-116 -181h-124z"/>
    <glyph glyph-name="guillemotleft.aalt" horiz-adv-x="508" d="M353 167l-117 181l117 183h124l-119 -183l119 -181h-124zM149 167l-116 181l116 183h124l-118 -183l118 -181h-124z"/>
    <glyph glyph-name="guillemotright.aalt" horiz-adv-x="508" d="M235 167l118 181l-118 183h124l116 -183l-116 -181h-124zM32 167l118 181l-118 183h124l116 -183l-116 -181h-124z"/>
    <glyph glyph-name="slash.case" horiz-adv-x="446" d="M10 -81l323 859h107l-322 -859h-108z"/>
    <glyph glyph-name="backslash.aalt" horiz-adv-x="446" d="M331 -81l-322 859h107l323 -859h-108z"/>
    <glyph glyph-name="hyphen.aalt" horiz-adv-x="416" d="M40 296v105h335v-105h-335z"/>
    <glyph glyph-name="endash.aalt" horiz-adv-x="510" d="M39 296v105h432v-105h-432z"/>
    <glyph glyph-name="emdash.aalt" horiz-adv-x="727" d="M39 296v105h649v-105h-649z"/>
    <glyph glyph-name="parenleft.aalt" horiz-adv-x="314" d="M269 -136q-70 60 -119.5 131t-79 158.5t-29.5 190.5q0 137 58 259.5t170 220.5l56 -60q-87 -90 -130.5 -191t-43.5 -229q0 -66 12.5 -131t49 -137t112.5 -153z"/>
    <glyph glyph-name="parenright.aalt" horiz-adv-x="314" d="M-11 -77q54 57 94.5 122t60 141t19.5 158q0 127 -44 228.5t-130 191.5l56 60q111 -98 169 -220.5t58 -259.5q0 -138 -57.5 -261t-169.5 -219z"/>
    <glyph glyph-name="bracketleft.aalt" horiz-adv-x="349" d="M72 -108v914h275v-107h-157v-701h157v-106h-275z"/>
    <glyph glyph-name="bracketright.aalt" horiz-adv-x="349" d="M1 -2h157v701h-157v107h275v-914h-275v106z"/>
    <glyph glyph-name="braceleft.aalt" horiz-adv-x="348" d="M110 37v188q0 60 -40 81q-22 11 -45 12v62q23 1 45 13q40 21 40 80v189q0 26 11.5 56t41 51t67.5 21h80v-96h-36q-13 0 -26 -6.5t-19.5 -21t-6.5 -31.5v-153q0 -73 -40 -106q-8 -6 -21 -14t-27 -13q14 -5 27 -13t21 -14q40 -33 40 -106v-153q0 -24 12.5 -41t39.5 -17h36 v-96h-80q-38 0 -67.5 21t-41 51t-11.5 56z"/>
    <glyph glyph-name="braceright.aalt" horiz-adv-x="348" d="M38 5h36q20 0 32.5 10.5t16 24t3.5 23.5v153q0 73 40 106q22 17 47 27q-25 10 -47 27q-40 33 -40 106v153q0 17 -6.5 31.5t-19.5 21t-26 6.5h-36v96h80q38 0 67.5 -21t41 -51t11.5 -56v-189q0 -59 40 -80q22 -12 45 -13v-62q-23 -1 -45 -12q-40 -21 -40 -81v-188 q0 -26 -11.5 -56t-41 -51t-67.5 -21h-80v96z"/>
    <glyph glyph-name="exclamdown.aalt" horiz-adv-x="270" d="M135 573q-28 0 -48.5 20t-20.5 48t20.5 48.5t48.5 20.5t48.5 -20.5t20.5 -48.5t-20.5 -48t-48.5 -20zM62 0l21 521h103l21 -521h-145z"/>
    <glyph glyph-name="questiondown.aalt" horiz-adv-x="421" d="M212 578q-28 0 -48 19.5t-20 47.5t20 47.5t48 19.5t48 -19.5t20 -47.5t-20 -47.5t-48 -19.5zM191 530q67 0 108.5 -38t41.5 -99q0 -83 -99 -146q-52 -33 -67 -47.5t-18.5 -29.5t-3.5 -21q0 -15 11.5 -28.5t27 -18t31.5 -4.5q78 0 149 69v-130q-31 -24 -71.5 -37.5 t-82.5 -13.5q-58 0 -99 20t-65 55t-24 78q0 64 29 103t102 83q31 18 46.5 33t15.5 34q0 39 -48 39q-44 0 -74 -19v100q39 18 90 18z"/>
    <glyph glyph-name="at.aalt" horiz-adv-x="804" d="M35 349q0 73 28.5 140t79.5 117.5t118.5 79t140.5 28.5t140.5 -27t118.5 -75t79.5 -112t28.5 -134q0 -104 -46 -161t-125 -57q-42 0 -73 20t-42 54q-7 -10 -20.5 -20.5t-34 -17t-42.5 -6.5q-68 0 -114.5 49t-46.5 120t46.5 120t114.5 49q58 0 87 -39v32h94v-225 q0 -22 9 -36.5t29 -14.5q32 0 50 32.5t18 100.5q0 51 -21 98.5t-58.5 83.5t-87.5 56t-104 20t-104 -21.5t-87.5 -59.5t-58.5 -88.5t-21 -105.5q0 -54 21.5 -104.5t59 -88t87 -59t103.5 -21.5q29 0 61.5 8.5t57.5 22.5l40 -83q-34 -18 -77 -28t-82 -10q-74 0 -141.5 28.5 t-118 78.5t-79 117t-28.5 139zM322 347q0 -33 22.5 -56t54.5 -23q33 0 55.5 23t22.5 56q0 34 -22.5 57t-55.5 23t-55 -23t-22 -57z"/>
    <glyph glyph-name="Agrave.titl" horiz-adv-x="717" d="M304 600l-77 97h149l35 -97h-107zM12 0l293 583h108l292 -583h-132l-68 139h-292l-69 -139h-132zM260 242h197l-98 206z"/>
    <glyph glyph-name="Aacute.titl" horiz-adv-x="717" d="M307 600l34 97h150l-78 -97h-106zM12 0l293 583h108l292 -583h-132l-68 139h-292l-69 -139h-132zM260 242h197l-98 206z"/>
    <glyph glyph-name="Acircumflex.titl" horiz-adv-x="717" d="M12 0l293 583h108l292 -583h-132l-68 139h-292l-69 -139h-132zM260 242h197l-98 206zM196 600l139 97h47l140 -97h-119l-45 47l-44 -47h-118z"/>
    <glyph glyph-name="Atilde.titl" horiz-adv-x="717" d="M188 609q4 31 20 54.5t38.5 32t43.5 8.5q30 0 73 -16t57 -16q32 0 40 34l69 -9q-5 -45 -29.5 -70t-67.5 -25q-32 0 -76.5 15t-59.5 15q-14 0 -25 -8t-15 -23zM12 0l293 583h108l292 -583h-132l-68 139h-292l-69 -139h-132zM260 242h197l-98 206z"/>
    <glyph glyph-name="Adieresis.titl" horiz-adv-x="734" d="M547 607q-25 0 -44 18t-19 44t19 44t44 18q26 0 45 -18t19 -44t-19 -44t-45 -18zM184 607q-26 0 -45 18t-19 44t19 44t45 18q25 0 44 -18t19 -44t-19 -44t-44 -18zM23 0l291 697h106l291 -697h-132l-57 139h-310l-57 -139h-132zM251 242h232l-116 284z"/>
    <glyph glyph-name="Amacron.titl" horiz-adv-x="717" d="M201 620v77h315v-77h-315zM12 0l292 599h109l292 -599h-132l-65 139h-299l-65 -139h-132zM256 242h205l-102 221z"/>
    <glyph glyph-name="Abreve.titl" horiz-adv-x="717" d="M359 602q-58 0 -97.5 27t-47.5 68h89q6 -13 21 -20.5t35 -7.5t34.5 7.5t20.5 20.5h89q-6 -30 -29.5 -53.5t-55 -32.5t-59.5 -9zM12 0l293 583h108l292 -583h-132l-68 139h-292l-69 -139h-132zM260 242h197l-98 206z"/>
    <glyph glyph-name="Aring.titl" horiz-adv-x="717" d="M12 0l258 530q-12 14 -19.5 33t-7.5 38q0 21 11.5 46.5t40.5 44t64 18.5q22 0 48.5 -11t46 -38.5t19.5 -59.5q0 -19 -7.5 -38t-19.5 -33l259 -530h-132l-65 139h-299l-65 -139h-132zM359 556q18 0 31 13t13 31q0 17 -13 30t-31 13t-32 -13t-14 -30q0 -18 14 -31t32 -13z M255 242h206l-102 221z"/>
    <glyph glyph-name="Aringacute.titl" horiz-adv-x="695" d="M12 0l245 486q-20 25 -20 55q0 20 11 44t39 42t61 18l12 -1l20 53h140l-80 -100q18 -26 18 -56q0 -32 -20 -55l246 -486h-133l-68 139h-270l-69 -139h-132zM348 503q16 0 27 11t11 27q0 15 -11.5 26t-26.5 11t-26.5 -11t-11.5 -26q0 -16 11 -27t27 -11zM260 242h175 l-87 177z"/>
    <glyph glyph-name="Aogonek.titl" horiz-adv-x="705" d="M23 0l291 697h106l226 -541q-26 -9 -47 -28.5t-21 -39.5q0 -11 9 -19.5t33 -8.5q29 0 58 13l-16 -75q-27 -14 -67 -14q-24 0 -46 8t-38.5 25t-16.5 43q0 21 13 39t30 29l-5 11h-320l-57 -139h-132zM251 242h232l-116 284z"/>
    <glyph glyph-name="AEacute.titl" horiz-adv-x="962" d="M502 600l35 97h150l-78 -97h-107zM-14 0l512 583h416v-112h-286v-116h267v-104h-267v-140h293v-111h-416v139h-248l-126 -139h-145zM340 242h165v188z"/>
    <glyph glyph-name="Cacute.titl" horiz-adv-x="637" d="M303 600l35 97h149l-77 -97h-107zM40 285q0 62 25.5 117t70.5 95.5t105 63t125 22.5q48 0 98 -16t87.5 -43t60.5 -54l-81 -76q-31 36 -74.5 56t-90.5 20q-85 0 -143.5 -53.5t-58.5 -131.5t58.5 -131.5t143.5 -53.5q48 0 92 21.5t74 58.5l82 -75q-31 -36 -76.5 -65 t-91 -40.5t-80.5 -11.5q-65 0 -125 22t-105 62.5t-70.5 95.5t-25.5 117z"/>
    <glyph glyph-name="Ccircumflex.titl" horiz-adv-x="637" d="M40 285q0 62 25.5 117t70.5 95.5t105 63t125 22.5q48 0 98 -16t87.5 -43t60.5 -54l-81 -76q-31 36 -74.5 56t-90.5 20q-85 0 -143.5 -53.5t-58.5 -131.5t58.5 -131.5t143.5 -53.5q48 0 92 21.5t74 58.5l82 -75q-31 -36 -76.5 -65t-91 -40.5t-80.5 -11.5q-65 0 -125 22 t-105 62.5t-70.5 95.5t-25.5 117zM198 600l139 97h47l140 -97h-119l-44 47l-44 -47h-119z"/>
    <glyph glyph-name="Ccaron.titl" horiz-adv-x="637" d="M40 285q0 62 25.5 117t70.5 95.5t105 63t125 22.5q48 0 98 -16t87.5 -43t60.5 -54l-81 -76q-31 36 -74.5 56t-90.5 20q-85 0 -143.5 -53.5t-58.5 -131.5t58.5 -131.5t143.5 -53.5q48 0 92 21.5t74 58.5l82 -75q-31 -36 -76.5 -65t-91 -40.5t-80.5 -11.5q-65 0 -125 22 t-105 62.5t-70.5 95.5t-25.5 117zM338 600l-139 97h118l44 -47l44 47h119l-139 -97h-47z"/>
    <glyph glyph-name="Cdotaccent.titl" horiz-adv-x="637" d="M361 615q-23 0 -41 17t-18 40t18 40t41 17q24 0 42 -17t18 -40t-18 -40t-42 -17zM40 285q0 62 25.5 117t70.5 95.5t105 63t125 22.5q48 0 98 -16t87.5 -43t60.5 -54l-81 -76q-31 36 -74.5 56t-90.5 20q-85 0 -143.5 -53.5t-58.5 -131.5t58.5 -131.5t143.5 -53.5 q48 0 92 21.5t74 58.5l82 -75q-31 -36 -76.5 -65t-91 -40.5t-80.5 -11.5q-65 0 -125 22t-105 62.5t-70.5 95.5t-25.5 117z"/>
    <glyph glyph-name="Ccedilla.titl" horiz-adv-x="637" d="M40 410q0 62 25.5 117t70.5 95.5t105 63t125 22.5q48 0 98 -16t87.5 -43t60.5 -54l-81 -76q-31 36 -74.5 56t-90.5 20q-85 0 -143.5 -53.5t-58.5 -131.5t58.5 -131.5t143.5 -53.5q48 0 92 21.5t74 58.5l82 -75q-31 -36 -76.5 -65t-91 -40.5t-80.5 -11.5h-2l-8 -19 q28 0 47.5 -14.5t19.5 -39.5q0 -32 -26 -49.5t-70 -17.5q-9 0 -33.5 4.5t-44.5 19.5l22 43q23 -14 51 -14q15 0 24 5t9 15q0 11 -11 17t-58 6l21 48q-55 9 -104.5 34.5t-86 64.5t-56.5 89t-20 105z"/>
    <glyph glyph-name="Dcaron.titl" horiz-adv-x="699" d="M77 0v583h249q77 0 140 -21.5t105.5 -61t64.5 -93.5t22 -117t-22 -117t-64 -92.5t-104.5 -59.5t-140.5 -21h-250zM202 113h116q71 0 118 20t72.5 59t25.5 98q0 61 -25.5 100t-73 59.5t-118.5 20.5h-115v-357zM324 600l-139 97h119l44 -47l44 47h119l-140 -97h-47z"/>
    <glyph glyph-name="Egrave.titl" horiz-adv-x="577" d="M268 600l-78 97h150l34 -97h-106zM77 0v583h443v-112h-318v-116h298v-104h-298v-139h326v-112h-451z"/>
    <glyph glyph-name="Eacute.titl" horiz-adv-x="577" d="M240 600l35 97h149l-77 -97h-107zM77 0v583h443v-112h-318v-116h298v-104h-298v-139h326v-112h-451z"/>
    <glyph glyph-name="Ecircumflex.titl" horiz-adv-x="577" d="M77 0v583h443v-112h-318v-116h298v-104h-298v-139h326v-112h-451zM138 600l139 97h48l139 -97h-119l-44 47l-44 -47h-119z"/>
    <glyph glyph-name="Ecaron.titl" horiz-adv-x="577" d="M77 0v583h443v-112h-318v-116h298v-104h-298v-139h326v-112h-451zM280 600l-139 97h119l44 -47l44 47h119l-139 -97h-48z"/>
    <glyph glyph-name="Edieresis.titl" horiz-adv-x="577" d="M398 615q-24 0 -41.5 17t-17.5 40t17.5 40t41.5 17t41.5 -17t17.5 -40t-17.5 -40t-41.5 -17zM202 615q-24 0 -41.5 17t-17.5 40t17.5 40t41.5 17t41.5 -17t17.5 -40t-17.5 -40t-41.5 -17zM77 0v583h443v-112h-318v-116h298v-104h-298v-139h326v-112h-451z"/>
    <glyph glyph-name="Emacron.titl" horiz-adv-x="577" d="M142 620v77h316v-77h-316zM77 0v583h443v-112h-318v-116h298v-104h-298v-139h326v-112h-451z"/>
    <glyph glyph-name="Ebreve.titl" horiz-adv-x="577" d="M302 602q-58 0 -97.5 27t-47.5 68h89q6 -13 21 -20.5t35 -7.5t35 7.5t21 20.5h89q-4 -19 -19 -41.5t-49 -38t-77 -15.5zM77 0v583h443v-112h-318v-116h298v-104h-298v-139h326v-112h-451z"/>
    <glyph glyph-name="Edotaccent.titl" horiz-adv-x="577" d="M306 615q-24 0 -41.5 17t-17.5 40t17.5 40t41.5 17t41.5 -17t17.5 -40t-17.5 -40t-41.5 -17zM77 0v583h443v-112h-318v-116h298v-104h-298v-139h326v-112h-451z"/>
    <glyph glyph-name="Eogonek.titl" horiz-adv-x="577" d="M77 114v583h443v-112h-318v-116h298v-104h-298v-139h326v-88q-21 -9 -40.5 -26.5t-19.5 -35.5q0 -10 9.5 -15.5t21.5 -5.5q30 0 52 12l-16 -71q-23 -12 -63 -12q-26 0 -47 9t-29 23.5t-8 28.5q0 20 17.5 40t38.5 29h-367z"/>
    <glyph glyph-name="Gcircumflex.titl" horiz-adv-x="689" d="M40 285q0 62 25.5 117.5t70 96t104 63t124.5 22.5q66 0 130.5 -27.5t113.5 -81.5l-80 -76q-30 34 -74 53.5t-90 19.5q-52 0 -100 -24t-74 -69t-26 -94q0 -38 15 -72.5t42.5 -59.5t64.5 -39t78 -14q49 0 92 16.5t73 46.5v68h-184v105h296v-217q-48 -61 -120.5 -96 t-156.5 -35q-65 0 -124.5 22t-104 62.5t-70 95.5t-25.5 117zM196 600l140 97h47l139 -97h-118l-45 47l-44 -47h-119z"/>
    <glyph glyph-name="Gbreve.titl" horiz-adv-x="689" d="M362 602q-58 0 -97.5 27t-47.5 68h89q6 -13 21 -20.5t35 -7.5t35 7.5t21 20.5h88q-7 -41 -46.5 -68t-97.5 -27zM40 285q0 62 25.5 117.5t70 96t104 63t124.5 22.5q66 0 130.5 -27.5t113.5 -81.5l-80 -76q-30 34 -74 53.5t-90 19.5q-52 0 -100 -24t-74 -69t-26 -94 q0 -38 15 -72.5t42.5 -59.5t64.5 -39t78 -14q49 0 92 16.5t73 46.5v68h-184v105h296v-217q-48 -61 -120.5 -96t-156.5 -35q-65 0 -124.5 22t-104 62.5t-70 95.5t-25.5 117z"/>
    <glyph glyph-name="Gdotaccent.titl" horiz-adv-x="689" d="M360 615q-24 0 -41.5 17t-17.5 40t17.5 40t41.5 17t42 -17t18 -40t-18 -40t-42 -17zM40 285q0 62 25.5 117.5t70 96t104 63t124.5 22.5q66 0 130.5 -27.5t113.5 -81.5l-80 -76q-30 34 -74 53.5t-90 19.5q-52 0 -100 -24t-74 -69t-26 -94q0 -38 15 -72.5t42.5 -59.5 t64.5 -39t78 -14q49 0 92 16.5t73 46.5v68h-184v105h296v-217q-48 -61 -120.5 -96t-156.5 -35q-65 0 -124.5 22t-104 62.5t-70 95.5t-25.5 117z"/>
    <glyph glyph-name="Gcommaaccent.titl" horiz-adv-x="689" d="M364 113q-65 0 -124.5 22.5t-104.5 62.5t-70 95.5t-25 117.5t25.5 117t70 95.5t104 63t124.5 22.5q66 0 130.5 -27.5t113.5 -81.5l-80 -76q-30 34 -73.5 53t-90.5 19q-41 0 -73.5 -12t-58.5 -32t-47 -56.5t-21 -84.5q0 -29 10 -60.5t34.5 -59t64 -47t91.5 -19.5 q49 0 92 16.5t73 46.5v67h-184v106h296v-217q-48 -61 -120.5 -96t-156.5 -35zM250 0l36 97h149l-77 -97h-108z"/>
    <glyph glyph-name="Hcircumflex.titl" horiz-adv-x="770" d="M77 0v697h125v-272h367v272h124v-697h-124v312h-367v-312h-125zM242 600l123 97h41l123 -97h-101l-43 45l-41 -45h-102z"/>
    <glyph glyph-name="Igrave.titl" horiz-adv-x="288" d="M97 600l-78 97h150l34 -97h-106zM81 0v583h125v-583h-125z"/>
    <glyph glyph-name="Iacute.titl" horiz-adv-x="288" d="M83 600l35 97h149l-77 -97h-107zM81 0v583h125v-583h-125z"/>
    <glyph glyph-name="Icircumflex.titl" horiz-adv-x="288" d="M81 0v583h125v-583h-125zM0 600l123 97h42l123 -97h-102l-43 45l-41 -45h-102z"/>
    <glyph glyph-name="Itilde.titl" horiz-adv-x="304" d="M60 601l-68 8q5 43 31 69t68 26q28 0 65.5 -16t51.5 -16q32 0 39 34l70 -9q-5 -45 -29.5 -70t-67.5 -25q-28 0 -66.5 15t-53.5 15q-14 0 -25 -8t-15 -23zM90 0v583h124v-583h-124z"/>
    <glyph glyph-name="Idieresis.titl" horiz-adv-x="288" d="M227 615q-24 0 -41.5 17t-17.5 40t17.5 40t41.5 17t41.5 -17t17.5 -40t-17.5 -40t-41.5 -17zM60 615q-23 0 -41 17t-18 40t18 40t41 17q24 0 42 -17t18 -40t-18 -40t-42 -17zM81 0v583h125v-583h-125z"/>
    <glyph glyph-name="Imacron.titl" horiz-adv-x="288" d="M-4 620v77h295v-77h-295zM81 0v583h125v-583h-125z"/>
    <glyph glyph-name="Ibreve.titl" horiz-adv-x="288" d="M143 602q-26 0 -56.5 9t-53.5 32.5t-28 53.5h83q6 -13 20.5 -20.5t34.5 -7.5q23 0 37 8t19 20h83q-5 -30 -28 -53.5t-53.5 -32.5t-57.5 -9zM81 0v583h125v-583h-125z"/>
    <glyph glyph-name="Idotaccent.titl" horiz-adv-x="288" d="M143 613q-27 0 -46.5 17t-19.5 41t19.5 41t46.5 17q28 0 47.5 -17t19.5 -41t-19.5 -41t-47.5 -17zM81 0v583h125v-583h-125z"/>
    <glyph glyph-name="Iogonek.titl" horiz-adv-x="288" d="M66 45q0 31 38 61h-23v591h125v-559q-21 -9 -40.5 -26.5t-19.5 -35.5q0 -10 9.5 -15.5t21.5 -5.5q30 0 52 12l-16 -71q-24 -12 -63 -12q-26 0 -47 9t-29 23.5t-8 28.5z"/>
    <glyph glyph-name="Jcircumflex.titl" horiz-adv-x="343" d="M11 -4v114q21 -9 57 -9q26 0 45.5 10.5t28 37t8.5 64.5v370h125v-363q0 -94 -21.5 -142t-66 -69t-108.5 -21q-37 0 -68 8zM67 600l123 97h41l123 -97h-101l-43 45l-41 -45h-102z"/>
    <glyph glyph-name="Kcommaaccent.titl" horiz-adv-x="685" d="M77 0v697h125v-335l310 335h150l-280 -302l289 -395h-146l-227 311l-96 -102v-209h-125zM248 0l33 97h133l-65 -97h-101z"/>
    <glyph glyph-name="Lacute.titl" horiz-adv-x="511" d="M79 600l35 97h149l-77 -97h-107zM77 0v583h125v-470h277v-113h-402z"/>
    <glyph glyph-name="Lcommaaccent.titl" horiz-adv-x="511" d="M77 114v583h125v-470h277v-113h-402zM182 0l33 97h146l-73 -97h-106z"/>
    <glyph glyph-name="Nacute.titl" horiz-adv-x="778" d="M77 0v697h91l412 -497v497h121v-697h-102l-401 488v-488h-121zM308 600l26 97h166l-93 -97h-99z"/>
    <glyph glyph-name="Ncaron.titl" horiz-adv-x="761" d="M349 600l-118 97h99l42 -47l42 47h99l-118 -97h-46zM77 0v697h98l388 -490v490h121v-697h-101l-385 486v-486h-121z"/>
    <glyph glyph-name="Ntilde.titl" horiz-adv-x="786" d="M77 0v697h82l429 -502v502h121v-697h-102l-409 486v-486h-121zM243 609q5 43 30.5 69t66.5 26q25 0 58.5 -16t47.5 -16q30 0 38 34l69 -8q-5 -46 -29.5 -71t-66.5 -25q-25 0 -59.5 15t-48.5 15q-13 0 -23 -8t-14 -23z"/>
    <glyph glyph-name="Ncommaaccent.titl" horiz-adv-x="761" d="M77 0v697h111l375 -478v478h121v-697h-90l-396 498v-498h-121zM286 0l34 97h145l-71 -97h-108z"/>
    <glyph glyph-name="Ograve.titl" horiz-adv-x="726" d="M324 600l-77 97h149l36 -97h-108zM37 285q0 61 25.5 116t70.5 95.5t105 63.5t125 23q31 0 72 -7.5t83 -28t81 -56t64.5 -90.5t25.5 -116t-25.5 -116t-70.5 -95.5t-104.5 -63t-125.5 -22.5q-65 0 -125 22.5t-105 63t-70.5 95.5t-25.5 116zM163 285q0 -29 10.5 -60t35 -59 t64 -47t90.5 -19q30 0 64 9.5t64 32.5t51 59.5t21 83.5q0 48 -26 92.5t-74.5 68.5t-99.5 24q-52 0 -100 -24t-74 -68.5t-26 -92.5z"/>
    <glyph glyph-name="Oacute.titl" horiz-adv-x="726" d="M307 600l34 97h150l-78 -97h-106zM37 285q0 61 25.5 116t70.5 95.5t105 63.5t125 23q31 0 72 -7.5t83 -28t81 -56t64.5 -90.5t25.5 -116t-25.5 -116t-70.5 -95.5t-104.5 -63t-125.5 -22.5q-65 0 -125 22.5t-105 63t-70.5 95.5t-25.5 116zM163 285q0 -29 10.5 -60t35 -59 t64 -47t90.5 -19q30 0 64 9.5t64 32.5t51 59.5t21 83.5q0 48 -26 92.5t-74.5 68.5t-99.5 24q-52 0 -100 -24t-74 -68.5t-26 -92.5z"/>
    <glyph glyph-name="Ocircumflex.titl" horiz-adv-x="726" d="M37 285q0 61 25.5 116t70.5 95.5t105 63.5t125 23q31 0 72 -7.5t83 -28t81 -56t64.5 -90.5t25.5 -116t-25.5 -116t-70.5 -95.5t-104.5 -63t-125.5 -22.5q-65 0 -125 22.5t-105 63t-70.5 95.5t-25.5 116zM163 285q0 -29 10.5 -60t35 -59t64 -47t90.5 -19q30 0 64 9.5 t64 32.5t51 59.5t21 83.5q0 48 -26 92.5t-74.5 68.5t-99.5 24q-52 0 -100 -24t-74 -68.5t-26 -92.5zM202 600l139 97h47l140 -97h-119l-44 47l-44 -47h-119z"/>
    <glyph glyph-name="Otilde.titl" horiz-adv-x="726" d="M189 609q4 31 20 54.5t38.5 32t43.5 8.5q30 0 73 -16t58 -16q32 0 39 34l69 -9q-5 -45 -29.5 -70t-67.5 -25q-31 0 -75.5 15t-60.5 15q-14 0 -25 -8t-15 -23zM37 285q0 61 25.5 116t70.5 95.5t105 63.5t125 23q31 0 72 -7.5t83 -28t81 -56t64.5 -90.5t25.5 -116 t-25.5 -116t-70.5 -95.5t-104.5 -63t-125.5 -22.5q-65 0 -125 22.5t-105 63t-70.5 95.5t-25.5 116zM163 285q0 -29 10.5 -60t35 -59t64 -47t90.5 -19q30 0 64 9.5t64 32.5t51 59.5t21 83.5q0 48 -26 92.5t-74.5 68.5t-99.5 24q-52 0 -100 -24t-74 -68.5t-26 -92.5z"/>
    <glyph glyph-name="Odieresis.titl" horiz-adv-x="806" d="M643 672q0 23 18 40t41 17q24 0 42 -17t18 -40t-18 -40t-42 -17q-23 0 -41 17t-18 40zM103 615q-24 0 -41.5 17t-17.5 40t17.5 40t41.5 17t42 -16.5t18 -40.5t-18 -40.5t-42 -16.5zM40 342q0 73 28 138.5t78 114t117 75.5t140 27t140 -27t117 -75.5t78 -114t28 -138.5 t-28 -138.5t-78 -113.5t-117 -75t-140 -27t-140 27t-117 75t-78 113.5t-28 138.5zM163 342q0 -50 18 -94.5t51 -77.5t77.5 -51t93.5 -18t93.5 18.5t77 51.5t50.5 77.5t18 93.5t-18 93.5t-50.5 77.5t-77 51.5t-93.5 18.5t-93.5 -18.5t-77.5 -51.5t-51 -77.5t-18 -93.5z"/>
    <glyph glyph-name="Omacron.titl" horiz-adv-x="726" d="M207 620v77h315v-77h-315zM37 285q0 61 25.5 116t70.5 95.5t105 63.5t125 23q31 0 72 -7.5t83 -28t81 -56t64.5 -90.5t25.5 -116t-25.5 -116t-70.5 -95.5t-104.5 -63t-125.5 -22.5q-65 0 -125 22.5t-105 63t-70.5 95.5t-25.5 116zM163 285q0 -29 10.5 -60t35 -59t64 -47 t90.5 -19q30 0 64 9.5t64 32.5t51 59.5t21 83.5q0 48 -26 92.5t-74.5 68.5t-99.5 24q-52 0 -100 -24t-74 -68.5t-26 -92.5z"/>
    <glyph glyph-name="Obreve.titl" horiz-adv-x="726" d="M362 602q-58 0 -97.5 27t-46.5 68h89q5 -12 19 -20t36 -8q20 0 35 7.5t21 20.5h89q-8 -41 -47.5 -68t-97.5 -27zM37 285q0 61 25.5 116t70.5 95.5t105 63.5t125 23q31 0 72 -7.5t83 -28t81 -56t64.5 -90.5t25.5 -116t-25.5 -116t-70.5 -95.5t-104.5 -63t-125.5 -22.5 q-65 0 -125 22.5t-105 63t-70.5 95.5t-25.5 116zM163 285q0 -29 10.5 -60t35 -59t64 -47t90.5 -19q30 0 64 9.5t64 32.5t51 59.5t21 83.5q0 48 -26 92.5t-74.5 68.5t-99.5 24q-52 0 -100 -24t-74 -68.5t-26 -92.5z"/>
    <glyph glyph-name="Ohungarumlaut.titl" horiz-adv-x="726" d="M386 600l55 97h123l-88 -97h-90zM230 600l51 97h124l-88 -97h-87zM37 285q0 61 25.5 116t70.5 95.5t105 63.5t125 23q31 0 72 -7.5t83 -28t81 -56t64.5 -90.5t25.5 -116t-25.5 -116t-70.5 -95.5t-104.5 -63t-125.5 -22.5q-65 0 -125 22.5t-105 63t-70.5 95.5t-25.5 116z M163 285q0 -29 10.5 -60t35 -59t64 -47t90.5 -19q30 0 64 9.5t64 32.5t51 59.5t21 83.5q0 48 -26 92.5t-74.5 68.5t-99.5 24q-52 0 -100 -24t-74 -68.5t-26 -92.5z"/>
    <glyph glyph-name="Oslashacute.titl" horiz-adv-x="726" d="M316 600l35 97h149l-77 -97h-107zM89 15l45 58q-45 40 -71 95.5t-26 117.5q0 61 25.5 115.5t70.5 95.5t105 63.5t125 22.5q34 0 71.5 -7.5t67.5 -20.5l50 65l82 -61l-45 -58q47 -41 73.5 -97t26.5 -118q0 -29 -8.5 -67t-31 -76.5t-62 -74t-99 -58t-125.5 -22.5 q-35 0 -73.5 8t-69.5 22l-49 -64zM208 164l225 295q-37 14 -70 14q-31 0 -65 -9.5t-68 -35.5t-51.5 -65t-17.5 -77q0 -72 47 -122zM289 114q27 -15 74 -15q30 0 64.5 9.5t68.5 35.5t51.5 65t17.5 77q0 35 -13.5 67.5t-36.5 56.5z"/>
    <glyph glyph-name="Racute.titl" horiz-adv-x="636" d="M236 600l35 97h149l-77 -97h-107zM77 0v583h289q52 0 102.5 -25.5t78 -72.5t27.5 -97q0 -27 -11 -61.5t-41 -65t-69 -45.5l164 -216h-143l-144 191h-2h-126v-191h-125zM202 296h151q30 0 54.5 14.5t33.5 35.5t9 39q0 36 -26 60.5t-62 24.5h-160v-174z"/>
    <glyph glyph-name="Rcaron.titl" horiz-adv-x="636" d="M77 0v583h289q52 0 102.5 -25.5t78 -72.5t27.5 -97q0 -27 -11 -61.5t-41 -65t-69 -45.5l164 -216h-143l-144 191h-2h-126v-191h-125zM202 296h151q30 0 54.5 14.5t33.5 35.5t9 39q0 36 -26 60.5t-62 24.5h-160v-174zM287 600l-140 97h119l44 -47l44 47h119l-139 -97h-47z "/>
    <glyph glyph-name="Rcommaaccent.titl" horiz-adv-x="653" d="M77 0v697h288q57 0 111.5 -28.5t84.5 -82t30 -110.5q0 -30 -11 -68t-39.5 -72.5t-66.5 -54.5l159 -281h-135l-142 252h-2h-152v-252h-125zM202 356h150q24 0 51 11t45.5 40t18.5 66q0 35 -17.5 62.5t-42.5 38t-46 10.5h-159v-228zM242 0l33 97h131l-65 -97h-99z"/>
    <glyph glyph-name="Sacute.titl" horiz-adv-x="538" d="M216 600l34 97h149l-77 -97h-106zM24 113l89 64q21 -34 64 -56t98 -22q45 0 68.5 13t30 26.5t6.5 22.5q0 18 -13.5 34.5t-46.5 29.5t-97 32q-54 16 -90 39t-54 52.5t-18 69.5q0 47 26.5 86t75.5 58.5t102 19.5q65 0 115 -25.5t79 -67.5l-81 -68q-41 52 -115 52 q-36 0 -58.5 -14t-22.5 -39q0 -18 15 -30t74 -30.5t60 -18.5q89 -29 130 -70.5t41 -105.5q0 -78 -60 -126.5t-172 -48.5q-85 0 -149 33.5t-97 89.5z"/>
    <glyph glyph-name="Scircumflex.titl" horiz-adv-x="540" d="M24 113l89 64q21 -34 64 -56t98 -22q45 0 68.5 13t30 26.5t6.5 22.5q0 18 -13.5 34.5t-46.5 29.5t-97 32q-54 16 -90 39t-54 52.5t-18 69.5q0 47 26.5 86t75.5 58.5t102 19.5q65 0 115 -25.5t79 -67.5l-81 -68q-41 52 -115 52q-36 0 -58.5 -14t-22.5 -39q0 -18 15 -30 t74 -30.5t60 -18.5q89 -29 130 -70.5t41 -105.5q0 -78 -60 -126.5t-172 -48.5q-85 0 -149 33.5t-97 89.5zM101 600l139 97h47l139 -97h-118l-44 47l-44 -47h-119z"/>
    <glyph glyph-name="Scaron.titl" horiz-adv-x="540" d="M24 113l89 64q21 -34 64 -56t98 -22q45 0 68.5 13t30 26.5t6.5 22.5q0 18 -13.5 34.5t-46.5 29.5t-97 32q-54 16 -90 39t-54 52.5t-18 69.5q0 47 26.5 86t75.5 58.5t102 19.5q65 0 115 -25.5t79 -67.5l-81 -68q-41 52 -115 52q-36 0 -58.5 -14t-22.5 -39q0 -18 15 -30 t74 -30.5t60 -18.5q89 -29 130 -70.5t41 -105.5q0 -78 -60 -126.5t-172 -48.5q-85 0 -149 33.5t-97 89.5zM248 600l-139 97h118l44 -47l44 47h119l-139 -97h-47z"/>
    <glyph glyph-name="Scommaaccent.titl" horiz-adv-x="540" d="M159 0l36 97h149l-77 -97h-108zM24 238l89 64q21 -34 64 -56t98 -22q45 0 68.5 13t30 26.5t6.5 22.5q0 18 -13.5 34.5t-46.5 29.5t-97 32q-54 16 -90 39t-54 52.5t-18 69.5q0 47 26.5 86t75.5 58.5t102 19.5q65 0 115 -25.5t79 -67.5l-81 -68q-41 52 -115 52 q-36 0 -58.5 -14t-22.5 -39q0 -18 15 -30t74 -30.5t60 -18.5q89 -29 130 -70.5t41 -105.5q0 -78 -60 -126.5t-172 -48.5q-85 0 -149 33.5t-97 89.5z"/>
    <glyph glyph-name="Scedilla.titl" horiz-adv-x="540" d="M24 238l89 64q21 -34 64 -56t98 -22q45 0 68.5 13t30 26.5t6.5 22.5q0 18 -13.5 34.5t-46.5 29.5t-97 32q-54 16 -90 39t-54 52.5t-18 69.5q0 47 26.5 86t75.5 58.5t102 19.5q65 0 115 -25.5t79 -67.5l-81 -68q-41 52 -115 52q-36 0 -58.5 -14t-22.5 -39q0 -18 15 -30 t74 -30.5t60 -18.5q89 -29 130 -70.5t41 -105.5q0 -74 -53.5 -121.5t-154.5 -53.5l-10 -21q28 0 47.5 -14.5t19.5 -39.5q0 -32 -26 -49.5t-70 -17.5q-9 0 -33.5 4.5t-44.5 19.5l22 43q23 -14 51 -14q15 0 24 5t9 15q0 11 -11 17t-58 6l21 47q-73 7 -127.5 39t-83.5 83z"/>
    <glyph glyph-name="Tcaron.titl" horiz-adv-x="540" d="M209 0v470h-191v113h504v-113h-189v-470h-124zM246 600l-139 97h118l44 -47l44 47h119l-139 -97h-47z"/>
    <glyph glyph-name="Tcommaaccent.titl" horiz-adv-x="540" d="M209 114v470h-191v113h504v-113h-189v-470h-124zM165 0l38 97h141l-72 -97h-107z"/>
    <glyph glyph-name="Ugrave.titl" horiz-adv-x="708" d="M337 600l-77 97h141l34 -97h-98zM71 267v430h125v-417q0 -45 14 -87t51.5 -66.5t92.5 -24.5q73 0 115 44t42 134v417h125v-430q0 -67 -21.5 -120t-60 -88t-90 -52.5t-110.5 -17.5t-111 17.5t-90.5 52.5t-60 88t-21.5 120z"/>
    <glyph glyph-name="Uacute.titl" horiz-adv-x="708" d="M274 600l35 97h141l-77 -97h-99zM71 267v430h125v-417q0 -45 14 -87t51.5 -66.5t92.5 -24.5q73 0 115 44t42 134v417h125v-430q0 -67 -21.5 -120t-60 -88t-90 -52.5t-110.5 -17.5t-111 17.5t-90.5 52.5t-60 88t-21.5 120z"/>
    <glyph glyph-name="Ucircumflex.titl" horiz-adv-x="707" d="M71 267v430h125v-417q0 -45 14 -87t51.5 -66.5t92.5 -24.5q73 0 115 44t42 134v417h125v-430q0 -67 -21.5 -120t-60 -88t-90 -52.5t-110.5 -17.5t-111 17.5t-90.5 52.5t-60 88t-21.5 120zM215 600l116 97h46l116 -97h-97l-42 49l-42 -49h-97z"/>
    <glyph glyph-name="Utilde.titl" horiz-adv-x="741" d="M214 609q5 43 30.5 69t67.5 26q25 0 58.5 -16t47.5 -16q16 0 25 8t13 26l70 -9q-5 -45 -29.5 -70t-67.5 -25q-25 0 -60 15t-48 15q-14 0 -24.5 -8t-14.5 -23zM71 267v430h125v-417q0 -56 19 -95t57.5 -61t98.5 -22q49 0 86.5 16.5t62.5 55.5t25 106v417h125v-430 q0 -67 -23 -120t-64 -88t-95.5 -52.5t-116.5 -17.5t-117 17.5t-96 52.5t-64 88t-23 120z"/>
    <glyph glyph-name="Udieresis.titl" horiz-adv-x="741" d="M450 615q-24 0 -41.5 17t-17.5 40t17.5 40t41.5 17t41.5 -17t17.5 -40t-17.5 -40t-41.5 -17zM292 615q-23 0 -41 17t-18 40t18 40t41 17q24 0 42 -17t18 -40t-18 -40t-42 -17zM71 267v430h125v-417q0 -56 19 -95t57.5 -61t98.5 -22q49 0 86.5 16.5t62.5 55.5t25 106v417 h125v-430q0 -67 -23 -120t-64 -88t-95.5 -52.5t-116.5 -17.5t-117 17.5t-96 52.5t-64 88t-23 120z"/>
    <glyph glyph-name="Umacron.titl" horiz-adv-x="732" d="M71 267v430h124v-417q0 -90 45.5 -134t125.5 -44t125 44t45 134v417h125v-430q0 -67 -22.5 -120t-63 -88t-94.5 -52.5t-115 -17.5t-115 17.5t-94.5 52.5t-63 88t-22.5 120zM230 620v77h272v-77h-272z"/>
    <glyph glyph-name="Ubreve.titl" horiz-adv-x="731" d="M366 599q-26 0 -56 9.5t-52 34t-27 54.5h79q6 -13 21 -21t35 -8q16 0 31.5 5.5t23.5 23.5h79q-5 -30 -27 -54.5t-52 -34t-55 -9.5zM71 267v430h125v-417q0 -90 45.5 -134t124.5 -44q58 0 95 22t55.5 61t18.5 95v417h125v-430q0 -67 -22.5 -120t-62.5 -88t-94 -52.5 t-115 -17.5q-62 0 -116 17.5t-94 52.5t-62.5 88t-22.5 120z"/>
    <glyph glyph-name="Uring.titl" horiz-adv-x="731" d="M366 504q-22 0 -49 11t-46.5 38.5t-19.5 59.5q0 20 11.5 45.5t40.5 44t63 18.5q21 0 47.5 -11t46 -38t19.5 -59t-19 -59.5t-45.5 -38.5t-48.5 -11zM366 572q17 0 30 12.5t13 28.5q0 17 -13 29t-30 12q-18 0 -31 -12t-13 -29q0 -16 13 -28.5t31 -12.5zM71 267v430h125 v-417q0 -90 45.5 -134t124.5 -44q58 0 95 22t55.5 61t18.5 95v417h125v-430q0 -67 -22.5 -120t-62.5 -88t-94 -52.5t-115 -17.5q-62 0 -116 17.5t-94 52.5t-62.5 88t-22.5 120z"/>
    <glyph glyph-name="Uhungarumlaut.titl" horiz-adv-x="731" d="M360 600l51 97h104l-88 -97h-67zM227 600l51 97h104l-88 -97h-67zM71 267v430h125v-417q0 -90 45.5 -134t124.5 -44q58 0 95 22t55.5 61t18.5 95v417h125v-430q0 -67 -22.5 -120t-62.5 -88t-94 -52.5t-115 -17.5q-62 0 -116 17.5t-94 52.5t-62.5 88t-22.5 120z"/>
    <glyph glyph-name="Uogonek.titl" horiz-adv-x="710" d="M368 52q0 35 50 67q-37 -5 -67 -5q-58 0 -109.5 17.5t-89.5 52.5t-59.5 88t-21.5 120v305h125v-292q0 -45 14 -87t51.5 -66.5t92.5 -24.5q74 0 116 44t42 134v292h125v-300q0 -78 -29 -138t-78 -94q-2 -2 -18.5 -12t-32 -22.5t-22 -24t-6.5 -20.5q0 -10 9 -19t31 -9 q29 0 58 13l-16 -73q-29 -14 -67 -14q-23 0 -44.5 7t-37.5 22t-16 39z"/>
    <glyph glyph-name="Wgrave.titl" horiz-adv-x="947" d="M229 0l-209 697h124l144 -484l137 365h97l136 -365l144 484h125l-209 -697h-100l-145 383l-144 -383h-100zM449 600l-78 97h149l35 -97h-106z"/>
    <glyph glyph-name="Wacute.titl" horiz-adv-x="947" d="M229 0l-209 697h124l144 -484l137 365h97l136 -365l144 484h125l-209 -697h-100l-145 383l-144 -383h-100zM395 600l35 97h149l-77 -97h-107z"/>
    <glyph glyph-name="Wcircumflex.titl" horiz-adv-x="947" d="M311 600l140 97h47l139 -97h-118l-45 47l-44 -47h-119zM229 0l-209 697h124l144 -484l137 365h97l136 -365l144 484h125l-209 -697h-100l-145 383l-144 -383h-100z"/>
    <glyph glyph-name="Wdieresis.titl" horiz-adv-x="947" d="M229 0l-209 697h124l144 -484l137 365h97l136 -365l144 484h125l-209 -697h-100l-145 383l-144 -383h-100zM571 615q-24 0 -41.5 17t-17.5 40t17.5 40t41.5 17t42 -16.5t18 -40.5t-18 -40.5t-42 -16.5zM376 615q-24 0 -41.5 17t-17.5 40t17.5 40t41.5 17t41.5 -17 t17.5 -40t-17.5 -40t-41.5 -17z"/>
    <glyph glyph-name="Ygrave.titl" horiz-adv-x="686" d="M282 0v266l-266 431h132l197 -316l195 316h131l-265 -431v-266h-124zM313 600l-77 97h149l35 -97h-107z"/>
    <glyph glyph-name="Yacute.titl" horiz-adv-x="686" d="M282 0v266l-266 431h132l197 -316l195 316h131l-265 -431v-266h-124zM270 600l35 97h150l-78 -97h-107z"/>
    <glyph glyph-name="Ycircumflex.titl" horiz-adv-x="694" d="M286 0v264l-270 433h132l201 -323l199 323h130l-268 -433v-264h-124zM218 600l109 97h43l109 -97h-91l-40 47l-39 -47h-91z"/>
    <glyph glyph-name="Ydieresis.titl" horiz-adv-x="694" d="M286 0v264l-270 433h132l201 -323l199 323h130l-268 -433v-264h-124zM427 615q-24 0 -41.5 17t-17.5 40t17.5 40t41.5 17t42 -17t18 -40t-18 -40t-42 -17zM268 615q-24 0 -41.5 17t-17.5 40t17.5 40t41.5 17t41.5 -17t17.5 -40t-17.5 -40t-41.5 -17z"/>
    <glyph glyph-name="Zacute.titl" horiz-adv-x="646" d="M283 600l35 97h149l-77 -97h-107zM49 0v82l368 388h-326v113h504v-86l-357 -384h370v-113h-559z"/>
    <glyph glyph-name="Zcaron.titl" horiz-adv-x="646" d="M330 600l-140 97h119l44 -47l44 47h119l-140 -97h-46zM49 0v82l368 388h-326v113h504v-86l-357 -384h370v-113h-559z"/>
    <glyph glyph-name="Zdotaccent.titl" horiz-adv-x="646" d="M350 615q-24 0 -41.5 17t-17.5 40t17.5 40t41.5 17t41.5 -17t17.5 -40t-17.5 -40t-41.5 -17zM49 0v82l368 388h-326v113h504v-86l-357 -384h370v-113h-559z"/>
    <glyph glyph-name="Eng.titl" horiz-adv-x="764" d="M77 0v697h111l379 -462q4 18 4 55v407h121v-451q0 -105 -25 -158t-77 -76.5t-126 -23.5q-43 0 -91 9v114q24 -10 80 -10q21 0 41.5 4t30.5 10l-327 397v-512h-121z"/>
    <glyph glyph-name="Cacute.ss01.titl" horiz-adv-x="629" d="M303 600l35 97h149l-77 -97h-107zM40 285q0 62 25.5 117t70.5 95.5t105 63t125 22.5q60 0 114 -18.5t96 -52.5v-128q-91 86 -210 86q-85 0 -143.5 -53.5t-58.5 -131.5t58.5 -131.5t143.5 -53.5q59 0 112.5 22.5t97.5 63.5v-127q-42 -34 -96 -52.5t-114 -18.5 q-65 0 -125 22t-105 62.5t-70.5 95.5t-25.5 117z"/>
    <glyph glyph-name="Ccircumflex.ss01.titl" horiz-adv-x="629" d="M40 285q0 62 25.5 117t70.5 95.5t105 63t125 22.5q60 0 114 -18.5t96 -52.5v-128q-91 86 -210 86q-85 0 -143.5 -53.5t-58.5 -131.5t58.5 -131.5t143.5 -53.5q59 0 112.5 22.5t97.5 63.5v-127q-42 -34 -96 -52.5t-114 -18.5q-65 0 -125 22t-105 62.5t-70.5 95.5 t-25.5 117zM198 600l139 97h47l140 -97h-119l-44 47l-44 -47h-119z"/>
    <glyph glyph-name="Ccaron.ss01.titl" horiz-adv-x="629" d="M40 285q0 62 25.5 117t70.5 95.5t105 63t125 22.5q60 0 114 -18.5t96 -52.5v-128q-91 86 -210 86q-85 0 -143.5 -53.5t-58.5 -131.5t58.5 -131.5t143.5 -53.5q59 0 112.5 22.5t97.5 63.5v-127q-42 -34 -96 -52.5t-114 -18.5q-65 0 -125 22t-105 62.5t-70.5 95.5 t-25.5 117zM335 600l-139 97h119l44 -47l44 47h119l-139 -97h-48z"/>
    <glyph glyph-name="Cdotaccent.ss01.titl" horiz-adv-x="629" d="M359 615q-24 0 -41.5 17t-17.5 40t17.5 40t41.5 17t42 -17t18 -40t-18 -40t-42 -17zM40 285q0 62 25.5 117t70.5 95.5t105 63t125 22.5q60 0 114 -18.5t96 -52.5v-128q-91 86 -210 86q-85 0 -143.5 -53.5t-58.5 -131.5t58.5 -131.5t143.5 -53.5q59 0 112.5 22.5 t97.5 63.5v-127q-42 -34 -96 -52.5t-114 -18.5q-65 0 -125 22t-105 62.5t-70.5 95.5t-25.5 117z"/>
    <glyph glyph-name="Ccedilla.ss01.titl" horiz-adv-x="629" d="M40 410q0 62 25.5 117t70.5 95.5t105 63t125 22.5q60 0 114 -18.5t96 -52.5v-128q-91 86 -210 86q-85 0 -143.5 -53.5t-58.5 -131.5t58.5 -131.5t143.5 -53.5q59 0 112.5 22.5t97.5 63.5v-127q-42 -34 -96 -52.5t-114 -18.5h-2l-8 -19q28 0 47.5 -14.5t19.5 -39.5 q0 -32 -26 -49.5t-70 -17.5q-9 0 -33.5 4.5t-44.5 19.5l22 43q23 -14 51 -14q15 0 24 5t9 15q0 11 -11 17t-58 6l21 48q-55 9 -104.5 34.5t-86 64.5t-56.5 89t-20 105z"/>
    <glyph glyph-name="Gcircumflex.ss01.titl" horiz-adv-x="689" d="M40 285q0 62 25.5 117.5t70 96t104 63t124.5 22.5q56 0 107 -15t89 -42v-122q-41 32 -91.5 49.5t-104.5 17.5q-52 0 -100 -24t-74 -69t-26 -94q0 -38 15 -72.5t42.5 -59.5t64.5 -39t78 -14q49 0 92 16.5t73 46.5v68h-184v105h296v-217q-48 -61 -120.5 -96t-156.5 -35 q-65 0 -124.5 22t-104 62.5t-70 95.5t-25.5 117zM196 600l140 97h47l139 -97h-118l-45 47l-44 -47h-119z"/>
    <glyph glyph-name="Gbreve.ss01.titl" horiz-adv-x="689" d="M362 602q-58 0 -97.5 27t-47.5 68h89q6 -13 21 -20.5t35 -7.5t35 7.5t21 20.5h88q-7 -41 -46.5 -68t-97.5 -27zM40 285q0 62 25.5 117.5t70 96t104 63t124.5 22.5q56 0 107 -15t89 -42v-122q-41 32 -91.5 49.5t-104.5 17.5q-52 0 -100 -24t-74 -69t-26 -94 q0 -38 15 -72.5t42.5 -59.5t64.5 -39t78 -14q49 0 92 16.5t73 46.5v68h-184v105h296v-217q-48 -61 -120.5 -96t-156.5 -35q-65 0 -124.5 22t-104 62.5t-70 95.5t-25.5 117z"/>
    <glyph glyph-name="Gdotaccent.ss01.titl" horiz-adv-x="689" d="M360 615q-24 0 -41.5 17t-17.5 40t17.5 40t41.5 17t42 -17t18 -40t-18 -40t-42 -17zM40 285q0 62 25.5 117.5t70 96t104 63t124.5 22.5q56 0 107 -15t89 -42v-122q-41 32 -91.5 49.5t-104.5 17.5q-52 0 -100 -24t-74 -69t-26 -94q0 -38 15 -72.5t42.5 -59.5t64.5 -39 t78 -14q49 0 92 16.5t73 46.5v68h-184v105h296v-217q-48 -61 -120.5 -96t-156.5 -35q-65 0 -124.5 22t-104 62.5t-70 95.5t-25.5 117z"/>
    <glyph glyph-name="Gcommaaccent.ss01.titl" horiz-adv-x="689" d="M364 113q-65 0 -124.5 22.5t-104.5 62.5t-70 95.5t-25 117.5t25.5 117t70 95.5t104 63t124.5 22.5q55 0 106 -15t90 -42v-122q-85 66 -196 66q-41 0 -73.5 -12t-58.5 -32t-47 -56.5t-21 -84.5q0 -29 10 -60.5t34.5 -59t64 -47t91.5 -19.5q49 0 92 16.5t73 46.5v67h-184 v106h296v-217q-48 -61 -120.5 -96t-156.5 -35zM250 0l36 97h149l-77 -97h-108z"/>
    <glyph glyph-name="Kcommaaccent.ss03.titl" horiz-adv-x="660" d="M77 0v697h125v-318l288 318h150l-305 -335l319 -362h-151l-301 341v-341h-125zM230 0l32 97h126l-60 -97h-98z"/>
    </font>
</defs>
</svg>
